<?xml version="1.0" standalone="no"?>
<!DOCTYPE svg PUBLIC "-//W3C//DTD SVG 1.1//EN" "http://www.w3.org/Graphics/SVG/1.1/DTD/svg11.dtd" >
<svg>
<metadata>
Created by FontForge 20080430 at Sat May 22 14:30:22 2010
 By Simon Tatham,,,
No copyright is claimed on this font file.
</metadata>
<defs>
<font id="Gonville-Brace-Part1" horiz-adv-x="0" >
  <font-face 
    font-family="Gonville-Brace-Part1"
    font-weight="400"
    font-stretch="normal"
    units-per-em="1000"
    panose-1="2 0 5 3 0 0 0 0 0 0"
    ascent="800"
    descent="-200"
    x-height="1939.79"
    cap-height="1506.98"
    bbox="-780.4 -5049.89 5.16268e-11 5049.89"
    underline-thickness="50"
    underline-position="-100"
    unicode-range="U+0021-U+00FF"
  />
    <missing-glyph />
    <glyph glyph-name="brace223" unicode="!" 
d="M-14.2712 1155.03c-3.6181 -0.920044 -4.6518 -2.12 -9.8492 -11.51c-87.8666 -158.909 -136.51 -315.606 -144.407 -465.152c-0.775009 -14.7 -1.16 -29.387 -1.16 -44.035c0 -89.041 14.252 -176.644 41.993 -257.154c17.688 -51.342 25.986 -88.499 29.6332 -132.547
c0.873596 -10.531 1.3061 -20.892 1.3061 -31.059c0 -87.752 -32.2103 -161.102 -91.0113 -205.235c-5.54199 -4.16363 -6.575 -5.71423 -6.575 -9.64815c0 -3.93391 1.033 -5.48451 6.575 -9.64819c59.438 -44.6225 90.8804 -117.19 90.8804 -205.601
c0 -26.569 -2.8396 -54.569 -8.6124 -83.671c-5.398 -27.25 -10.05 -43.876 -22.886 -81.693c-27.459 -80.935 -41.141 -165.12 -41.141 -251.706c0 -147.744 39.837 -302.48 119.044 -459.991c12.8929 -25.67 29.6623 -56.71 31.7872 -58.92
c1.8321 -1.8999 4.1177 -2.75 6.3673 -2.75c4.66083 0 9.16738 3.64001 9.16738 9.12v0c0.00124002 0.109985 0.00205016 0.220093 0.00205016 0.320068c0 2.27002 -0.40053 3.07996 -5.42913 12.1699c-53.2907 96.5 -80.4103 211.905 -80.4103 339.116
c0 51.76 4.4899 105.476 13.5337 160.669c12.175 74.4 28.9157 139.41 57.8889 224.836c12.1463 35.836 17.5734 68.169 17.5734 104.809c0 111.844 -56.8839 215.332 -164.019 298.432c-3.015 2.35461 -5.513 4.39336 -5.513 4.50821
c0 0.11486 2.498 2.15361 5.54199 4.50822c107.106 83.1004 163.99 186.588 163.99 298.433c0 39.023 -5.39837 69.432 -19.8993 111.786c-46.1996 134.919 -69.4571 263.32 -69.4571 381.029c0 67.826 7.722 132.102 23.2264 192.031
c13.4672 52.063 33.9408 104.353 57.5443 147.163c5.0286 9.12 5.42913 9.91003 5.42913 12.1799c0 0.100098 -0.000810146 0.200073 -0.00205016 0.310059c0 5.13 -4.24636 9.16003 -9.04128 9.16003c-0.6829 0 -1.3769 -0.0900879 -2.0713 -0.26001z" />
    <glyph glyph-name="brace224" unicode="&#x22;" 
d="M-14.1808 1162.64c-3.7869 -0.839966 -4.4807 -1.65002 -10.349 -12.29c-85.5952 -154.772 -134.738 -310.035 -144.162 -455.614c-1.218 -18.931 -1.87199 -41.394 -1.87199 -61.074c0 -10.221 0.175995 -19.692 0.541992 -27.528
c4.105 -85.798 16.998 -154.165 43.94 -232.823c19.334 -56.467 28.8415 -109.96 28.8415 -158.65c0 -88.676 -31.5355 -161.419 -92.6705 -207.176c-4.162 -3.12202 -4.914 -4.10488 -5.492 -7.198c-0.136993 -0.751738 -0.210007 -1.44815 -0.210007 -2.10568
c0 -3.08468 1.604 -5.31395 5.70201 -8.38783c60.207 -45.0638 92.7789 -118.514 92.7789 -207.598c0 -9.72101 -0.387894 -19.628 -1.17 -29.705c-3.2959 -42.321 -11.8809 -82.069 -27.7799 -128.523c-29.547 -86.409 -44.336 -174.429 -44.336 -264.418
c0 -140.951 36.283 -286.735 108.973 -438.729c13.4999 -28.1899 39.9215 -78.2599 42.8701 -81.23c1.8072 -1.80994 4.0745 -2.64001 6.3133 -2.64001c4.13551 0 8.17395 2.82007 9.03666 7.48999c0.11344 0.630005 0.18154 1.19006 0.18154 1.75
c0 1.99011 -0.87625 3.94006 -3.67936 9.01001c-48.3336 87.4401 -76.2584 189.313 -81.8954 298.902c-0.645195 12.7 -0.991196 32.25 -0.991196 50.101c0 12.542 0.170799 24.244 0.528702 32.141c5.319 114.908 27.0865 222.098 71.6332 352.818
c11.6827 34.262 17.4474 69.429 17.4474 104.518c0 68.145 -21.7423 135.997 -64.1044 196.353c-26.4216 37.6667 -62.4986 74.6396 -103.287 105.831c-1.82199 1.41648 -3.325 2.65951 -3.325 2.77514v0c0 0.11563 1.50301 1.35866 3.325 2.77514
c40.904 31.2781 76.8072 68.0776 103.287 105.831c42.3621 60.357 64.1044 128.183 64.1044 196.327c0 35.089 -5.76472 70.262 -17.4474 104.544c-22.4613 65.939 -35.3252 111.468 -47.3219 167.375c-16.8082 78.364 -25.1936 153.144 -25.1936 223.962
c0 128.927 27.793 244.717 83.1535 345.087c2.65282 4.80994 3.81463 7.5 3.81463 9.77991c0 1.30005 -0.37637 2.46008 -1.0684 3.81006c-1.29626 2.51001 -5.21625 4.92004 -7.82414 4.92004c-0.183701 0 -0.360901 -0.0100098 -0.5302 -0.0400391
c-0.0867004 0 -0.8961 -0.170044 -1.7633 -0.369995z" />
    <glyph glyph-name="brace225" unicode="#" 
d="M-15.9042 1169.83c-2.5028 -1.18994 -3.1721 -2.06995 -7.0427 -9.04993c-98.5021 -177.327 -148.372 -352.029 -148.372 -518.542c0 -36.418 2.386 -72.4449 7.17 -108.021c7.217 -53.868 18.567 -101.712 36.93 -155.987
c20.206 -59.669 29.9091 -111.039 29.9091 -159.89c0 -14.191 -0.818802 -28.169 -2.4369 -42.077c-8.2652 -71.066 -41.3242 -132.384 -90.7692 -168.354c-4.743 -3.43402 -5.965 -5.32565 -5.965 -9.1671v0c0 -3.84144 1.222 -5.73307 5.965 -9.16707
c59.117 -42.9991 93.2043 -120.015 93.2043 -208.855c0 -6.28101 -0.170303 -12.621 -0.514297 -19.013c-2.53201 -47.32 -10.506 -86.025 -29.393 -142.454c-3.841 -11.437 -8.20699 -24.94 -9.71999 -29.975c-22.757 -75.81 -34.132 -153.64 -34.132 -233.125
c0 -84.368 12.815 -170.6 38.439 -258.26c13.329 -45.632 29.044 -89.197 48.6585 -134.803c17.3447 -40.39 38.1816 -82.6799 61.0266 -123.77c3.8706 -6.97998 4.5399 -7.84998 7.0427 -9.04993c1.3467 -0.650024 2.7228 -0.940063 4.0507 -0.940063
c4.73185 0 8.85211 3.78003 8.85211 9.03003c0 0.160034 -0.00354004 0.310059 -0.0107 0.469971l-0.0873001 2.38l-4.45259 8.15002c-55.1852 101.07 -82.7857 216.362 -82.7857 344.414c0 120.182 24.312 251.599 72.9493 393.031
c11.546 33.592 17.3884 69.442 17.3884 105.313c0 21.993 -2.19625 43.994 -6.62072 65.486c-18.2178 88.498 -72.3182 168.791 -159.303 236.452c-3.114 2.41546 -5.675 4.53989 -5.675 4.6854v0c0 0.14551 2.561 2.26995 5.675 4.68541
c86.9851 67.6619 141.085 147.954 159.303 236.453c4.42447 21.492 6.62072 43.48 6.62072 65.462c0 35.853 -5.84236 71.691 -17.3884 105.337c-19.7311 57.418 -32.3031 100.751 -43.7402 150.602c-19.5799 85.467 -29.3548 166.675 -29.3548 243.285
c0 129.261 27.8276 245.434 83.3388 346.904l4.04516 7.42004l0.1164 2.38c0.00529003 0.150024 0.00791001 0.290039 0.00791001 0.429932c0 5.22009 -3.69944 8.97009 -9.00042 8.97009c-1.8043 0 -2.4736 -0.140015 -3.9287 -0.840088z" />
    <glyph glyph-name="brace226" unicode="$" 
d="M-15.2988 1177.87c-2.6954 -1.05994 -3.6329 -2.29004 -8.9357 -11.84c-88.7415 -160.32 -138.489 -320.719 -146.545 -472.421c-1.026 -18.867 -1.172 -25.43 -1.172 -46.436v0c0 -21.006 0.145996 -27.188 1.14299 -45.9969
c4.043 -75.323 18.516 -149.153 43.33 -220.99c19.904 -57.632 29.6888 -112.328 29.6888 -162.121c0 -89.756 -31.7918 -163.582 -93.4098 -209.956c-5.215 -3.89655 -6.41701 -5.68369 -6.41701 -9.43376v0c0 -3.75007 1.20201 -5.53721 6.41701 -9.43378
c61.041 -45.9368 93.5121 -120.589 93.5121 -210.941c0 -24.436 -2.37511 -50.02 -7.2021 -76.495c-5.655 -30.909 -11.045 -50.802 -24.962 -91.76c-28.043 -82.596 -41.998 -168.611 -41.998 -257.057c0 -166.58 49.502 -341.787 147.616 -519.028
c5.3321 -9.64001 6.211 -10.8099 9.0236 -11.84c1.1404 -0.430054 2.2846 -0.630005 3.3918 -0.630005c4.84751 0 8.98551 3.83997 8.98551 9.04004c0 0.179932 -0.00455999 0.349976 -0.0138199 0.530029c-0.11719 2.37 -0.0585899 2.25 -5.47861 12.1299
c-46.6415 84.8101 -75.0014 188.085 -81.0073 295.02c-1.084 19.102 -1.2012 23.878 -1.2012 50.831c0 122.112 22.9984 248.765 70.2258 386.873c11.3088 33.076 16.7582 57.335 19.102 85.255c0.805796 9.54199 1.20675 19.043 1.20675 28.493
c0 105.658 -50.1161 205.064 -144.911 286.278c-8.554 7.3536 -23.555 19.4828 -27.51 22.2367l-0.702988 0.49806l0.702988 0.498056c3.955 2.75395 18.956 14.8831 27.51 22.2368c94.7949 81.2141 144.911 180.62 144.911 286.278
c0 9.45001 -0.400954 18.951 -1.20675 28.493c-2.3438 27.803 -7.82241 52.267 -18.9555 84.816c-47.0849 137.492 -70.8879 268.458 -70.8879 388.652c0 39.852 2.6167 78.52 7.8692 115.849c11.7483 83.642 37.5007 163.162 74.9428 231.452
c5.33213 9.75 5.27353 9.64001 5.39072 11.9801c0.00914001 0.169922 0.0136499 0.349976 0.0136499 0.519897c0 5.22009 -4.17928 9.06006 -9.03754 9.06006c-1.1207 0 -2.2775 -0.209961 -3.4275 -0.640015z" />
    <glyph glyph-name="brace227" unicode="%" 
d="M-14.4472 1185.98c-3.3034 -1 -4.1882 -2.12 -9.6741 -12.0599c-99.1067 -179.946 -148.807 -354.597 -148.807 -522.221c0 -77.56 10.641 -153.615 31.951 -227.995c3.92201 -13.685 7.46201 -24.775 13.508 -42.442c19.667 -57.511 29.481 -110.839 29.481 -160.513
c0 -15.211 -0.920204 -30.079 -2.759 -44.619c-9.055 -71.936 -41.971 -131.81 -93.025 -169.208c-3.42099 -2.50701 -5.132 -5.42693 -5.132 -8.34686s1.71101 -5.83986 5.132 -8.34687c51.054 -37.3987 83.97 -97.2719 93.025 -169.208
c1.8409 -14.557 2.7627 -29.438 2.7627 -44.66c0 -49.639 -9.8017 -102.914 -29.4847 -160.473c-28.049 -82.023 -41.823 -156.879 -44.802 -243.475c-0.141998 -4.224 -0.207001 -12.324 -0.207001 -21.329c0 -15.262 0.186996 -33.124 0.501999 -39.134
c1.47499 -28.196 2.59599 -42.766 4.92599 -63.265c15.573 -137.177 63.737 -279.544 143.283 -423.364c5.8693 -10.61 6.9606 -11.6799 11.9746 -11.6799c5.30186 0 9.21058 4.32996 9.21058 9c0 1.32996 -0.31763 2.68994 -1.01115 3.97998
c-0.41291 0.829956 -2.507 4.66003 -4.66008 8.56006c-55.2098 100.84 -83.0556 218.866 -83.0556 349.364c0 69.722 7.9487 143.006 23.9197 219.132c12.6826 60.405 26.1024 108.421 49.6093 177.408c11.888 34.89 17.7801 70.791 17.7801 106.655
c0 58.454 -15.6523 116.809 -46.5075 170.532c-28.6683 49.9335 -71.1695 97.0652 -123.965 137.472c-1.858 1.44522 -3.39101 2.71347 -3.39101 2.83145v0c0 0.11797 1.533 1.38623 3.39101 2.83144c52.795 40.4071 95.2962 87.5389 123.965 137.473
c30.8552 53.722 46.5075 112.078 46.5075 170.532c0 35.864 -5.8921 71.764 -17.7801 106.654c-5.7809 17.019 -12.5055 37.281 -15.5139 46.896c-38.8631 124.306 -58.2487 242.255 -58.2487 351.414c0 130.758 27.8156 248.905 83.2893 350.255l4.66008 8.55005
c0.66796 1.25 0.96902 2.54993 0.96902 3.82996c0 4.83997 -4.29075 9.34998 -9.32945 9.34998c-0.8165 0 -1.6527 -0.119995 -2.4934 -0.380005z" />
    <glyph glyph-name="brace228" unicode="&#x26;" 
d="M-13.7559 1194.04c-3.6819 -0.950073 -4.543 -1.98999 -10.9565 -13.66c-99.0316 -179.78 -148.888 -355.883 -148.888 -524.382c0 -68.594 8.26201 -135.929 24.833 -201.74c6.32401 -25.209 10.274 -38.482 19.894 -67.253c3.741 -11.194 7.423 -22.329 8.165 -24.794
c14.87 -48.425 22.3977 -95.806 22.3977 -140.224c0 -16.426 -1.0293 -32.447 -3.09769 -47.966c-9.11501 -68.173 -41.51 -127.617 -89.344 -163.961c-8.19501 -6.23539 -8.908 -7.15585 -8.908 -11.4315c0 -4.2757 0.712997 -5.19616 8.908 -11.4316
c53.713 -40.7973 85.217 -105.2 91.779 -187.507c0.371201 -4.69101 0.556801 -14.616 0.556801 -24.604c0 -9.98799 -0.1856 -20.039 -0.556801 -24.982c-3.741 -49.468 -11.046 -83.525 -29.9 -139.851c-9.145 -27.288 -13.273 -41.154 -19.152 -64.255
c-16.899 -66.341 -25.327 -134.21 -25.327 -203.357c0 -168.008 49.754 -343.561 148.64 -523.091c3.5037 -6.42004 5.8791 -10.4 6.6808 -11.2001c1.719 -1.78992 4.0381 -2.63 6.3569 -2.63c3.44866 0 6.89687 1.85999 8.37048 5.21008
c0.56619 1.30994 0.87486 2.40991 0.87486 3.57996c0 2.08997 -0.97742 4.40002 -3.22055 8.44995c-49.8832 89.9701 -78.9223 195.019 -84.8904 307.019c-0.950203 17.429 -1.069 22.952 -1.069 48.547v0c0 126.222 23.6054 254.107 73.9043 400.104
c11.7523 34.141 17.705 70.705 17.705 107.342c0 21.864 -2.11989 43.754 -6.39222 65.171c-18.0827 90.591 -73.6371 173.581 -162.328 242.527c-3.41499 2.64262 -6.17599 4.86954 -6.17599 4.95862v0c0 0.0890801 2.761 2.316 6.17599 4.95862
c88.6907 68.9456 144.245 151.936 162.328 242.527c4.27233 21.418 6.39222 43.299 6.39222 65.156c0 36.625 -5.95272 73.179 -17.705 107.357c-50.4176 146.472 -74.2012 275.159 -74.2012 401.441c0.0296936 134.506 28.6531 252.982 86.2563 356.902
c2.24313 4.05005 3.22055 6.35999 3.22055 8.45007c0 1.16992 -0.30867 2.2699 -0.87486 3.57996c-1.3734 3.14001 -4.97284 5.28003 -8.48468 5.28003c-0.664 0 -1.3249 -0.0800781 -1.967 -0.23999z" />
    <glyph glyph-name="brace229" unicode="'" 
d="M-13.3115 1202.09c-3.8859 -0.809937 -4.962 -2 -10.2827 -11.6599c-90.7518 -164.16 -141.269 -326.744 -149.579 -481.404c-1.04599 -19.639 -1.196 -25.438 -1.196 -48.126v0c0 -22.718 0.150009 -28.636 1.196 -47.827
c4.21501 -76.702 19.131 -152.627 44.33 -225.235c20.184 -58.172 30.0913 -113.645 30.0913 -164.294c0 -91.868 -32.5953 -167.862 -95.5843 -215.302c-5.351 -4.0354 -6.576 -5.82891 -6.576 -9.59527c0 -3.13864 1.255 -5.58977 3.886 -7.56263
c64.773 -48.8471 98.3386 -123.287 98.3386 -216.918c0 -13.744 -0.723198 -27.902 -2.1776 -42.453c-3.646 -36.468 -13.869 -82.471 -25.826 -116.129c-31.742 -89.254 -47.571 -181.894 -47.571 -277.074c0 -153.459 41.146 -313.522 123.078 -476.65
c13.0926 -26.09 30.938 -59.24 33.0305 -61.46c1.7904 -1.85999 4.0153 -2.67004 6.2211 -2.67004c4.77081 0 9.45179 3.80005 9.45179 9.01001c0 0.540039 -0.05128 1.09998 -0.15908 1.68005c-0.3587 1.76001 -0.17935 1.42993 -4.93215 10.1
c-56.5512 103.08 -84.902 223.008 -84.902 355.618c0 110.549 19.7027 229.909 59.195 355.656l14.5573 44.091c12.5481 37.023 18.7219 74.236 18.7219 111.007c0 104.956 -50.3007 206.307 -146.24 289.363c-8.42999 7.2936 -25.199 20.8944 -29.474 23.8835
l-0.716995 0.50816l0.716995 0.508158c0.389008 0.269026 3.229 2.45113 6.33701 4.87236c110.608 86.0767 169.23 194.003 169.23 309.019c0 19.108 -1.61791 38.411 -4.88417 57.843c-3.16853 18.772 -7.11426 33.479 -15.9922 59.365
c-47.8156 139.821 -71.6937 272.493 -71.6937 394.507c0 132.522 28.1678 252.468 84.4277 355.358c5.44031 9.97998 5.32074 9.69006 5.64955 11.45c0.10397 0.550049 0.15373 1.1001 0.15373 1.64001c0 4.91003 -4.15412 9.06006 -9.06534 9.06006
c-0.5779 0 -1.1664 -0.0600586 -1.7598 -0.180054z" />
    <glyph glyph-name="brace230" unicode="(" 
d="M-14.4067 1209.6c-3.6412 -1.35999 -4.6944 -3.03992 -20.3727 -32.38c-93.2346 -174.52 -140.311 -348.127 -140.311 -513.496c0 -92.058 14.589 -181.564 43.924 -267.257c19.921 -58.259 28.016 -95.875 31.7478 -147.453
c0.270798 -3.58101 0.391197 -11.646 0.391197 -23.924c-0.0601959 -95.123 -33.613 -170.083 -97.65 -218.111c-3.56599 -2.66319 -5.349 -5.57465 -5.349 -8.48611c0 -2.91146 1.783 -5.82291 5.349 -8.48611c58.018 -43.5139 90.187 -107.461 97.1083 -193.134
c0.365402 -4.56801 0.565804 -16.385 0.565804 -27.495c0 -9.02101 -0.132103 -17.576 -0.415298 -21.406c-2.0158 -27.866 -5.0858 -49.322 -10.7428 -75.081c-5.297 -24.074 -9.389 -38.097 -21.607 -74.178c-28.743 -84.687 -43.033 -173.156 -43.033 -264.13
c0 -166.185 47.682 -340.733 142.038 -515.873c15.3572 -28.49 15.4735 -28.89 20.9684 -28.89h0.4877v0c5.68746 0 8.87727 3.19006 8.87727 8.88v2.86011l-2.91898 5.2699c-58.2161 105.3 -87.571 226.584 -87.571 361.269c0 28.157 1.283 56.899 3.8534 86.204
c8.7871 100.419 31.4769 203.155 68.9421 312.211c11.2246 32.68 17.0324 59.583 19.169 88.713c0.637719 8.685 0.955291 17.327 0.955291 25.922c0 117.947 -59.8021 226.961 -172.754 313.883c-2.317 1.77547 -4.213 3.34028 -4.213 3.46065
c0 0.12037 1.896 1.68519 4.213 3.46065c112.952 86.9226 172.754 195.937 172.754 313.884c0 8.595 -0.317572 17.237 -0.955291 25.922c-2.13657 29.099 -7.94444 56.002 -19.169 88.713c-48.5451 141.399 -73.0741 276.2 -73.0741 399.876
c0 48.515 3.7744 95.318 11.3542 140.135c13.6621 80.767 39.0903 154.737 76.4954 222.387l2.91898 5.26001v2.85999c0 5.31006 -4.07722 9.19006 -8.81757 9.19006c-1.0334 0 -2.0982 -0.190063 -3.1593 -0.580078z" />
    <glyph glyph-name="brace231" unicode=")" 
d="M-14.3841 1217.71c-3.1204 -1.18994 -3.6657 -1.90991 -8.9067 -11.36c-101.571 -183.74 -152.698 -363.915 -152.698 -536.532c0 -72.038 8.905 -142.759 26.763 -211.873c5.968 -23.115 10.391 -37.747 19.056 -63.346c18.116 -53.44 26.507 -92.278 29.991 -138.659
c0.736702 -9.838 1.1012 -19.543 1.1012 -29.097c0 -93.022 -34.5672 -171.632 -97.0142 -218.502c-5.78601 -4.33215 -6.93701 -5.99835 -6.93701 -9.84578c0 -3.84743 1.151 -5.51364 6.93701 -9.8458c63.053 -47.3199 96.942 -125.644 96.942 -219.412
c0 -24.133 -2.245 -49.29 -6.81499 -75.204c-5.605 -31.749 -11.451 -53.864 -24.205 -91.672c-25.933 -76.706 -40.08 -149.05 -44.231 -226.12c-0.983002 -18.483 -1.185 -24.725 -1.185 -43.384c0 -1.46399 0.0019989 -3.00397 0.0039978 -4.633
c0.0299988 -172.801 51.137 -352.235 152.412 -535.065c5.8166 -10.48 6.8163 -11.4501 11.9058 -11.4501c5.51367 0 8.93697 3.42004 8.93697 8.94006c0 0.390015 0.0073998 0.709961 0.0073998 1c0 1.90002 -0.31949 2.32996 -5.1575 11.11
c-41.0494 74.59 -68.3449 161.81 -79.9478 255.388c-4.0902 32.974 -6.1118 67.423 -6.1118 102.999c0 127.001 25.7636 268.361 75.1535 408.224c12.113 34.324 18.2752 72.173 18.2752 110.176c0 23.111 -2.27897 46.279 -6.88442 68.745
c-18.9645 92.338 -77.9786 179.253 -168.257 247.75c-1.606 1.24208 -2.93901 2.33269 -2.93901 2.42357v0c0 0.12118 2.81801 2.39329 6.302 5.08951c93.9739 73.0405 151.473 161.865 167.287 258.353c3.06666 18.697 4.59893 37.297 4.59893 55.8
c0 38.16 -6.51758 75.908 -19.5342 113.245c-48.7972 139.885 -74.2812 279.6 -74.2812 405.817c0 14.829 0.351799 29.472 1.0589 43.908c5.7257 116.18 34.9298 224.482 85.2796 316.272c4.83801 8.81006 5.1575 9.22009 5.1575 11.12
c0 0.290039 -0.0073998 0.610107 -0.0073998 1v0c0 5.26001 -4.19612 9.22009 -8.93737 9.22009c-1.0267 0 -2.0791 -0.180054 -3.1199 -0.580078z" />
    <glyph glyph-name="brace232" unicode="*" 
d="M-14.6454 1225.72c-2.7448 -1.13 -3.6598 -2.28992 -8.631 -11.28c-102.042 -184.4 -153.509 -366.175 -153.509 -540.026c0 -72.286 8.89801 -143.203 26.758 -212.367c6.52699 -25.314 11.071 -40.227 22.203 -72.952c15.371 -45.198 23.91 -86.523 27.54 -133.216
c0.369995 -4.881 0.573097 -17.584 0.573097 -29.285c0 -9.50099 -0.133904 -18.342 -0.421104 -21.799c-3.53799 -43.155 -10.918 -73.806 -25.527 -105.981c-16.103 -35.4389 -41.05 -67.279 -69.627 -88.8412c-7.56401 -5.67266 -8.90601 -7.41105 -8.90601 -11.3453
c0 -3.93426 1.342 -5.67266 8.90601 -11.3453c28.577 -21.5622 53.524 -53.4023 69.627 -88.8417c14.609 -32.175 21.989 -62.826 25.527 -105.981c0.287201 -3.457 0.421104 -12.298 0.421104 -21.799c0 -11.701 -0.203102 -24.404 -0.573097 -29.285
c-3.90401 -50.261 -12.2 -88.506 -31.169 -143.951c-30.098 -87.951 -45.103 -179.156 -45.103 -272.793c0 -154.953 41.09 -316.569 122.873 -481.121c14.8526 -29.86 33.731 -64.99 36.2319 -67.4301c1.7533 -1.70996 3.9973 -2.51001 6.227 -2.51001
c3.62698 0 7.21633 2.11011 8.59508 5.83008c0.43418 1.17993 0.68116 2.15002 0.68116 3.15002c0 2.03992 -1.00819 4.26001 -3.51749 8.80994c-58.817 106.11 -88.6679 229.893 -88.6679 366.629c0 27.188 1.1801 54.888 3.5474 83.063
c8.9055 106.012 30.7422 204.216 72.9212 328.313c11.6198 34.158 17.5974 70.939 17.5974 108.269v0c0 109.488 -51.4504 211.871 -148.74 296.106c-8.59999 7.4415 -25.71 21.3182 -30.071 24.368l-0.731995 0.51847l0.731995 0.518471
c2.013 1.40292 12.931 10.0644 18.573 14.6696c98.5704 81.0946 153.193 178.872 159.719 285.829c0.391796 6.444 0.585746 12.955 0.585746 19.505c0 36.786 -6.11832 74.774 -17.6647 108.74c-30.8337 90.671 -47.3637 153.863 -60.8439 232.548
c-10.5576 61.484 -15.7947 121.435 -15.7947 179.219c0 137.181 29.5168 262.144 87.4349 366.394c4.11725 7.43994 4.69672 8.71997 4.81871 10.83c0.01282 0.199951 0.01912 0.390015 0.01912 0.589966c0 5.10999 -4.27518 8.96008 -9.09396 8.96008
c-1.1595 0 -2.3505 -0.230103 -3.5209 -0.710083z" />
    <glyph glyph-name="brace233" unicode="+" 
d="M-13.538 1234.25c-3.4387 -0.97998 -4.1142 -1.81006 -9.3644 -11.27c-86.3986 -156 -137.488 -312.124 -150.998 -461.464c-2.46001 -27.254 -3.68501 -54.441 -3.68501 -81.471c0 -94.404 14.943 -186.904 44.397 -273.762
c12.036 -35.493 16.273 -49.954 21.462 -73.227c5.281 -23.764 8.505 -44.581 10.408 -67.086c1.228 -14.277 1.3818 -18.422 1.3818 -35.308c0 -96.377 -34.5408 -174.209 -98.7098 -222.536c-4.63701 -3.48479 -6.955 -6.53206 -6.955 -9.57934
c0 -3.04727 2.31799 -6.09454 6.955 -9.57937c58.949 -44.3965 92.047 -111.82 98.341 -200.43c0.246002 -3.577 0.368797 -12.818 0.368797 -22.11c0 -9.291 -0.122795 -18.633 -0.368797 -22.409c-3.408 -50.813 -12.404 -93.828 -30.488 -146.116
c-30.995 -89.508 -46.52 -182.966 -46.52 -278.794c0 -75.887 9.73601 -153.261 29.234 -231.336c25.73 -103.073 67.4857 -206.723 125.33 -311.173c5.5265 -9.97998 6.8161 -11.21 11.7285 -11.21c5.34237 0 9.02673 3.68994 9.02673 9.05994
c0.00399995 0.350098 0.01324 0.640015 0.01324 0.900024c0 1.76001 -0.41002 2.39001 -5.50908 11.66c-57.9135 105.49 -87.1203 228.773 -87.1203 365.418c0 69.599 7.5771 142.665 22.7975 218.611c12.926 64.446 27.5406 117.562 53.0241 192.6
c12.5608 37.018 18.7882 74.75 18.7882 112.31c0 64.899 -18.593 129.283 -55.2327 188.579c-29.1985 47.2522 -71.3533 92.7233 -121.584 131.071c-1.93401 1.50444 -3.53 2.82467 -3.53 2.94748c0 0.12282 1.59599 1.44304 3.53 2.94749
c50.231 38.348 92.3858 83.8191 121.584 131.071c36.6397 59.297 55.2327 123.681 55.2327 188.58c0 37.56 -6.22745 75.292 -18.7882 112.31c-21.5535 63.494 -34.0189 106.723 -45.9317 159.195c-20.144 88.72 -30.2408 173.776 -30.2408 254.025
c0 50.749 4.0379 99.574 12.126 146.188c13.8164 79.6771 39.6069 154.957 75.3452 219.987c5.09906 9.26001 5.50908 9.89001 5.50908 11.65c0 0.27002 -0.00924003 0.560059 -0.01324 0.910034c-0.0262101 5.28992 -4.12327 9.19995 -8.98843 9.19995
c-0.834901 0 -1.6924 -0.119995 -2.5559 -0.359985z" />
    <glyph glyph-name="brace234" unicode="," 
d="M-12.6775 1242.7c-3.8636 -0.779907 -4.8527 -1.94995 -10.4782 -12.12c-103.206 -186.43 -155.243 -370.356 -155.243 -546.484c0 -73.374 9.03101 -145.393 27.156 -215.675c6.491 -25.253 10.972 -40.09 20.554 -68.155
c20.44 -59.956 30.487 -116.871 30.487 -168.783c0 -95.28 -33.848 -173.706 -99.414 -223.146c-5.657 -4.26547 -6.73801 -5.81093 -6.73801 -9.73639v0c0 -3.92547 1.08101 -5.47093 6.73801 -9.73642c64.565 -48.6873 99.543 -128.081 99.543 -224.059
c0 -11.079 -0.466003 -22.379 -1.40701 -33.879c-3.616 -44.231 -12.518 -85.031 -29.209 -133.991c-9.242 -27.076 -14.094 -43.18 -20.214 -66.826c-18.177 -70.342 -27.243 -142.338 -27.243 -215.676c0 -158.877 42.55 -324.054 127.203 -492.394
c14.0018 -27.8201 31.2801 -59.87 33.5055 -62.1901c1.8231 -1.88 4.1007 -2.71997 6.3468 -2.71997c4.68438 0 9.23145 3.66003 9.23145 9.15002c0 2.47998 -0.27818 3.08997 -5.81093 13.11c-38.7601 70.35 -66.1765 154.51 -78.973 242.635
c-5.7662 39.692 -8.62579 81.191 -8.62579 124.094c0 124.751 24.1768 261.377 71.3715 399.971c7.0473 20.648 8.5309 25.191 10.3546 31.651c9.08343 32.09 13.5429 64.278 13.5429 96.145c0 118.754 -61.9275 233.059 -177.269 321.253
c-2.349 1.79273 -4.265 3.33819 -4.265 3.46183c0 0.12363 1.916 1.66909 4.23399 3.46183c56.039 42.8402 101.66 94.2422 131.55 148.178c30.3118 54.751 45.7026 114.239 45.7026 173.697c0 37.549 -6.13836 75.086 -18.5334 111.41
c-24.851 72.884 -39.2238 124.471 -52.2675 187.464c-16.398 79.263 -24.5502 155.763 -24.5502 228.589c0 138.434 29.4574 263.589 87.7286 369.199c5.53275 10.01 5.81093 10.63 5.81093 13.1c0 5.17004 -4.17098 9.17004 -9.05045 9.17004
c-0.5812 0 -1.1724 -0.0599365 -1.7678 -0.170044z" />
    <glyph glyph-name="brace235" unicode="-" 
d="M-13.5911 1250.6c-3.6718 -1.17993 -3.7963 -1.37 -15.1539 -22.28c-89.523 -164.54 -140.274 -330.552 -148.987 -487.287c-1.02701 -18.608 -1.151 -22.342 -1.30701 -44.684c-0.0200043 -2.65802 -0.0299988 -5.30597 -0.0299988 -7.94501
c0 -99.504 14.345 -185.374 47.234 -283.588c17.768 -53.085 25.703 -88.558 29.717 -132.713c1.154 -12.739 1.724 -25.265 1.724 -37.542c0 -95.94 -34.84 -176.622 -98.124 -224.679c-8.495 -6.44117 -8.77499 -6.81457 -8.77499 -11.451
c0 -4.6364 0.279999 -5.0098 8.77499 -11.4509c63.284 -48.0563 98.124 -128.738 98.124 -224.678c0 -12.277 -0.57 -24.803 -1.724 -37.542c-3.983 -44.031 -12.416 -81.62 -29.748 -132.776c-31.42 -92.74 -47.131 -187.436 -47.131 -284.094
c0 -176.542 52.412 -359.63 157.253 -549.31c4.7609 -8.60999 5.9122 -9.64001 10.9531 -9.64001c5.72547 0 8.86826 3.11011 8.86826 8.87012v0v2.94995l-3.51619 6.31995c-52.4006 94.38 -83.0818 206.18 -89.2118 325.232c-0.694405 13.56 -1.0669 34.979 -1.0669 54.407
c0 13.65 0.183899 26.317 0.569099 34.587c5.7566 122.444 30.4944 245.48 75.2403 373.867c13.3282 38.264 19.9078 77.316 19.9078 116.177c0 77.814 -26.3806 154.865 -77.785 223.307c-27.072 36.0021 -64.505 73.2489 -101.721 101.129
c-1.836 1.36914 -3.32901 2.55158 -3.32901 2.64493c0 0.0933501 1.49301 1.27578 3.32901 2.64492c37.216 27.8806 74.649 65.1274 101.721 101.13c51.4294 68.462 77.7597 145.23 77.7597 223.019c0 39.027 -6.62756 78.311 -20.0381 116.931
c-42.9411 123.627 -68.1146 245.107 -74.5557 359.71c-1.0891 19.261 -1.27579 27.258 -1.27579 55.388c0 27.196 0.124397 32.8589 1.1202 51.187c6.34779 118.489 37.0911 230.079 89.3362 324.139l3.51619 6.32007v2.95996c0 5.29004 -4.05898 9.20007 -8.83266 9.20007
c-0.9266 0 -1.8801 -0.150024 -2.8361 -0.460083z" />
    <glyph glyph-name="brace236" unicode="." 
d="M-13.6109 1258.87c-3.3831 -1.38 -3.759 -1.84998 -9.0218 -11.34c-104.353 -188.26 -157.418 -375.631 -157.418 -554.199c0 -42.173 2.95999 -83.854 8.903 -124.94c8.58299 -59.3 19.673 -104.315 41.569 -168.846c19.233 -56.568 28.905 -112.146 28.905 -163.557
c0 -41.371 -6.264 -80.045 -18.849 -114.364c-17.762 -48.461 -44.827 -85.2061 -85.112 -115.592c-2.71001 -2.03617 -4.06401 -4.82416 -4.06401 -7.61215c0 -2.78798 1.354 -5.57597 4.06401 -7.61214c68.477 -51.6632 103.954 -130.487 103.954 -229.176
c0 -20.092 -1.47 -41.008 -4.432 -62.686c-4.918 -36.024 -13.22 -69.23 -28.444 -113.555c-30.845 -89.833 -46.191 -183.436 -46.191 -279.617c0 -175.858 51.304 -360.334 152.98 -546.124c10.3901 -18.99 10.4016 -19.11 15.9145 -19.11h0.2183v0
c5.36823 0 9.18254 4.17993 9.18254 8.87c0 1.41992 -0.34623 2.88 -1.10053 4.27991c-0.43856 0.880005 -2.66268 4.95007 -4.94946 9.09009c-59.2366 108.25 -88.8951 234.06 -88.8951 373.04c0 127.295 24.881 265.64 74.7046 411.666
c3.1952 9.30402 6.5471 19.579 7.4869 22.837c9.53258 32.991 14.206 66.14 14.206 98.977c0 121.688 -64.1791 239.105 -183.083 328.431l-0.940002 0.68916l0.940002 0.720495c119.24 89.5482 182.948 206.253 182.948 327.741c0 39.115 -6.60414 78.727 -20.0854 118.087
c-51.0207 148.982 -76.5085 289.261 -76.5085 418.057c0 139.195 29.7717 264.985 89.2581 373.855l4.91813 9.08997c0.68791 1.28003 0.99606 2.63 0.99606 3.95007c0 4.91992 -4.26213 9.53992 -9.10297 9.53992c-0.970301 0 -1.9639 -0.179932 -2.9511 -0.589966z" />
    <glyph glyph-name="brace237" unicode="/" 
d="M-13.9682 1267.24c-3.4374 -1.31995 -7.1271 -7.43994 -25.4811 -42.38c-94.0807 -179.09 -141.421 -356.262 -141.421 -526.279c0 -98.862 16.007 -195.305 48.137 -288.298c21.23 -61.456 31.667 -119.84 31.667 -173.147
c0 -97.935 -35.228 -178.731 -103.474 -229.947c-3.74501 -2.81616 -5.62901 -5.5358 -5.62901 -8.34265c0 -3.19662 2.44301 -6.50635 7.36301 -10.2005c55.598 -41.8168 90.824 -108.074 99.465 -187.166c1.526 -13.959 2.289 -28.164 2.289 -42.619
c0 -53.638 -10.508 -110.731 -31.523 -171.543c-32.104 -92.774 -48.128 -188.662 -48.128 -287.047c0 -150.765 37.628 -307.391 112.682 -467.671c16.4618 -35.16 47.3356 -94.2899 51.2145 -98.02c1.7387 -1.68994 3.8843 -2.43994 6.0146 -2.43994
c4.70902 0 9.34345 3.67993 9.34345 9.06995v0c0 2.17004 -0.47304 3.31006 -4.35197 10.3401c-60.6842 109.91 -91.2657 237.85 -91.2657 379.436c0 75.842 8.7741 155.602 26.396 238.608c13.119 61.81 27.121 111.732 51.3092 182.751
c12.8909 37.862 19.2534 76.522 19.2534 115.011c0 78.266 -26.3095 155.822 -77.532 224.506c-27.7516 37.2439 -65.7846 75.2449 -104.259 104.163c-1.86 1.40335 -2.791 1.97888 -2.791 2.55442c0 0.57553 0.931 1.15106 2.791 2.55442
c97.9198 73.6051 161.812 172.219 177.422 273.859c2.96733 19.278 4.47581 37.801 4.47581 56.09c0 39.633 -7.08414 78.165 -21.7576 120.891c-50.17 146.054 -75.632 287.038 -75.632 416.441c0 46.455 3.2815 91.418 9.8794 134.585
c13.6236 89.1899 41.5014 172.82 81.8676 245.76c3.72125 6.68994 4.19429 7.85999 4.19429 10.03v0c0 5.15991 -4.38224 9.06995 -9.23765 9.06995c-1.085 0 -2.1936 -0.199951 -3.2822 -0.619995z" />
    <glyph glyph-name="brace238" unicode="0" 
d="M-12.8807 1275.96c-3.4002 -0.909912 -4.0288 -1.67993 -10.0577 -12.6c-105.466 -190.97 -158.664 -379.423 -158.664 -559.941c0 -75.557 9.32001 -149.723 28.028 -222.1c6.686 -25.83 11.686 -42.231 22.915 -75.29c19.793 -58.137 29.483 -114.147 29.483 -165.776
c0 -98.181 -35.042 -180.522 -102.287 -231.532c-5.686 -4.28596 -6.657 -5.42888 -7.2 -8.40047c-0.152008 -0.820384 -0.238007 -1.56178 -0.238007 -2.25506c0 -3.21839 1.843 -5.39971 7.438 -9.63126c67.245 -51.0091 102.274 -133.3 102.274 -231.479
c0 -51.629 -9.687 -107.652 -29.47 -165.829c-8.48601 -24.973 -11.657 -34.888 -16.086 -50.288c-23.068 -80.083 -34.572 -162.204 -34.572 -245.971c0 -179.781 52.989 -367.148 158.379 -558.218c5.2574 -9.54004 5.7431 -10.29 7.7433 -11.54
c1.4995 -0.969971 3.1606 -1.41003 4.7983 -1.41003c4.16652 0 8.18198 2.87 9.00242 7.32007c0.1275 0.679932 0.20664 1.27002 0.20664 1.85999c0 2.04004 -0.95957 4.05005 -4.17829 9.91003c-53.8887 97.75 -84.3761 209.27 -90.9479 332.451
c-0.809593 15.263 -1.2101 31.3929 -1.2101 47.944c0 30.761 1.3836 62.977 4.096 93.778c9.0576 103.149 33.3161 213.784 70.461 321.733c5.4003 15.686 6.5432 19.086 8.4862 25.858c9.69702 33.27 14.4808 66.998 14.4808 100.556
c0 80.945 -27.8338 160.894 -81.6845 231.005c-27.5445 35.8308 -63.2035 71.0613 -101.006 99.7201c-1.82899 1.40008 -3.343 2.62872 -3.343 2.74301v0c0 0.11429 1.51401 1.34293 3.343 2.74301c118.313 89.6952 182.631 207.495 182.631 330.853
c0 18.896 -1.50907 37.922 -4.56431 56.997c-3.62877 22.716 -8.02897 39.431 -17.9439 68.147c-38.7735 112.206 -63.5463 227.384 -72.004 334.732c-2.1813 27.616 -3.2688 54.795 -3.2688 81.508c0 142.992 31.1627 272.572 92.5309 383.802
c3.17064 5.73999 4.12178 7.73999 4.12178 9.77002c0 0.589966 -0.07927 1.18005 -0.20728 1.85999c-0.81435 4.35999 -4.64027 7.31006 -8.95332 7.31006c-0.8322 0 -1.6826 -0.110107 -2.533 -0.340088z" />
    <glyph glyph-name="brace239" unicode="1" 
d="M-12.1209 1284.6c-4.3723 -0.919922 -4.6312 -1.28992 -19.5889 -29.0499c-100.135 -185.83 -150.705 -371.281 -150.705 -548.27c0 -97.2531 15.268 -191.948 45.972 -282.744c11.161 -32.936 14.642 -44.327 19.1 -62.132
c10.569 -42.25 15.756 -82.769 15.756 -120.782c0 -100.006 -35.907 -182.663 -104.208 -233.831c-5.12 -3.82572 -6.127 -5.35026 -6.127 -9.26228v0c0 -3.91201 1.007 -5.43655 6.127 -9.26229c68.301 -51.1685 104.208 -133.825 104.208 -233.831
c0 -38.013 -5.187 -78.532 -15.756 -120.782c-4.458 -17.805 -7.853 -28.909 -19.1 -62.132c-23.5 -69.64 -38.573 -145.665 -43.607 -220.195c-1.496 -22.465 -1.985 -37.739 -1.985 -62.42v0v-0.169006c0 -158.268 40.271 -320.707 120.928 -487.827
c14.4399 -29.9401 41.3638 -80.89 44.3841 -84.05c1.7434 -1.79993 4.1049 -2.66003 6.4607 -2.66003c3.28027 0 6.54939 1.66003 8.12309 4.76001c0.70973 1.38 1.10513 2.52002 1.10513 3.81006c0 2.27002 -1.21923 4.98999 -4.09667 10.23
c-61.9382 112.81 -93.0493 241.61 -93.0493 385.067c0 31.828 1.53149 64.377 4.5974 97.633c9.8376 106.89 32.5043 207.596 74.3859 330.652c12.8585 37.754 19.1971 76.532 19.1971 115.24c0 77.843 -25.6355 155.398 -75.4323 223.753
c-28.6787 39.4083 -67.8567 78.9312 -108.3 109.307c-1.985 1.49577 -3.62401 2.79019 -3.62401 2.87648v0c0 0.0862999 1.63901 1.38072 3.62401 2.87649c40.443 30.3757 79.621 69.8986 108.3 109.306c49.7968 68.356 75.4323 145.911 75.4323 223.754
c0 38.708 -6.33861 77.486 -19.1971 115.24c-24.2775 71.337 -38.3147 120.927 -51.2302 180.988c-18.7074 86.956 -28.0433 169.954 -28.0433 248.664c0 143.853 31.1857 273.393 93.3395 386.583c2.64636 4.77002 3.65313 6.90002 3.88325 8.11011
c0.10109 0.559937 0.14955 1.10999 0.14955 1.6499c0 5 -4.12996 9.1001 -9.12155 9.1001c-0.6224 0 -1.2582 -0.0600586 -1.9011 -0.200073z" />
    <glyph glyph-name="brace240" unicode="2" 
d="M-11.5848 1293.23c-4.5464 -0.719971 -5.1545 -1.58997 -18.6489 -26.61c-88.9593 -164.71 -140.243 -330.7 -150.813 -488.087c-1.39801 -20.792 -2.17101 -46.92 -2.17101 -69.546c0 -11.123 0.186996 -21.4 0.578995 -29.78
c3.15601 -68.659 10.859 -123.419 25.801 -183.159c7.73199 -30.956 12.191 -45.84 25.454 -84.992c16.68 -49.286 25.657 -93.881 29.016 -144.21c0.245995 -3.77902 0.368996 -13.69 0.368996 -23.529c0 -9.838 -0.123001 -19.604 -0.368996 -23.093
c-6.718 -93.477 -41.728 -165.206 -103.235 -211.365c-6.40001 -4.80702 -7.5 -6.31284 -7.5 -10.309c0 -3.9962 1.09999 -5.50202 7.5 -10.309c61.507 -46.159 96.517 -117.83 103.235 -211.364c0.245995 -3.504 0.368996 -13.357 0.368996 -23.253
c0 -9.897 -0.123001 -19.836 -0.368996 -23.514c-3.50401 -50.966 -12.336 -94.779 -29.016 -144.066c-13.089 -38.659 -17.259 -52.501 -24.904 -82.82c-15.058 -59.798 -22.848 -114.499 -26.091 -183.448c-0.376007 -8.16302 -0.556 -18.361 -0.556 -29.449
c0 -21.3651 0.667999 -46.035 1.888 -65.823c9.84599 -157.3 61.044 -324.594 149.8 -489.244c13.755 -25.54 14.6817 -26.99 17.9829 -28.09c1.0753 -0.359985 2.1462 -0.52002 3.1819 -0.52002c4.93317 0 9.06731 3.79993 9.06731 9.05994v0
c0 2.41003 -0.26063 3.07007 -4.40161 10.54c-61.8645 112.3 -93.384 243.59 -93.384 387.861c0 24.558 0.9133 49.493 2.7456 74.775c8.0213 110.358 33.1279 228.999 72.8872 344.165c10.1353 29.305 14.6817 46.362 18.1856 68.051
c3.26374 20.198 4.88574 40.269 4.88574 60.151c0 92.489 -35.0999 180.883 -103.313 258.821c-6.661 7.6159 -22.009 23.9482 -25.57 27.2205l-5.73401 5.502c-13.697 13.2048 -31.941 28.9001 -48.939 41.9891c-2.548 1.94018 -4.633 3.6487 -4.633 3.76454
c0 0.11583 2.08499 1.82435 4.633 3.76453c16.998 13.089 35.242 28.7842 48.939 41.9891l5.73401 5.502c8.42599 7.7318 28.147 29.7398 40.7435 45.464c58.012 72.2831 88.2365 156.594 88.2365 241.513c0 34.321 -4.93731 68.742 -14.9728 102.508
c-1.9402 6.457 -3.2723 10.511 -8.1951 24.759c-39.962 115.774 -65.1265 234.704 -73.1479 345.758c-1.83479 25.326 -2.7492 50.307 -2.7492 74.913c0 144.709 31.6259 276.439 93.6483 389.019c4.14098 7.46997 4.40161 8.14001 4.40161 10.54v0
c0 5.17993 -4.03485 9.06995 -9.02621 9.06995c-0.5057 0 -1.0213 -0.039917 -1.5435 -0.119995z" />
    <glyph glyph-name="brace241" unicode="3" 
d="M-12.8298 1301.38c-3.7024 -1.37 -4.0522 -1.94995 -18.3369 -28.45c-101.254 -187.98 -152.825 -375.376 -152.825 -554.619c0 -15.417 0.381012 -30.7729 1.14601 -46.064c0.232986 -4.63501 0.494995 -9.50403 0.582993 -10.786
c1.661 -24.838 2.74001 -36.528 5.276 -56.847c7.842 -62.707 21.631 -122.061 42.533 -182.961c12.682 -36.936 20.261 -65.972 25.771 -98.943c4.459 -26.664 6.654 -52.511 6.654 -77.32c0 -101.075 -36.433 -184.933 -104.664 -236.709
c-6.53001 -4.92675 -7.492 -6.26776 -7.492 -10.2908v0c0 -4.02302 0.96199 -5.36403 7.492 -10.2908c68.231 -51.7764 104.664 -135.634 104.664 -236.709c0 -24.809 -2.195 -50.656 -6.654 -77.32c-5.51 -32.971 -13.06 -62.007 -25.741 -98.914
c-32.853 -95.683 -49.222 -194.538 -49.222 -295.701c0 -183.941 54.117 -375.515 161.662 -569.545c6.1512 -11.1 6.9383 -11.86 12.1566 -11.86c5.62641 0 8.89148 3.26001 8.89148 8.88989v0v2.77002l-2.15728 3.94006c-64.211 116.53 -96.3505 249.32 -96.3505 395.681
c0 131.465 25.9297 273.88 77.8387 425.303c11.7484 34.254 17.8996 62.357 20.3775 92.792c0.819612 10.146 1.22718 20.248 1.22718 30.299c0 126.866 -64.9395 245.448 -185.82 337.75c-1.98199 1.48677 -3.586 2.79862 -3.586 2.91523
c0 0.11661 1.604 1.42847 3.55701 2.91524c120.908 92.3015 185.849 210.884 185.849 337.751c0 10.05 -0.407568 20.152 -1.22717 30.298c-2.47795 30.435 -8.6291 58.538 -20.3775 92.792c-35.7991 104.424 -58.6837 201.822 -69.9657 297.704
c-5.331 45.229 -8.0018 89.0421 -8.0018 131.499c0 147.001 32.0145 277.741 96.4793 394.701l2.15728 3.93994v2.77002c0 5.27002 -4.10926 9.18994 -8.81488 9.18994c-1.01057 0 -2.04857 -0.179932 -3.07927 -0.569946z" />
    <glyph glyph-name="brace242" unicode="4" 
d="M-13.2081 1310.08c-2.7 -1.02991 -3.6391 -2.28992 -8.9218 -11.86c-108.16 -195.53 -162.793 -389.217 -162.793 -574.917c0 -69.665 7.68901 -138.207 23.126 -205.3c7.21899 -31.402 14.791 -57.786 26.706 -93.033c19.869 -58.784 28.086 -98.052 32.048 -153.05
c0.264999 -3.64001 0.396996 -14.168 0.396996 -24.668c0 -10.499 -0.131996 -20.969 -0.396996 -24.49c-7.072 -95.411 -42.202 -166.492 -106.151 -214.887c-5.224 -3.93264 -6.31 -5.57613 -6.31 -9.33269c0 -3.75655 1.086 -5.40004 6.31 -9.33264
c63.949 -48.395 99.079 -119.476 106.151 -214.887c0.264999 -3.522 0.396996 -13.992 0.396996 -24.491s-0.131996 -21.028 -0.396996 -24.667c-3.962 -54.998 -12.179 -94.325 -32.048 -153.05c-28.731 -84.934 -43.816 -162.677 -48.277 -248.432
c-0.998001 -19.487 -1.145 -25.943 -1.145 -48.571v-0.344971c0 -163.563 41.734 -330.177 125.992 -503.207c14.8208 -30.41 39.6199 -76.9801 42.5254 -79.8c1.7538 -1.70996 3.9098 -2.46997 6.04468 -2.46997c4.68851 0 9.27499 3.67993 9.27499 9.09998
c0 2.31995 -0.352176 3.17004 -3.58047 8.97998c-63.5546 114.08 -95.6453 247.94 -95.6453 395.813c0 75.893 8.4534 155.474 25.4447 237.962c13.8817 67.266 29.172 122.264 55.1157 197.953c12.8183 37.412 19.2472 77.005 19.2472 116.815
c0 35.205 -5.02727 70.579 -15.1091 104.763c-24.2122 82.175 -77.3909 157.951 -156.014 222.341c-5.606 4.5783 -17.169 13.7056 -19.018 14.9969c-0.35701 0.25535 -0.604004 0.48848 -0.604004 0.58341c0 0.0141799 0.0059967 0.02527 0.0169983 0.0329
c123.763 92.44 190.823 215.158 190.823 342.066c0 33.974 -4.80602 68.249 -14.6168 102.323c-2.1717 7.54199 -3.3163 11.064 -8.8631 27.147c-32.7818 95.117 -56.2602 194.401 -67.706 286.29c-6.0467 48.485 -9.0751 95.181 -9.0751 140.365
c0 62.494 5.7935 122.099 17.41 179.529c15.7012 77.7101 42.584 151.7 78.5941 216.3c3.22829 5.80994 3.58047 6.66003 3.58047 8.97998v0c0 5.22998 -4.27935 9.07996 -9.14829 9.07996c-1.11168 0 -2.25408 -0.199951 -3.38338 -0.630005z" />
    <glyph glyph-name="brace243" unicode="5" 
d="M-12.0756 1319.04c-4.1067 -1.35999 -4.4908 -1.95007 -18.9974 -28.87c-102.501 -190.3 -154.518 -379.397 -154.518 -561.546c0 -2.39905 0.00900269 -4.797 0.0270081 -7.19403c0.177002 -21.006 0.294998 -25.202 1.241 -43.579
c4.461 -85.178 20.858 -169.057 48.926 -250.335c21.891 -63.381 32.634 -123.939 32.634 -179.373c0 -101.756 -36.197 -186.243 -106.083 -239.222c-6.884 -5.22948 -7.68201 -6.2931 -7.68201 -10.459s0.798004 -5.22948 7.68201 -10.459
c69.867 -52.9603 106.095 -137.723 106.095 -239.524c0 -55.286 -10.684 -115.597 -32.468 -178.568c-33.505 -96.784 -50.207 -197.056 -50.207 -299.847c0 -167.602 44.405 -341.904 132.785 -518.704c14.8908 -29.8099 34.0951 -65.53 36.6359 -68.16
c1.7427 -1.78992 4.0514 -2.63 6.3535 -2.63c3.43542 0 6.85631 1.88 8.36 5.29004c0.558583 1.27002 0.876279 2.32007 0.876279 3.46997c0 2.18005 -1.15789 4.73999 -4.00806 9.92004c-63.9577 116.09 -96.0846 249.57 -96.0846 397.554
c0 78.701 9.0864 161.503 27.3037 247.973c13.2362 62.725 28.836 118.447 52.797 188.35c11.2863 32.913 17.7271 64.793 19.7066 97.499c0.465984 7.69699 0.698078 15.366 0.698078 23.004c0 127.957 -65.1405 247.116 -186.979 340.991
c-2.60001 1.97952 -4.72801 3.72268 -4.72801 3.84086c0 0.11818 2.12801 1.86134 4.72801 3.84086c121.821 93.8408 186.982 213.134 186.982 340.743c0 11.04 -0.48779 22.144 -1.46887 33.298c-2.68861 30.697 -8.71583 57.672 -20.7702 92.801
c-52.4224 153.044 -78.6019 298.091 -78.6019 431.944c0 147.991 32.0002 282.291 95.9154 398.601c3.65069 6.65002 4.47055 8.39001 4.47055 10.38c0 0.26001 -0.014507 0.530029 -0.038788 0.810059c-0.399342 4.84998 -4.67825 8.55005 -9.13189 8.55005
c-0.81832 0 -1.64262 -0.130005 -2.44982 -0.390015z" />
    <glyph glyph-name="brace244" unicode="6" 
d="M-11.4345 1328.02c-4.2533 -0.900024 -4.2533 -0.930054 -17.4296 -25.14c-104.766 -192.94 -157.657 -385.604 -157.657 -569.938c0 -101.824 16.138 -201.105 48.588 -296.485l4.937 -14.574c20.129 -59.589 29.97 -117.189 29.97 -170.421
c0 -103.532 -37.224 -190.539 -108.373 -243.518c-5.414 -4.0451 -6.336 -5.4133 -6.336 -9.4584v0c0 -4.04511 0.921997 -5.4133 6.336 -9.45842c70.179 -52.2317 108.411 -138.878 108.411 -243.112c0 -13.054 -0.598999 -26.383 -1.811 -39.956
c-4.045 -45.477 -13.176 -86.672 -30.546 -137.86c-11.511 -33.908 -16.389 -50.386 -24.152 -81.497c-17.809 -71.429 -26.763 -145.9 -26.763 -221.946c0 -30.004 1.394 -60.254 4.18799 -90.658c14.128 -154.011 66.714 -317.628 153.208 -476.938
c8.8933 -16.3601 11.8081 -21.4701 12.9681 -22.66c1.6994 -1.78003 4.0401 -2.62 6.38591 -2.62c3.27923 0 6.56834 1.65002 8.1289 4.69995c0.711717 1.38 1.10097 2.56006 1.10097 3.88c0 2.26001 -1.14674 4.92004 -3.77788 9.65002
c-56.8099 102.59 -89.0815 220.37 -95.8035 349.697c-0.858398 16.488 -1.2854 33.29 -1.2854 50.355c0 68.117 6.8054 140.408 20.1725 213.499c13.9794 76.321 31.5875 142.173 61.2416 228.994c13.2027 38.658 19.7329 78.719 19.7329 118.824
c0 66.598 -18.0078 133.316 -53.3727 193.928c-32.1823 55.1443 -78.5823 106.422 -135.927 150.204c-2.02299 1.51691 -3.65799 2.85536 -3.65799 2.97434c0 0.11897 1.63499 1.45742 3.62799 2.97434c57.375 43.7822 103.775 95.0599 135.957 150.204
c35.3649 60.612 53.3727 127.331 53.3727 193.929c0 40.104 -6.53025 80.165 -19.7329 118.823c-23.4378 68.558 -37.1792 116.445 -50.2366 174.742c-20.9994 93.819 -31.4755 183.438 -31.4755 268.351c0 142.161 29.3624 271.131 87.869 384.551l9.45841 17.6899
c2.40922 4.38 3.39075 6.45996 3.6287 7.68005c0.107301 0.579956 0.158716 1.1499 0.158716 1.70996c0 5.01001 -4.12103 9.07996 -9.15316 9.07996c-0.637959 0 -1.29046 -0.0699463 -1.95116 -0.199951z" />
    <glyph glyph-name="brace245" unicode="7" 
d="M-10.8641 1336.93c-3.4734 -0.540039 -5.0903 -2.04004 -8.1744 -7.52002c-57.3709 -102.64 -99.5905 -204.03 -129.325 -310.45c-25.326 -90.747 -39.237 -190.821 -39.237 -279.689c0 -11.472 0.23201 -22.757 0.701004 -33.811
c3.323 -77.523 12.516 -138.846 31.53 -210.2c5.71901 -21.469 10.57 -37.16 21.469 -69.169c20.568 -60.494 30.634 -118.859 30.634 -172.759c0 -103.587 -37.18 -190.683 -108.456 -244.707c-6.31799 -4.79089 -7.246 -6.10838 -7.246 -10.1207v0
c0 -3.89259 1.01801 -5.38975 6.49701 -9.52185c71.773 -54.2094 109.237 -141.623 109.237 -245.499c0 -53.739 -10.027 -111.884 -30.516 -172.117c-12.906 -37.878 -17.966 -54.736 -25.661 -85.337c-18.529 -73.622 -27.762 -149.112 -27.762 -226.022
c0 -169.924 45.068 -346.778 134.509 -525.698c13.3545 -26.7401 33.9254 -65.2201 36.5305 -68.39c1.6596 -2.02002 4.0671 -2.97009 6.51274 -2.97009c3.46707 0 7.01069 1.91003 8.60846 5.42004c0.567393 1.21997 0.885989 2.25 0.885989 3.39001
c0 2.16003 -1.15318 4.70996 -3.94018 9.69995c-64.8661 116.56 -97.627 253.12 -97.627 404.13c0 74.494 7.9725 152.503 23.9971 233.357c13.9834 70.546 29.434 127.019 57.3708 209.452c13.6136 40.167 20.3261 81.059 20.3261 121.698
c0 87.631 -31.2102 174.092 -91.7402 249.596c-28.2368 35.2127 -63.5988 69.4676 -99.3808 96.2666c-1.767 1.3175 -3.20399 2.45533 -3.20399 2.54516s1.437 1.22767 3.20399 2.54516c35.782 26.799 71.144 61.0539 99.3808 96.2669
c60.53 75.5042 91.7402 161.964 91.7402 249.595c0 40.64 -6.7125 81.531 -20.3261 121.699c-27.6374 81.534 -42.7886 136.689 -56.8019 206.457c-16.5875 82.577 -24.842 162.187 -24.842 238.137c0 151.505 32.8439 288.445 97.903 405.335
c3.53328 6.34998 3.80276 7.01001 3.80276 9.5v0c0 5.15991 -4.01726 9.01001 -9.03323 9.01001c-0.51284 0 -1.03614 -0.0400391 -1.56664 -0.119995z" />
    <glyph glyph-name="brace246" unicode="8" 
d="M-12.2363 1345.35c-3.2254 -1.19995 -3.4364 -1.46997 -9.3145 -12.08c-99.6862 -179.84 -156.176 -363.027 -165.249 -535.964c-1.146 -21.583 -1.23599 -25.652 -1.23599 -53.354v0c0 -27.612 0.0899963 -30.627 1.20599 -52.3
c4.642 -88.111 21.131 -171.55 51.214 -259.088c21.499 -62.538 32.031 -122.658 32.031 -177.998c0 -104.735 -37.723 -192.347 -110.224 -246.822c-5.306 -3.97901 -6.29999 -5.48621 -6.29999 -9.40493v0c0 -3.91872 0.993988 -5.42592 6.29999 -9.40497
c72.501 -54.4743 110.224 -142.048 110.224 -246.781c0 -55.339 -10.532 -115.469 -32.031 -178.038c-35.76 -104.1 -52.206 -201.378 -52.206 -309.358c0 -2.52002 0.00900269 -5.04504 0.0270081 -7.57599c0.151001 -22.8491 0.270996 -26.979 1.26599 -46
c9.07301 -172.635 65.111 -354.281 164.948 -534.691c6.5111 -11.73 7.1743 -12.42 12.4495 -12.42v0c5.69722 0 8.89249 3.19006 8.89249 8.89001v2.85999l-3.49671 6.33008c-65.6097 118.55 -98.5963 255.49 -98.5963 407.203c0 85.422 10.457 175.531 31.4354 269.684
c13.0825 58.661 26.9186 106.861 50.8831 177.247c13.3636 39.257 20.0135 79.931 20.0135 120.672c0 52.075 -10.8654 104.259 -32.463 153.729c-31.2593 71.532 -85.127 137.608 -157.985 193.736c-2.65201 2.01965 -4.823 3.79815 -4.823 3.91872
c0 0.12058 2.17099 1.89907 4.823 3.91872c72.919 56.1884 126.726 122.144 157.985 193.736c21.5976 49.47 32.463 101.634 32.463 153.704c0 40.736 -6.64992 81.413 -20.0135 120.697c-23.8439 70.054 -37.469 117.411 -50.4912 175.438
c-21.4291 95.437 -32.1103 186.738 -32.1103 273.239c0 152.238 33.0825 289.598 98.8793 408.468l3.49671 6.32996v2.85999c0 5.32007 -4.08419 9.20007 -8.83263 9.20007c-1.03517 0 -2.10187 -0.180054 -3.16467 -0.580078z" />
    <glyph glyph-name="brace247" unicode="9" 
d="M-11.9632 1354.43c-3.9147 -1.58008 -4.8554 -3.1001 -20.6355 -32.54c-104.014 -194.28 -156.645 -387.95 -156.645 -573.384c0 -77.334 9.15401 -153.235 27.552 -227.148c8.133 -32.592 12.958 -48.706 26.978 -90.128c20.43 -60.354 30.708 -119.843 30.708 -174.965
c0 -45.016 -6.855 -87.119 -20.633 -124.402c-18.936 -51.2549 -48.858 -92.5563 -89.127 -123.085c-7.00999 -5.31061 -7.58699 -6.12996 -7.58699 -10.4391v0c0 -4.30917 0.576996 -5.12852 7.58699 -10.4391c72.107 -54.65 109.784 -143.163 109.784 -248.279
c0 -54.407 -10.094 -113.263 -30.732 -174.172c-6.282 -18.542 -10.652 -31.773 -13.049 -39.602c-27.434 -89.367 -41.155 -182.083 -41.155 -276.805c0 -89.165 12.158 -180.107 36.482 -271.702c28.495 -107.25 72.7398 -215.22 131.581 -321.07
c5.6748 -10.1901 6.7673 -11.23 11.7744 -11.23v0c5.12853 0 8.73974 3.37 9.04321 8.40991c0.0212164 0.369995 0.0370928 0.700073 0.0370928 1.01001c0 1.91003 -0.600804 3.1001 -4.25523 9.72998c-65.8533 119.63 -98.8498 257.78 -98.8498 409.956
c0 129.099 23.747 268.292 71.3256 414.83c2.8829 8.86099 11.0461 32.865 12.0475 35.475c4.5823 11.744 12.0172 42.303 15.0518 61.906c3.05325 19.72 4.56301 39.368 4.56301 58.87c0 130.524 -67.6275 254.53 -192.771 350.078
c-2.064 1.54766 -3.733 2.91325 -3.733 3.03463c0 0.12139 1.66901 1.48697 3.703 3.03464c60.571 46.2175 109.914 101.66 142.202 159.652c33.613 60.389 50.6301 125.545 50.6301 190.814c0 42.211 -7.11776 84.47 -21.4672 125.516
c-24.0647 68.916 -43.6381 140.443 -57.2939 209.541c-16.3625 82.799 -24.5225 162.291 -24.5225 238.103c0 152.81 33.1525 290.67 99.1138 410.52c3.65443 6.63 4.25523 7.82996 4.25523 9.72998c0 0.310059 -0.0158764 0.640015 -0.0370928 1.01001
c-0.276129 4.84998 -4.74679 8.69995 -9.18646 8.69995c-0.92745 0 -1.85345 -0.169922 -2.73965 -0.529907z" />
    <glyph glyph-name="brace248" unicode=":" 
d="M-12.1025 1363.49c-3.2994 -1.18994 -3.6355 -1.57996 -8.554 -10.4399c-101.701 -182.75 -159.135 -369.171 -168.239 -546.086c-1.09999 -21.018 -1.25299 -27.158 -1.25299 -52.393c0 -25.234 0.153 -31.1 1.222 -51.629
c4.76599 -89.817 21.293 -174.655 50.866 -260.744c22.458 -65.372 33.488 -127.699 33.488 -184.764c0 -105.638 -37.799 -193.242 -110.871 -248.741c-5.744 -4.36865 -6.66 -5.4379 -7.302 -8.4929c-0.172012 -0.814758 -0.266998 -1.55611 -0.266998 -2.25507
c0 -3.15362 1.94199 -5.44426 7.569 -9.72057c72.851 -55.3217 110.973 -144.21 110.973 -250.223c0 -50.472 -8.641 -104.825 -26.289 -161.286c-1.52699 -4.85699 -4.735 -14.572 -7.14799 -21.568c-31.284 -90.917 -47.047 -175.326 -51.508 -275.683
c-0.562012 -12.715 -0.84201 -25.537 -0.84201 -38.4561c0 -181.507 55.244 -382.089 158.572 -573.919c14.4807 -26.85 15.6111 -28.75 18.3911 -30.09c1.3866 -0.680054 2.8211 -1 4.21221 -1c4.15652 0 7.92472 2.83997 8.86319 7.34998
c0.136912 0.640015 0.218602 1.21008 0.218602 1.79004c0 2 -0.979487 4.12 -4.03735 9.67004c-57.8922 105.12 -90.9474 224.48 -98.2487 354.746c-1.222 21.874 -1.405 28.9 -1.405 58.35v0c0.0299988 141.172 26.3031 286.315 80.5294 444.747
c15.6176 45.612 22.9251 85.995 22.9251 128.813c0 10.954 -0.478261 22.067 -1.41799 33.469c-9.86765 119.45 -78.4523 233.738 -191.915 319.858c-2.567 1.92465 -4.644 3.57435 -4.644 3.666s2.077 1.74135 4.644 3.666
c113.462 86.1204 182.047 200.408 191.915 319.858c0.931158 11.336 1.40443 22.405 1.40443 33.324c0 42.817 -7.2772 83.327 -22.7589 128.53c-54.1962 158.116 -81.2581 308.022 -81.2581 446.48c0 153.753 33.3709 293.393 100.016 414.483
c3.35697 6.04993 4.24392 8.05994 4.24392 10.09c0 0.319946 -0.0215183 0.630005 -0.0585728 0.969971c-0.576396 4.76001 -4.66816 8.14001 -9.10489 8.14001c-0.97186 0 -1.96016 -0.160034 -2.93176 -0.51001z" />
    <glyph glyph-name="brace249" unicode=";" 
d="M-11.2604 1372.91c-3.6598 -0.77002 -4.3672 -1.63 -10.8565 -13.38c-101.522 -183.82 -158.327 -368.508 -167.707 -545.134c-1.015 -19.099 -1.138 -23.466 -1.29199 -47.209c-0.0180054 -2.78003 -0.0270081 -5.53802 -0.0270081 -8.276
c0 -57.15 4.017 -105.288 13.467 -161.492c8.79599 -52.345 20.391 -97.339 39.828 -154.697c22.723 -66.944 32.686 -122.262 32.686 -181.946c0 -1.70901 -0.00799561 -3.42099 -0.0239944 -5.13699c-0.153999 -17.407 -0.277 -19.775 -1.47601 -33.123
c-8.212 -91.342 -47.179 -166.631 -111.057 -214.486c-4.59801 -3.44456 -6.897 -6.50469 -6.897 -9.56481s2.299 -6.12025 6.897 -9.56478c63.878 -47.8548 102.845 -123.143 111.057 -214.486c1.19901 -13.347 1.32201 -15.715 1.47601 -33.123
c0.0159988 -1.79599 0.0249939 -3.58398 0.0249939 -5.366c0 -60.949 -9.782 -113.957 -34.225 -186.33c-3.47499 -10.303 -7.535 -22.574 -8.94901 -27.218c-28.479 -91.929 -42.674 -186.708 -42.674 -283.553c0 -174.241 45.951 -355.175 137.338 -538.225
c15.8695 -31.83 35.6143 -68.5499 38.1977 -71.16c1.758 -1.75989 3.9868 -2.55994 6.2006 -2.55994c4.13771 0 8.2231 2.80005 9.08462 7.39001c0.116927 0.630005 0.188577 1.18994 0.188577 1.75c0 2.07996 -0.99925 4.16003 -4.37126 10.2999
c-66.7308 121.03 -100.317 260.78 -100.317 415.452c0 76.721 8.2634 157.112 24.844 240.708c14.424 72.766 29.9861 129.294 59.2956 215.592c13.3169 39.213 20.0215 80.179 20.0215 122.252c0 133.107 -67.8763 257.05 -193.91 354.144
c-2.707 2.06058 -4.92101 3.87513 -4.92101 3.99815s2.214 1.93756 4.92101 3.99815c126.034 97.0936 193.91 221.036 193.91 354.144c0 42.073 -6.70459 83.038 -20.0215 122.251c-23.8659 70.275 -36.5677 113.824 -49.454 169.46
c-23.3308 100.895 -34.9626 197.349 -34.9626 288.604c0 154.507 33.3436 294.107 99.7018 415.097c4.86746 8.88 5.17315 9.29004 5.17315 11.0599c0 0.25 -0.0063076 0.540039 -0.0063076 0.880005v0c0 5.29004 -4.04071 9.16003 -9.0864 9.16003
c-0.67692 0 -1.37189 -0.0699463 -2.07769 -0.209961z" />
    <glyph glyph-name="brace250" unicode="&#x3c;" 
d="M-10.671 1382.11c-3.6224 -0.559937 -5.0157 -1.94995 -8.8549 -8.81995c-114.577 -205.41 -172.778 -412.027 -172.778 -609.179c0 -78.44 9.214 -155.383 27.755 -230.156c8.32899 -33.562 13.933 -52.387 27.834 -93.349c21.049 -61.986 31.34 -121.972 31.34 -177.48
c0 -107.462 -38.572 -198.141 -112.335 -254.06c-7.028 -5.32536 -7.864 -6.43997 -7.864 -10.5888s0.835999 -5.26344 7.864 -10.5888c73.748 -55.8975 112.311 -146.378 112.311 -253.916c0 -54.18 -9.789 -112.691 -29.799 -173.29l-5.759 -16.967
c-33.902 -98.878 -51.027 -203.691 -51.027 -310.858c0 -38.2679 2.18399 -76.836 6.56699 -115.542c17.741 -156.266 72.295 -319.986 159.885 -479.686c9.8147 -17.89 9.6599 -17.65 12.6322 -19.01c1.2664 -0.579956 2.5669 -0.849976 3.83138 -0.849976
c4.76394 0 9.01761 3.82996 9.01761 9.08997c0 0.0999756 0.000183199 0.190063 0.000183199 0.290039c0 2.32996 -0.114502 2.45996 -6.06862 13.36c-66.0032 120.76 -99.2544 260.67 -99.2544 415.343c0 78.159 8.4903 160.088 25.5353 245.219
c13.9945 69.942 31.1781 132.484 57.5882 209.609c14.6042 42.676 21.7585 85.71 21.7585 128.266c0 130.215 -66.9832 255.961 -192.48 353.338c-3.189 2.47691 -6.254 4.86094 -6.842 5.35632l-1.084 0.83596l1.084 0.866919l6.842 5.32536
c125.289 97.2153 192.437 222.775 192.437 353.538c0 34.654 -4.71599 69.674 -14.3157 104.628c-2.1673 7.896 -3.6224 12.416 -9.8147 30.559c-54.0873 158.192 -81.0865 308.932 -81.0865 448.434c0 155.481 33.5405 297.011 100.499 419.321
c4.19756 7.68994 5.25272 9.84998 5.25272 11.98c0 0.5 -0.0566957 0.98999 -0.144091 1.55005c-0.694906 4.47998 -4.45924 7.54993 -8.96303 7.54993c-0.51284 0 -1.03528 -0.0400391 -1.56388 -0.119995z" />
    <glyph glyph-name="brace251" unicode="=" 
d="M-12.6235 1390.77c-2.587 -1 -3.7091 -2.52002 -9.2884 -12.62c-103.388 -187.51 -160.77 -374.59 -169.934 -553.877c-0.998001 -19.73 -1.12201 -24.032 -1.30901 -45.351c-0.0240021 -2.94598 -0.0359955 -5.88599 -0.0359955 -8.81897
c0 -111.862 17.406 -214.629 54.613 -322.665c21.902 -63.582 32.795 -125.416 32.795 -182.714c0 -69.579 -16.062 -132.469 -47.974 -183.68c-17.86 -28.6756 -40.988 -54.0473 -66.297 -72.7488c-5.70399 -4.20784 -6.85699 -5.89097 -6.85699 -9.84946
c0 -3.95848 1.153 -5.64161 6.85699 -9.84945c60.842 -44.9459 100.863 -118.755 111.242 -205.218c2.05399 -17.07 3.085 -34.358 3.085 -51.926c0 -58.429 -11.402 -119.961 -34.503 -186.892c-35.235 -102.141 -52.786 -207.917 -52.786 -316.275
c0 -195.787 57.298 -400.006 171.104 -606.426c5.6416 -10.22 6.7014 -11.63 9.3819 -12.62c1.2147 -0.459961 2.4241 -0.679932 3.58513 -0.679932c4.87608 0 8.90092 3.77991 8.90092 9.05994c0 0.209961 -0.0060672 0.420044 -0.0183875 0.619995
c-0.124677 2.37 -0.0623387 2.21997 -5.26759 11.72c-54.5772 99.15 -88.7386 217.69 -97.8401 339.44c-0.343002 4.64001 -0.686005 9.40997 -0.778999 10.59c-1.584 21.289 -2.36401 43.666 -2.36401 66.826c0 77.123 8.6566 162.938 25.1485 246.116
c14.6183 73.778 30.4835 131.596 59.7825 217.873c13.874 40.89 20.7165 82.877 20.7165 124.785c0 83.123 -26.9193 165.936 -79.2834 239.27c-31.2001 43.6683 -74.3071 87.4922 -118.973 120.937c-1.839 1.37144 -3.33501 2.55587 -3.33501 2.64937v0
c0 0.0935099 1.496 1.27794 3.33501 2.64938c44.666 33.4445 87.773 77.2684 118.973 120.937c52.3642 73.334 79.2973 156.161 79.2973 239.284c0 41.908 -6.84598 83.891 -20.7304 124.772c-29.112 85.715 -45.5382 145.497 -59.9383 218.339
c-16.7641 84.747 -25.1117 166.371 -25.1117 244.303c0 158.11 34.3585 301.01 102.505 423.96c3.67796 6.61011 3.92731 7.24011 3.92731 9.70007c0 5.27002 -4.19989 9.04993 -9.08752 9.04993c-1.15568 0 -2.34978 -0.209961 -3.53598 -0.669922z" />
    <glyph glyph-name="brace252" unicode="&#x3e;" 
d="M-13.0676 1399.77c-2.6671 -1.31006 -2.9809 -1.79004 -9.4135 -13.4c-114.203 -206.87 -171.821 -412.871 -171.821 -610.685c0 -98.781 14.368 -195.519 43.233 -289.303l9.758 -29.652c10.23 -30.594 13.493 -41.294 17.886 -58.834
c11.49 -45.883 17.13 -89.952 17.13 -131.375c0 -109.597 -39.482 -200.668 -114.56 -257.779c-6.526 -4.98915 -7.53 -6.33842 -7.53 -10.2921c0 -3.95367 1.004 -5.30294 7.53 -10.2921c75.078 -57.1111 114.56 -148.199 114.56 -257.793
c0 -41.422 -5.64 -85.487 -17.13 -131.361c-4.32999 -17.227 -8.504 -31.065 -17.446 -57.485c-6.87199 -20.333 -10.826 -32.853 -14.874 -46.848c-25.571 -88.807 -38.337 -179.69 -38.337 -272.322c0 -172.219 44.126 -350.479 132.127 -532.689
c13.7124 -28.3301 42.5804 -83.15 46.0634 -87.36c1.7587 -2.13 4.1314 -3.07007 6.50631 -3.07007c4.68768 0 9.38389 3.67004 9.38389 9.08008c0 0.159912 -0.00422308 0.319946 -0.0127961 0.48999c-0.0941353 2.26001 -0.156891 2.34998 -4.36158 10.1
c-50.3308 92.22 -81.2384 189.78 -95.1704 300.29c-4.9788 39.4801 -7.44279 80.6201 -7.44279 122.994c0 141.889 27.6152 297.742 80.8681 452.33c8.0014 23.251 9.4448 27.864 13.4612 43.773c8.07795 31.918 12.046 63.939 12.046 95.715
c0 132.883 -69.3931 261.483 -197.805 360.369c-2.76199 2.10234 -5.021 3.95366 -5.021 4.07918c0 0.12551 2.259 1.97683 5.021 4.07918c128.412 98.8861 197.805 227.486 197.805 360.369c0 31.776 -3.96803 63.797 -12.046 95.715
c-3.985 15.751 -5.3656 20.239 -13.1788 42.988c-53.8354 156.538 -81.4365 311.775 -81.4365 454.137c0 49.152 3.29 96.762 9.9253 142.362c15.1243 103.86 45.2161 195.52 92.9739 283.03c4.20469 7.76001 4.26745 7.84998 4.36158 10.11
c0.00950946 0.180054 0.0141957 0.349976 0.0141957 0.52002c0 5.20996 -4.21412 9.01001 -8.94869 9.01001c-1.35921 0 -2.76131 -0.310059 -4.11891 -1z" />
    <glyph glyph-name="brace253" unicode="?" 
d="M-11.9493 1409.64c-3.3485 -1.10999 -3.8539 -1.70996 -9.1608 -11.25c-115.889 -208.88 -174.305 -416.943 -174.305 -616.868c0 -110.698 17.909 -218.903 53.888 -323.372c22.112 -64.22 32.758 -118.932 34.495 -177.087
c0.132996 -4.47498 0.198997 -8.92297 0.198997 -13.342c0 -110.438 -41.211 -203.043 -115.656 -259.112c-6.12801 -4.64356 -7.487 -6.47571 -7.487 -10.2348v0c0 -3.75907 1.35899 -5.59123 7.487 -10.2347c75.39 -56.7746 115.62 -149.332 115.62 -260.242
c0 -32.503 -3.45499 -66.581 -10.492 -101.797c-6.192 -30.957 -12.51 -53.512 -26.156 -93.377c-34.517 -100.786 -51.667 -206.057 -51.667 -314.14c0 -199.24 58.278 -408.033 173.474 -615.903c2.8746 -5.24011 5.5281 -9.6001 6.1598 -10.2301
c1.7099 -1.70996 3.9902 -2.51001 6.27142 -2.51001c3.45031 0 6.90257 1.84009 8.38583 5.16003c0.571984 1.29004 0.893247 2.35999 0.893247 3.54004c0 2.26001 -1.19298 4.90002 -4.08372 10.14c-69.036 124.64 -103.793 269.28 -103.793 429.07
c0 88.875 10.7526 182.437 32.3393 279.848c13.8043 62.261 27.6718 110.813 53.0061 185.521c14.5625 42.961 21.2909 83.11 21.3225 127.303c6.99759e-05 0.0929871 9.98974e-05 0.187012 9.98974e-05 0.279999c0 135.664 -68.8879 262.702 -195.883 361.254
c-3.25301 2.52711 -6.38101 4.95945 -6.981 5.46487l-1.105 0.8529l1.105 0.884486l6.981 5.43328c127.345 98.805 195.946 226.573 195.946 360.74c0 23.984 -2.19231 48.173 -6.63325 72.438c-3.69588 20.311 -8.21308 36.801 -17.3423 63.462
c-55.4209 161.601 -83.0821 315.927 -83.0821 458.758c0 160.1 34.7536 305.76 104.12 431.04c3.14388 5.68005 4.04012 7.75 4.04012 9.80005c0 0.319946 -0.0216687 0.639893 -0.0599264 0.969971c-0.57888 4.76001 -4.66462 8.16003 -9.13526 8.16003
c-0.89641 0 -1.80831 -0.130005 -2.71051 -0.420044z" />
    <glyph glyph-name="brace254" unicode="@" 
d="M-11.3092 1419.22c-3.6571 -0.699951 -4.4521 -1.70996 -11.3211 -14.12c-104.339 -189.15 -162.693 -379.35 -172.424 -562.234c-1.145 -22.038 -1.272 -26.84 -1.272 -55.81c0 -29.0341 0.0950012 -32.9771 1.272 -55.492
c4.993 -94.131 22.229 -181.074 54.538 -275.236c22.225 -64.796 33.23 -127.471 33.23 -185.524c0 -83.407 -22.717 -157.273 -67.511 -214.18c-14.247 -18.0946 -32.659 -35.9349 -50.85 -49.323c-3.927 -2.89388 -5.89099 -5.89905 -5.89099 -8.90423
c0 -3.00517 1.96399 -6.01035 5.89099 -8.90425c18.191 -13.3563 36.603 -31.2283 50.85 -49.323c44.539 -56.5801 67.403 -129.451 67.403 -213.867c0 -15.457 -0.766006 -31.301 -2.307 -47.504c-4.261 -44.807 -14.469 -90.6 -30.815 -138.333
c-31.801 -92.636 -48.909 -178.466 -54.029 -270.625c-1.336 -23.978 -1.463 -28.652 -1.463 -58.672c0 -29.162 0.0950012 -33.041 1.272 -55.811c9.22198 -175.347 64.746 -360.877 162.406 -542.677c6.6782 -12.41 14.4375 -26.4301 15.6142 -28.1801
c1.7809 -2.69995 4.5883 -3.93994 7.39354 -3.93994c4.10735 0 8.21005 2.65991 9.07924 7.30994c0.113114 0.630005 0.18307 1.19006 0.18307 1.76001c0 2.12 -0.999233 4.27002 -4.44437 10.49c-69.2233 125.65 -104.223 270.84 -104.223 431.407
c0 31.882 1.38 64.372 4.146 97.436c9.5721 114.292 35.1082 233.29 75.686 352.989c8.4908 25.027 9.9536 29.479 11.7663 35.744c10.6104 36.908 15.8243 74.143 15.8243 111.103c0 115.353 -50.7884 228.029 -146.812 319.765
c-18.222 17.4268 -44.108 39.4648 -57.21 48.7188c-0.810989 0.58831 -1.216 0.85067 -1.216 1.11302c0 0.26236 0.405014 0.52472 1.216 1.11303c13.102 9.25403 38.988 31.292 57.21 48.7188c96.0232 91.7368 146.812 204.413 146.812 319.766
c0 36.96 -5.21388 74.194 -15.8243 111.103c-1.8127 6.29703 -3.5935 11.735 -10.9713 33.359c-53.97 158.624 -80.893 311.09 -80.893 452.72c0 161.304 34.9221 308.554 104.585 434.844c3.05849 5.53003 4.40842 8.54993 4.40842 10.96
c0 1.56006 -0.557802 2.85999 -1.57815 4.43005c-1.69463 2.57996 -4.5007 4.02991 -7.62968 4.02991c-0.68765 0 -1.39087 -0.0699463 -2.10137 -0.219971z" />
    <glyph glyph-name="brace255" unicode="A" 
d="M-10.8868 1428.79c-3.4576 -0.710083 -4.8982 -2.12 -8.1636 -8.01001c-118.548 -212.93 -178.47 -425.108 -178.47 -628.681c0 -83.948 10.19 -166.432 30.66 -246.903c7.492 -29.421 12.838 -47.381 24.107 -80.771c19.272 -57.082 28.492 -98.284 32.974 -147.169
c1.381 -15.061 2.063 -29.856 2.063 -44.345c0 -112.554 -41.196 -206.65 -116.641 -263.632c-7.49101 -5.66651 -8.26001 -6.65895 -8.26001 -10.8848v0c0 -4.22587 0.833008 -5.31435 8.26001 -10.8848c74.785 -56.2338 116.709 -151.116 116.709 -262.972
c0 -5.50598 -0.100998 -11.054 -0.306 -16.64c-2.113 -57.785 -12.197 -108.56 -34.927 -175.981c-21.994 -65.117 -34.928 -118.645 -44.148 -182.449c-6.799 -47.027 -10.185 -94.719 -10.185 -142.938c0 -195.609 55.711 -399.89 165.198 -603.63
c14.8546 -27.6 16.1672 -29.74 19.2405 -31.09c1.2501 -0.540039 2.5171 -0.780029 3.74315 -0.780029c4.83413 0 9.03053 3.87 9.03053 9.22998c0 0.199951 0.00201651 0.380005 0.00201651 0.550049c0 1.95996 -0.271342 2.35999 -7.10916 14.8799
c-48.7575 89.42 -80.8677 191.96 -94.7618 302.86c-5.05199 40.24 -7.55099 82.1299 -7.55099 125.274c0 144.693 28.1142 303.444 82.368 460.904c9.6043 27.916 13.8622 42.835 17.8319 62.747c5.25651 26.32 7.86032 52.717 7.86032 78.98
c0 87.144 -28.6669 172.819 -84.214 249.325c-30.9262 42.5793 -72.3202 84.4218 -117.812 119.061c-2.369 1.8248 -4.32201 3.42551 -4.32201 3.55357c0 0.12805 1.953 1.72876 4.32201 3.55357c130.774 99.5778 201.98 230.853 201.98 368.42
c0 20.547 -1.58859 41.235 -4.80455 61.978c-4.06584 26.188 -9.22004 46.005 -20.6811 79.235c-46.6766 135.388 -75.1691 276.699 -81.4121 403.699c-0.896004 18.184 -1.024 23.818 -1.184 49.686c-0.0159988 2.47498 -0.0240021 4.94598 -0.0240021 7.41199
c0 162.562 34.2879 307.132 102.405 431.922c6.83782 12.5199 7.10916 12.9199 7.10916 14.88c0 0.169922 -0.00201651 0.349976 -0.00201651 0.549927v0c0 5.27002 -4.05618 9.23999 -9.01025 9.23999c-0.6131 0 -1.23993 -0.0599365 -1.87453 -0.179932z" />
    <glyph glyph-name="brace256" unicode="B" 
d="M-12.4726 1437.85c-2.2882 -0.839966 -3.7386 -2.52002 -6.6392 -7.69995c-119.101 -213.43 -179.399 -428.5 -179.399 -633.841c0 -111.937 17.918 -220.983 53.996 -325.296c24.953 -72.219 36.329 -133.285 36.329 -195.999
c0 -3.95102 -0.0460052 -7.91 -0.135002 -11.878c-2.45 -108.096 -44.702 -199.239 -117.829 -254.157c-6.96201 -5.22109 -7.832 -6.41356 -7.832 -10.6033c0 -4.18976 0.869995 -5.38223 7.832 -10.6033c76.078 -57.145 118.043 -152.731 118.043 -265.853
c0 -14.157 -0.656998 -28.589 -1.987 -43.255c-4.673 -51.759 -14.374 -94.527 -35.097 -154.86c-30.94 -90.144 -47.796 -181.964 -52.372 -285.387c-0.602997 -13.577 -0.903 -27.264 -0.903 -41.05c0 -194.019 59.439 -407.697 170.685 -611.747
c12.2147 -22.4301 12.1825 -22.4 15.4376 -23.49c1.1342 -0.390015 2.261 -0.579956 3.34618 -0.579956c4.92805 0 8.99752 3.7699 8.99752 9.07996c0 2.39001 -0.322289 3.26001 -2.99729 8.03003c-71.1161 127.39 -107.211 277.06 -107.211 441.511
c0 65.464 5.72 133.268 17.2275 202.938c14.4708 87.694 35.6452 170.62 66.7139 261.57c16.8495 49.255 24.94 92.94 24.94 137.909c0 21.177 -1.79412 42.638 -5.31258 65.101c-17.9192 114.541 -89.7898 225.763 -198.853 307.689
c-2.03 1.51476 -3.674 2.86838 -3.674 2.99729c0 0.12892 1.644 1.48253 3.674 2.99729c117.668 88.4039 190.731 209.004 202.237 333.956c1.2364 13.366 1.86807 26.334 1.86807 39.113c0 45.182 -7.89625 88.001 -24.8795 137.695
c-56.1826 164.334 -84.2204 321.478 -84.2204 466.929c0 163.854 35.5803 312.864 106.587 440.604c3.60964 6.51001 3.8997 7.18994 3.8997 9.66992c0 5.32007 -4.12695 9.10999 -9.0632 9.10999c-1.1082 0 -2.2572 -0.189941 -3.4094 -0.599976z" />
    <glyph glyph-name="brace257" unicode="C" 
d="M-12.8165 1447.28c-3.1148 -1.43005 -3.1148 -1.43005 -13.8541 -21.12c-101.034 -184.97 -159.435 -374.22 -170.758 -553.191c-1.48599 -23.538 -2.23199 -46.826 -2.23199 -69.902c0 -114.497 18.351 -223.786 55.669 -332.58
c19.305 -56.195 29.525 -102.949 33.645 -153.79c1.09 -13.381 1.629 -26.558 1.629 -39.5c0 -115.37 -42.847 -212.112 -120.475 -269.378c-5.15901 -3.79608 -6.35901 -5.54812 -6.35901 -9.40909s1.2 -5.61301 6.35901 -9.40911
c77.871 -57.4334 120.447 -153.986 120.447 -269.566c0 -17.813 -1.011 -36.079 -3.061 -54.723c-5.029 -45.878 -14.697 -87.472 -32.185 -138.379c-36.978 -107.811 -55.424 -217.622 -55.424 -330.749c0 -58.596 4.948 -118.081 14.835 -178.639
c23.587 -144.575 77.479 -295.775 157.91 -443.035c10.7393 -19.7001 10.7393 -19.7001 13.8541 -21.13c1.2349 -0.570068 2.5074 -0.840088 3.74897 -0.840088c4.7603 0 9.06682 3.91003 9.06682 9.22009c0 0.140015 0.000712236 0.27002 0.000712236 0.390015
c0 2.09998 -0.202391 2.42993 -7.43065 15.6c-68.6882 125.36 -103.551 273.75 -103.551 436.635c0 73.627 7.123 150.216 21.4651 228.978c15.2168 83.643 33.6457 152.751 66.2206 248.53c14.6722 43.13 21.8407 86.857 21.8407 130.261
c0 137.712 -72.1611 272.18 -205.772 374.066c-2.01601 1.52801 -3.021 2.16016 -3.021 2.79412c0 0.631405 0.996994 1.26461 2.989 2.78644c133.628 101.854 205.641 235.376 205.641 373.739c0 37.673 -5.33883 75.705 -16.2263 113.555
c-1.8494 6.42401 -3.7312 12.199 -11.8425 36.014c-53.9756 158.883 -81.712 316.991 -81.712 462.202c0 45.16 2.683 89.08 8.094 131.38c14.146 110.77 47.2401 215.99 95.8753 304.82c7.22826 13.2 7.43065 13.51 7.43065 15.6
c0 0.130005 -0.000712236 0.26001 -0.000712236 0.400024v0c0 5.21997 -3.92586 9.15002 -9.08464 9.15002v0c-1.52495 0 -2.56315 -0.230103 -3.73115 -0.780029z" />
    <glyph glyph-name="brace258" unicode="D" 
d="M-12.5425 1457.09c-2.7764 -1.07996 -3.7562 -2.41992 -9.4722 -12.74c-107.656 -194.51 -167.821 -391.4 -177.391 -580.416c-1.07799 -21.525 -1.27399 -30.083 -1.27399 -54.547c0 -106.644 15.482 -208.585 46.806 -308.01
c1.437 -4.57303 5.35599 -16.397 8.68799 -26.294c20.871 -61.7 30.442 -105.827 34.622 -159.721c0.955002 -12.339 1.427 -24.521 1.427 -36.519c0 -114.466 -42.963 -212.163 -119.829 -269.695c-6.85899 -5.12806 -8.166 -6.85919 -8.166 -10.7787
c0 -3.91954 1.30701 -5.65067 8.166 -10.7787c76.866 -57.5317 119.829 -155.229 119.829 -269.695c0 -11.998 -0.472 -24.18 -1.427 -36.519c-4.18 -53.828 -13.685 -97.694 -34.491 -159.296c-32.108 -95.049 -49.06 -182.422 -54.025 -278.385
c-1.11 -21.591 -1.274 -29.495 -1.274 -54.547c0 -177.523 43.867 -358.019 132.285 -544.159c16.2334 -34.23 48.7003 -96.0599 52.5218 -100.05c1.7623 -1.83997 3.9962 -2.6499 6.21711 -2.6499c4.69438 0 9.33039 3.6499 9.33039 9.07996
c0 2.26001 -0.293965 2.97998 -5.06273 11.63c-49.2882 89.63 -81.8203 189.55 -97.1393 298.38c-6.543 46.4399 -9.78899 94.76 -9.78899 144.533c0 147.258 28.4128 307.216 83.901 468.872c5.814 16.985 7.5451 22.243 9.6682 29.56
c11.0281 37.938 16.4882 76.416 16.4882 114.745c0 80.301 -23.9658 159.949 -70.9043 232.624c-33.218 51.4761 -81.102 102.201 -135.126 143.226c-2.384 1.79646 -4.312 3.33161 -4.312 3.4296c0 0.09798 1.92799 1.63314 4.312 3.42959
c64.607 49.0595 118.076 109.518 152.927 172.95c35.1909 64.049 53.0692 133.95 53.0692 203.587c0 43.86 -7.09254 87.615 -21.419 129.736c-21.786 63.954 -33.4793 102.888 -45.6626 151.98c-28.8599 116.073 -43.2418 227.075 -43.2418 331.839
c0 165.459 35.8705 315.359 107.228 445.109c4.76876 8.66003 5.06273 9.38 5.06273 11.63c0 5.17004 -4.39718 9.07996 -9.24642 9.07996c-1.09078 0 -2.20448 -0.189941 -3.29608 -0.619995z" />
    <glyph glyph-name="brace259" unicode="E" 
d="M-11.492 1467.18c-3.9787 -1.02002 -4.2089 -1.32007 -18.085 -26.9701c-114.455 -211.32 -172.281 -423.47 -172.281 -626.612c0 -113.64 18.096 -224.461 54.498 -330.741c23.149 -67.639 32.717 -112.72 36.959 -174.11
c0.375 -5.22501 0.592003 -18.595 0.592003 -30.248c0 -6.75299 -0.0730057 -12.929 -0.230003 -16.609c-4.735 -109.069 -47.12 -197.587 -121.334 -253.519c-5.02299 -3.79166 -7.53 -6.90324 -7.53 -10.0137c0 -3.12065 2.52299 -6.24019 7.563 -10.0443
c74.214 -55.965 116.533 -144.45 121.301 -253.52c0.156998 -3.67899 0.230003 -9.85599 0.230003 -16.609c0 -11.652 -0.217003 -25.022 -0.592003 -30.247c-4.11 -59.55 -14.106 -107.557 -35.052 -168.356c-31.336 -91.05 -49.52 -183.941 -54.518 -278.674
c-1.25 -23.182 -1.34801 -27.719 -1.34801 -57.543v0c0 -29.791 0.130997 -34.822 1.315 -57.544c8.549 -160.46 53.367 -326.42 133.205 -493.23c15.9806 -33.4099 47.7117 -93.7799 51.1314 -97.36c1.7824 -1.84998 4.0679 -2.68994 6.33875 -2.68994
c4.34818 0 8.64245 3.06995 9.24727 7.94995c0.052159 0.420044 0.0819789 0.810059 0.0819789 1.19995c0 2.06006 -0.838958 4.02002 -3.63322 9.03003c-72.5947 130.54 -109.117 282.06 -109.117 449.479c0 100.572 13.1801 206.879 39.6373 317.816
c12.5938 52.776 27.3249 102.888 47.8432 162.766c15.9148 46.396 23.0502 88.32 23.0502 135.637v0c0 141.425 -71.288 272.92 -203.704 375.808c-4.14299 3.22243 -7.56299 5.98451 -7.56299 6.11604c0 0.13152 3.42 2.8936 7.56299 6.11603
c132.685 103.112 203.784 235.402 203.784 375.217c0 24.664 -2.2124 49.561 -6.6894 74.574c-3.74854 20.979 -8.77944 39.327 -18.644 68.23c-51.6246 150.928 -79.2454 291.926 -84.9664 433.548c-0.279999 7.03705 -0.419998 24.744 -0.419998 42.319
c0 17.574 0.139999 35.024 0.419998 41.534c6.806 156.05 42.3843 289.95 108.806 409.38c2.79426 5 3.63322 6.95996 3.63322 9.02002c0 0.390015 -0.0298199 0.780029 -0.0819789 1.19995c-0.564663 4.63 -4.64436 7.97998 -9.15856 7.97998
c-0.743291 0 -1.49836 -0.0899658 -2.25146 -0.279907z" />
    <glyph glyph-name="brace260" unicode="F" 
d="M-11.0645 1477.02c-3.873 -0.76001 -4.4689 -1.45996 -10.8907 -13.05c-105.597 -190.67 -166.837 -386.67 -178.621 -571.675c-1.57399 -24.634 -2.366 -48.93 -2.366 -72.963c0 -117.967 19.083 -229.589 58.408 -343.631
c23.106 -66.949 34.399 -131.879 34.399 -192.032c0 -115.653 -41.747 -213.648 -121.557 -274.382c-7.44901 -5.69363 -8.243 -6.7198 -8.243 -10.9238v0c0 -4.20401 0.793991 -5.23019 8.243 -10.9238c79.838 -60.7385 121.534 -158.462 121.534 -274.08
c0 -60.311 -11.346 -125.491 -34.541 -192.83c-38.922 -113.074 -57.974 -224.636 -57.974 -341.424c0 -31.904 1.422 -64.197 4.24901 -97.018c14.962 -173.557 73.752 -357.907 170.941 -535.927c11.7514 -21.49 11.4204 -20.99 14.2341 -22.38
c1.4025 -0.680054 2.8347 -0.98999 4.21358 -0.98999c4.80433 0 8.9612 3.80994 8.9612 9.22998c0 0.23999 0.0029361 0.449951 0.0029361 0.640015c0 1.94995 -0.301669 2.39001 -7.02066 14.6599c-70.8652 129.38 -106.412 281.7 -106.412 448.2
c0 146.93 27.6833 304.905 83.2069 467.907c7.5474 22.079 9.6991 28.7 11.5859 35.254c11.0906 38.527 16.6082 77.22 16.6082 115.715c0 77.665 -22.4597 154.521 -66.924 227.558c-32.043 52.633 -81.432 106.226 -138.964 150.748
c-3.84 3.01233 -7.01801 5.56122 -7.01801 5.66052c0 0.0993099 3.17801 2.6482 7.01801 5.66052c134.012 103.766 205.957 238.983 205.957 378.109c0 44.662 -7.41421 89.727 -22.5694 134.284c-24.4628 71.931 -38.7299 121.122 -52.335 180.243
c-24.7166 107.551 -37.0396 210.503 -37.0396 308.08c0 168.37 36.6866 320.74 109.699 453.14c3.29087 5.94995 4.27853 8.13 4.27853 10.26c0 0.549927 -0.0654163 1.08997 -0.173824 1.68994c-0.865686 4.45007 -4.54868 7.38 -8.92198 7.38
c-0.643559 0 -1.3021 -0.0599365 -1.9687 -0.189941z" />
    <glyph glyph-name="brace261" unicode="G" 
d="M-11.1019 1486.76c-4.0322 -0.859985 -4.3655 -1.26001 -12.3967 -15.86c-119.829 -217.57 -180.539 -435.78 -180.539 -645.17c0 -86.016 10.245 -170.543 30.846 -252.926c8.09801 -32.458 13.963 -52.253 25.626 -86.81c13.13 -38.857 18.395 -57.518 24.66 -87.311
c8.22 -39.107 12.252 -76.986 12.252 -113.08c0 -117.414 -42.664 -215.947 -122.622 -276.483c-6.265 -4.7654 -7.532 -6.16503 -8.032 -9.06426c-0.139008 -0.806079 -0.218994 -1.53506 -0.218994 -2.21725c0 -3.37904 1.95699 -5.61042 8.25099 -10.3794
c79.958 -60.5362 122.622 -159.069 122.622 -276.483c0 -36.094 -4.032 -73.973 -12.252 -113.08c-6.26501 -29.759 -10.863 -46.055 -24.66 -87.311c-10.997 -32.824 -15.862 -49.02 -22.494 -74.48c-22.47 -86.265 -33.679 -174.455 -33.679 -264.157
c0 -180.478 45.374 -367.088 135.686 -556.458c15.4292 -32.36 48.6871 -95.84 52.1528 -99.5699c1.9279 -2.09009 4.3246 -3 6.66723 -3c4.7217 0 9.22359 3.70996 9.22359 9c0 0.569946 -0.0521035 1.15991 -0.161642 1.76001
c-0.199947 1.13 -1.63291 4.09998 -4.46549 9.22998c-73.0458 132.36 -109.832 285.77 -109.832 454.86c0 97.661 12.272 200.553 36.9181 307.639c13.9296 60.551 28.6591 111.237 52.9193 182.185c15.0105 43.898 22.3542 88.738 22.3542 133.407
c0 123.322 -55.9734 245.342 -161.118 342.634c-15.729 14.5628 -42.589 37.0235 -52.819 44.1883c-0.317001 0.23327 -0.474991 0.3499 -0.474991 0.46654c0 0.11664 0.15799 0.23327 0.474991 0.46654c4.565 3.19916 23.893 18.7617 32.991 26.5263
c79.712 68.3152 134.731 148.328 161.757 235.105c12.6502 40.672 18.9678 82.799 18.9678 124.802c0 45.409 -7.38411 90.673 -22.1336 133.796c-61.4507 179.653 -90.0474 335.624 -90.0474 491.635c0 3.29999 0.012001 6.59998 0.038002 9.90002
c0.199997 23.46 0.365997 30.12 1.233 47.8199c7.165 145.63 44.1882 281.46 108.671 398.46c3.68275 6.72998 4.73688 8.93994 4.73688 11.1499c0 0.550049 -0.0652181 1.1001 -0.171424 1.71008c-0.566517 3.29993 -3.73235 6.56995 -6.76488 7.06995
c-0.73314 0.130005 -1.56625 0.27002 -1.83285 0.330078l-0.207641 0.0198975c-0.428579 0 -1.29951 -0.130005 -2.12511 -0.319946z" />
    <glyph glyph-name="brace262" unicode="H" 
d="M-13.0677 1496.07c-2.5832 -1.20996 -3.4219 -2.38 -8.8231 -12.11c-121.815 -220.07 -183.323 -440.53 -183.323 -652.256c0 -116.266 18.547 -229.899 55.841 -339.389c22.879 -67.264 32.944 -113.627 37.003 -170.961c0.817001 -11.512 1.221 -22.894 1.221 -34.123
c0 -117.926 -44.565 -219.029 -123.839 -278.209c-7.01099 -5.23349 -8.05099 -6.57541 -8.05099 -10.7354c0 -4.15996 1.04001 -5.50188 8.05099 -10.7354c79.274 -59.1794 123.839 -160.283 123.839 -278.209c0 -11.229 -0.403999 -22.611 -1.221 -34.123
c-4.059 -57.233 -14.157 -103.865 -36.903 -170.592c-37.183 -109.093 -55.719 -222.106 -55.719 -337.853c0 -183.135 46.405 -373.125 138.784 -565.255c15.9353 -33.1801 46.9336 -92.03 50.3891 -95.75c1.7499 -1.87 4.0983 -2.73999 6.44827 -2.73999
c3.64212 0 7.28804 2.08997 8.71542 5.82996c0.404247 1.06006 0.654914 1.92004 0.654914 2.89001c0 2.31006 -1.44691 5.21997 -5.68712 12.9399c-73.0638 133.35 -109.775 286.97 -109.775 456.33c0 108.173 14.978 222.773 45.0272 342.616
c12.245 48.779 24.8255 90.446 45.7595 151.671c14.5055 42.417 21.8674 88.126 21.8674 133.892c0 26.845 -2.53299 53.711 -7.643 79.943c-22.3095 114.801 -92.0221 219.874 -202.227 304.784c-2.953 2.24771 -5.36801 4.22705 -5.36801 4.36124
c0 0.13419 2.41501 2.11352 5.36801 4.36124c136.522 105.186 209.942 241.151 209.942 384.422c0 25.755 -2.37259 51.746 -7.17771 77.836c-4.02573 21.907 -9.05793 40.057 -19.6927 70.82c-15.432 44.82 -30.5287 95.612 -41.6666 140.399
c-29.6925 119.447 -44.4945 233.601 -44.4945 341.355c0 169.95 36.82 323.98 110.114 457.76c5.1664 9.45996 5.33414 9.79004 5.43478 12.01c0.011149 0.189941 0.016637 0.380005 0.016637 0.569946c0 5.25 -4.19773 9.15002 -8.96124 9.15002
c-1.28401 0 -2.60921 -0.280029 -3.90431 -0.900024z" />
    <glyph glyph-name="brace263" unicode="I" 
d="M-12.6649 1506.32c-3.1071 -1.21997 -3.5799 -1.92993 -17.4944 -27.5299c-101.59 -186.93 -161.773 -383.32 -173.661 -566.538c-1.78999 -27.626 -2.33099 -45.02 -2.33099 -74.132c0 -25.498 0.169006 -33.334 1.31801 -56.232
c4.424 -87.236 19.622 -173.424 45.424 -257.35c2.76999 -9.052 6.586 -20.602 14.32 -43.399c18.71 -55.32 28.538 -104.122 32.692 -162.448c0.318001 -4.37402 0.466003 -14.919 0.466003 -26.098c0 -13.769 -0.223999 -28.5 -0.634003 -33.849
c-4.05299 -52.754 -14.05 -93.754 -32.895 -135.092c-20.737 -45.5263 -53.26 -86.4929 -90.782 -114.423c-7.15999 -5.33614 -8.27499 -6.78838 -8.27499 -10.8749v0c0 -4.08653 1.11501 -5.53877 8.27499 -10.8749c37.522 -27.9303 70.045 -68.897 90.782 -114.423
c18.845 -41.338 28.842 -82.339 32.895 -135.092c0.410004 -5.34998 0.634003 -20.08 0.634003 -33.849c0 -11.179 -0.148003 -21.725 -0.466003 -26.098c-4.154 -58.326 -13.982 -107.162 -32.692 -162.449c-10.436 -30.801 -14.455 -43.263 -19.217 -59.778
c-27.817 -96.306 -41.7 -194.929 -41.7 -295.405c0 -181.445 45.273 -368.925 135.522 -559.725c16.4812 -34.8201 50.9973 -100.85 54.9149 -104.97c1.7555 -1.84998 3.9667 -2.66992 6.16566 -2.66992c4.70893 0 9.36163 3.76001 9.36163 9.16992
c0 0.230103 -0.0083623 0.460083 -0.0254371 0.690063c-0.168865 2.19995 -0.270184 2.40002 -5.70764 12.33c-73.3525 133.18 -110.378 288.72 -110.378 459.88c0 92.999 10.93 190.605 32.9025 291.74c14.725 67.816 30.2944 122.63 57.6505 203.314
c15.2667 45.013 22.8193 90.969 22.8193 136.75c0 85.981 -26.6395 171.346 -78.8487 248.701c-33.9416 50.3559 -81.1226 99.4618 -133.944 139.517c-2.162 1.65488 -3.952 3.10712 -3.952 3.24221v0c0 0.1351 1.78999 1.58734 3.952 3.24222
c137.904 104.55 212.762 244.23 212.762 388.473c0 39.343 -5.56891 79.025 -16.9464 118.426c-1.7224 5.91101 -4.3567 13.982 -11.6517 35.293c-55.9718 164.024 -85.1761 329.974 -85.1761 481.472c0 23.37 0.695 46.4 2.094 69.03
c8.95 144.51 46.4046 278.22 110.236 393.45c3.8839 7.03003 4.2554 7.87 4.2554 10.17c0 5.25 -4.25732 9.06995 -9.16067 9.06995c-1.14813 0 -2.33163 -0.209961 -3.50423 -0.660034z" />
    <glyph glyph-name="brace264" unicode="J" 
d="M-11.8343 1516.64c-3.536 -0.98999 -3.808 -1.40002 -12.2059 -16.63c-63.6471 -115.77 -110.329 -230.21 -141.812 -347.78c-27.723 -103.61 -41.443 -205.682 -41.443 -308.335c0 -2.84705 0.00999451 -5.69403 0.0309906 -8.54199
c0.20401 -24.548 0.340012 -29.444 1.42801 -50.4901c5.202 -98.836 24.106 -195.973 56.44 -289.846c19.379 -56.201 29.681 -101.59 34.645 -152.318c1.698 -17.34 2.539 -34.346 2.539 -50.97c0 -121.15 -44.62 -221.963 -126.807 -283.551
c-4.91301 -3.67195 -7.37001 -6.78291 -7.37001 -9.89386c0 -3.11096 2.457 -6.22192 7.37001 -9.89384c82.187 -61.5883 126.807 -162.401 126.807 -283.551c0 -16.623 -0.841003 -33.63 -2.539 -50.97c-4.964 -50.728 -15.266 -96.151 -34.645 -152.318
c-32.062 -93.057 -50.796 -189.174 -56.1 -287.636c-1.258 -23.46 -1.36 -28.458 -1.36 -59.499v0c0 -30.94 0.136002 -36.244 1.36 -59.67c10.37 -194.956 72.657 -398.136 183.36 -598.226c2.312 -4.20996 4.692 -8.39001 5.2359 -9.28003
c1.8346 -2.90002 4.7579 -4.25 7.6624 -4.25c4.03932 0 8.04252 2.60999 9.03141 7.28003c0.128874 0.630005 0.206486 1.19995 0.206486 1.78003c0 2.16992 -1.09072 4.5199 -4.66042 10.9299c-74.7159 134.73 -112.419 292.19 -112.419 465.47
c0 95.996 11.572 196.852 34.8316 301.394c14.8238 66.537 29.5796 118.182 56.5753 197.537c15.2932 45.023 22.7856 90.88 22.7856 136.493c0 124.546 -55.8597 247.281 -161.3 346.301c-17.204 16.1498 -44.744 39.3375 -56.541 47.5993l-0.713989 0.51l0.713989 0.50999
c11.797 8.26189 39.439 31.5516 56.541 47.5994c105.471 99.1516 161.325 221.792 161.325 346.268c0 45.617 -7.50142 91.481 -22.811 136.526c-27.8117 81.769 -43.5874 137.358 -58.4112 205.697c-22.2387 102.525 -33.3037 201.329 -33.3037 295.396
c0 173.87 37.8016 331.57 112.727 466.7c3.5697 6.44006 4.66042 8.78003 4.66042 10.96c0 0.580078 -0.0776123 1.16003 -0.206486 1.79004c-0.932984 4.35999 -4.75763 7.28003 -9.01076 7.28003c-0.86155 0 -1.74075 -0.119995 -2.61705 -0.369995z" />
    <glyph glyph-name="brace265" unicode="K" 
d="M-11.5737 1526.75c-3.7993 -1.02002 -4.0731 -1.40002 -12.1508 -16.12c-122.835 -223.67 -184.837 -446.37 -184.837 -660.901c0 -91.591 11.302 -181.693 33.996 -269.744c7.222 -27.964 12.424 -45.386 23.754 -79.237c16.018 -47.884 21.974 -69.927 28.545 -105.421
c6.46 -34.906 9.634 -68.764 9.634 -101.208c0 -121.246 -44.329 -222.74 -127.171 -285.358c-5.408 -4.09019 -8.112 -7.28191 -8.112 -10.4736s2.70399 -6.38344 8.112 -10.4737c82.842 -62.6179 127.171 -164.112 127.171 -285.358
c0 -32.444 -3.174 -66.302 -9.634 -101.208c-6.53699 -35.391 -12.561 -57.673 -28.374 -104.907c-12.664 -37.89 -17.73 -55.038 -26.15 -88.821c-20.984 -84.012 -31.427 -170.298 -31.427 -258.156c0 -195.024 51.455 -397.794 153.277 -600.614
c13.4856 -26.87 36.0074 -69.14 38.6771 -72.53c1.775 -2.27002 4.3279 -3.30994 6.88632 -3.30994c4.10171 0 8.21785 2.66992 9.16642 7.25c0.131645 0.640015 0.210157 1.20996 0.210157 1.78992c0 2.16003 -1.06322 4.47009 -4.45437 10.63
c-75.5345 137 -113.516 294.58 -113.516 468.6c0 96.5269 11.687 198.115 35.1345 304.056c14.7521 66.744 29.3673 117.709 57.2627 199.786c15.0398 44.288 22.4386 89.973 22.4386 135.67c0 95.322 -32.1946 190.693 -94.3849 273.521
c-33.2349 44.2559 -80.0929 90.8396 -122.877 122.158c-1.386 1.02682 -2.07901 1.47178 -2.07901 1.91674c0 0.44496 0.693008 0.889917 2.07901 1.91674c38.369 28.0666 81.051 69.4135 113.191 109.631c68.4509 85.641 104.092 185.886 104.092 286.117
c0 45.664 -7.39733 91.325 -22.4595 135.601c-24.8149 72.87 -38.9851 121.131 -52.505 178.633c-26.8402 114.242 -40.2212 223.557 -40.2212 327.074c0 174.62 38.0752 332.73 113.845 470.15c3.39115 6.16992 4.45437 8.47998 4.45437 10.63
c0 0.589966 -0.0785118 1.15991 -0.210157 1.79993c-0.915163 4.40002 -4.5783 7.25 -8.81316 7.25c-0.833509 0 -1.68918 -0.109985 -2.55038 -0.339966z" />
    <glyph glyph-name="brace266" unicode="L" 
d="M-11.1352 1537.1c-3.7558 -0.719971 -4.6172 -1.81995 -11.5086 -14.2999c-123.606 -223.66 -186.974 -449.69 -186.974 -666.605c0 -3.31 0.0149994 -6.61798 0.0439911 -9.92303c0.207001 -22.501 0.380005 -28.152 1.448 -49.274
c3.92801 -77.115 16.505 -155.022 37.076 -229.829c6.65001 -24.154 10.957 -37.902 24.051 -76.598c22.699 -67.136 33.765 -132.602 33.765 -193.541c0 -122.496 -44.718 -226.695 -129.556 -289.375c-5.134 -3.79028 -6.27101 -5.47868 -6.27101 -9.37233v0
c0 -3.89365 1.13701 -5.58205 6.27101 -9.37236c84.189 -62.2069 129.573 -165.972 129.573 -289.196c0 -34.581 -3.574 -70.695 -10.868 -107.853c-6.71999 -34.147 -13.335 -58.095 -28.049 -101.132c-38.2 -111.959 -57.196 -228.315 -57.196 -347.415
c0 -216.295 62.648 -441.625 186.686 -666.105c3.1356 -5.68994 6.2367 -10.9199 6.8569 -11.61c1.7974 -1.98999 4.1769 -2.90002 6.5417 -2.90002c4.11832 0 8.19186 2.76001 9.0674 7.38c0.109595 0.590088 0.17698 1.13 0.17698 1.67004
c0 2.18994 -1.09463 4.5 -4.93206 11.49c-75.809 137.59 -113.926 296.3 -113.926 471.41c0 105.851 13.927 217.699 41.8764 334.506c13.3004 55.545 26.9454 101.683 51.3066 173.147c14.8773 43.667 22.2691 89.484 22.2691 135.586
c0 60.888 -12.8933 122.276 -38.464 179.869c-35.4908 79.974 -98.5131 156.883 -177.592 216.735c-2.584 1.96405 -4.686 3.65245 -4.686 3.79028c0 0.13783 2.10201 1.82622 4.686 3.79028c67.295 50.9276 121.082 111.848 160.122 181.417
c36.8779 65.735 55.7635 140.486 55.7635 214.847c0 46.394 -7.35146 92.637 -22.2712 136.443c-27.9103 81.939 -42.9336 134.279 -57.8535 201.849c-24.1512 108.998 -35.2772 205.818 -35.2772 307.081c0 2.90002 0.00899506 5.81006 0.0279999 8.72009
c0.171997 27.7 0.309998 33.3199 1.27499 52.4399c7.649 150.51 46.2065 291.34 112.847 412.07c3.74893 6.84009 4.8295 9.13 4.8295 11.3101c0 0.550049 -0.0675359 1.08997 -0.177799 1.68005c-0.841801 4.38989 -4.64781 7.37 -9.0148 7.37
c-0.63804 0 -1.2881 -0.0700684 -1.9426 -0.200073z" />
    <glyph glyph-name="brace267" unicode="M" 
d="M-13.1649 1546.58c-2.5669 -1.21997 -3.1219 -1.97998 -8.7761 -12.1799c-125.312 -226.35 -188.931 -454.61 -188.931 -673.63c0 -87.393 10.13 -173.313 30.51 -257.052c9.019 -37.116 16.477 -62.265 31.983 -107.88c23.206 -68.285 34.525 -134.922 34.525 -196.896
c0 -121.631 -43.597 -225.3 -126.484 -288.218l-6.59 -5.02978c-2.498 -1.95988 -3.74701 -4.70892 -3.74701 -7.45795c0 -2.74904 1.24901 -5.49808 3.74701 -7.45796l6.59 -5.02981c80.83 -61.382 126.639 -165.605 126.639 -287.028
c0 -4.629 -0.0670013 -9.28299 -0.200005 -13.961c-1.769 -60.808 -13.043 -121.027 -34.48 -184.124c-13.98 -41.106 -19.599 -59.629 -27.751 -91.23c-22.968 -89.038 -34.421 -180.111 -34.421 -272.732c0 -188.403 47.388 -383.203 141.642 -580.323
c15.6791 -32.78 49.5694 -97.4 53.0729 -101.18c1.6992 -1.84009 4.0431 -2.69006 6.4031 -2.69006c3.66219 0 7.3634 2.06006 8.75563 5.70996c0.417985 1.1001 0.677171 1.99011 0.677171 2.99011c0 2.38989 -1.49608 5.38989 -5.88039 13.38
c-75.545 137.89 -113.958 297.83 -113.958 473.6c0 27.45 0.937996 55.29 2.81699 83.491c8.672 130.774 37.6711 271.053 83.9451 406.406c7.5273 22.062 10.5799 31.358 12.5918 38.469c11.3149 40.041 16.8601 80.273 16.8601 120.118
c0 147.905 -76.4067 290.477 -217.739 398.089c-2.35899 1.7691 -4.267 3.36475 -4.267 3.50351c0 0.13875 1.908 1.7344 4.267 3.5035c141.496 107.745 217.798 250.686 217.798 397.972c0 47.081 -7.79666 94.606 -23.753 141.567
c-21.9923 64.728 -35.8328 111.176 -48.1124 161.3c-29.8219 121.726 -44.6869 238.098 -44.6869 348.041c0 176.26 38.206 335.99 114.237 474.76c5.37666 9.78003 5.5501 10.13 5.65417 12.42c0.012021 0.209961 0.017938 0.409912 0.017938 0.609985
c0 5.28992 -4.08876 9.10999 -8.86686 9.10999c-1.33415 0 -2.72205 -0.300049 -4.08975 -0.940063z" />
    <glyph glyph-name="brace268" unicode="N" 
d="M-12.4269 1557.4c-3.3175 -1.26001 -3.1429 -0.97998 -15.2255 -23.09c-109.686 -200.69 -172.23 -407.7 -182.636 -604.474c-1.32701 -25.457 -1.53601 -34.083 -1.53601 -61.81v-0.367004c0 -112.974 16.099 -220.446 48.819 -325.967
c3.52701 -11.419 7.403 -23.118 12.92 -39.286c18.648 -54.232 29.683 -105.391 34.048 -158.017c1.35101 -16.044 1.576 -20.69 1.576 -39.098c0 -1.58499 -0.0019989 -3.27197 -0.0039978 -5.07599c-0.105003 -125.959 -45.921 -228.312 -130.639 -291.903
c-6.25099 -4.67938 -6.914 -5.62224 -6.914 -9.98733v0c0 -4.3651 0.66301 -5.30796 6.914 -9.98735c77.489 -58.1431 121.28 -146.283 130.045 -261.696c0.420998 -5.543 0.641998 -19.647 0.641998 -33.007c0 -11.046 -0.151001 -21.585 -0.467003 -26.358
c-4.086 -60.902 -14.842 -113.772 -35.201 -173.032c-41.203 -119.941 -61.765 -240.676 -61.765 -364.136c0 -91.5649 11.31 -184.628 33.899 -279.978c31.289 -131.97 88.873 -276.71 159.623 -401.24c2.5704 -4.48999 5.7807 -6.82007 9.23323 -6.82007
c1.51944 0 3.0858 0.460083 4.66521 1.37c2.92543 1.72009 4.38357 3.72009 4.38357 6.58008c0 2.78003 -1.37084 6.37 -4.1042 11.2999c-67.6415 122.09 -106.683 263.44 -114.819 415.52c-1.118 20.9601 -1.292 27.28 -1.467 55.74
c-0.0190048 2.85999 -0.0279999 5.7301 -0.0279999 8.6001c0 161.361 29.923 327.521 90.9618 504.873c17.2989 50.259 25.8074 98.187 25.8074 146.974c0 25.077 -2.24799 50.38 -6.70571 76.344c-20.8477 121.594 -98.0925 239.696 -213.227 325.985
c-2.06 1.53652 -3.73599 2.8635 -3.73599 2.96827v0c0 0.10476 1.67599 1.43175 3.73599 2.96826c99.385 74.486 172.125 174.674 202.157 278.318c11.863 41.015 17.801 81.7 17.801 122.49c0 49.264 -8.66153 98.682 -26.0074 149.019
c-60.9382 176.79 -91.3402 346.748 -91.3402 504.69c0 178.94 39.02 342.45 116.867 483.01c3.0599 5.55005 4.15069 7.96008 4.15069 10.1901c0 0.790039 -0.139857 1.56995 -0.379247 2.44995c-1.03059 3.84009 -5.01604 6.47009 -9.03241 6.47009
c-1.01904 0 -2.04004 -0.170044 -3.01524 -0.530029z" />
    <glyph glyph-name="brace269" unicode="O" 
d="M-12.18 1567.72c-3.6561 -1.43994 -3.41 -1.12 -12.0581 -16.7999c-125.298 -227.82 -188.777 -455.64 -188.777 -677.439c0 -2.789 0.00999451 -5.578 0.0299988 -8.36499c0.175995 -25.98 0.317001 -30.796 1.47701 -52.944
c5.44899 -103.882 24.397 -199.961 60.115 -304.793c20.179 -59.236 30.866 -109.261 35.154 -164.701c1.044 -13.506 1.56 -26.829 1.56 -39.943c0 -124.31 -46.401 -229.775 -130.226 -293.185c-7.875 -5.94118 -8.895 -7.27707 -8.895 -11.3902v0
c0 -4.11312 1.02 -5.44901 8.895 -11.3902c85.422 -64.6174 130.031 -168.828 130.031 -292.505c0 -63.984 -11.94 -133.179 -36.344 -204.796c-38.951 -114.219 -57.372 -214.551 -61.204 -332.917c-0.165009 -5.13702 -0.238998 -14.933 -0.238998 -25.913
c0 -19.454 0.231003 -42.625 0.589996 -50.198c1.231 -25.311 1.828 -34.698 3.05901 -50.096c14.308 -178.655 71.259 -365.615 167.232 -548.765c12.1285 -23.21 24.6436 -45.8099 26.1201 -47.2899c1.7507 -1.75 4.066 -2.58008 6.37688 -2.58008
c3.39685 0 6.7839 1.80005 8.35304 5.08008c0.607992 1.25 0.930379 2.3999 0.930379 3.64001c0 2.12 -0.951096 4.5199 -3.03967 8.20996c-78.9699 141.16 -118.562 306.05 -118.562 486.72c0 160.097 31.0924 332.584 93.4266 511.923
c12.4096 35.717 20.425 74.774 23.0264 112.144c0.72893 10.483 1.09153 20.929 1.09153 31.331c0 151.126 -76.5483 292.801 -218.244 402.164c-3.55101 2.74208 -6.433 5.09746 -6.433 5.23808s2.88199 2.496 6.433 5.23809
c142.302 109.849 218.377 252.861 218.377 401.028c0 49.091 -8.35113 98.748 -25.4115 147.951c-61.7646 178.084 -92.5774 350.015 -92.5774 509.863c0 179.97 39.0578 344.61 116.975 485.48c4.09226 7.40002 4.86499 8.94006 4.86499 10.9601
c0 0.319946 -0.0197151 0.649902 -0.0487663 1.02991c-0.374963 4.84009 -4.72562 8.58008 -9.16875 8.58008c-0.97223 0 -1.94893 -0.180054 -2.88943 -0.570068z" />
    <glyph glyph-name="brace270" unicode="P" 
d="M-12.4424 1578.09c-3.0565 -1.12 -3.2817 -1.40991 -9.6199 -12.9c-127.439 -230.17 -192.195 -462.83 -192.195 -686.242c0 -84.716 9.311 -168.102 28.047 -249.517c9.265 -40.346 18.21 -71.361 33.91 -117.755c22.135 -65.408 32.206 -114.472 36.42 -177.596
c0.290001 -4.24698 0.418999 -13.642 0.418999 -29.117v0c-0.0650024 -128.307 -46.587 -232.163 -133.037 -296.992c-6.049 -4.56861 -6.59599 -5.37294 -6.59599 -9.78069v0c0 -4.40774 0.546997 -5.21207 6.59599 -9.78066
c79.146 -59.3276 123.835 -149.284 132.458 -266.588c0.389999 -5.36298 0.604004 -19.907 0.604004 -33.536c0 -11.067 -0.141006 -21.53 -0.444 -25.985c-2.799 -41.89 -8.075 -76.058 -17.92 -115.985c-4.73 -19.272 -8.59 -31.916 -20.108 -66.438
c-14.06 -42.05 -21.589 -67.917 -29.922 -102.954c-20.104 -84.304 -30.121 -170.5 -30.121 -258.086c0 -193.588 48.94 -393.978 146.074 -595.728c15.3789 -31.95 48.1957 -94.46 51.8956 -98.84c1.6566 -1.97998 4.104 -2.89001 6.58239 -2.89001
c3.92348 0 7.92472 2.28003 8.98948 6.20996c0.255567 0.940063 0.40963 1.75 0.40963 2.58008c0 2.29993 -1.18783 4.80994 -4.68868 11.1499c-69.5265 126.06 -108.456 269.1 -116.403 427.43c-0.915001 18.37 -1.37 37.5601 -1.37 57.1899
c0 41.05 1.989 84.0201 5.907 125.551c11.968 127.31 41.632 259.317 88.2833 392.836c15.8467 45.384 24.0655 95.457 24.0655 144.929c0 16.217 -0.88316 32.37 -2.6703 48.272c-15.0571 133.873 -90.407 257.579 -216.044 354.71
c-4.054 3.15299 -7.40001 5.82337 -7.40001 5.95206c0 0.1287 3.34601 2.79908 7.40001 5.95207c122.966 95.0721 196.16 212.73 214.885 345.542c2.59369 18.336 3.86736 37.389 3.86736 56.709c0 49.462 -8.34766 100.681 -24.2653 146.143
c-56.3676 160.803 -87.4474 317.905 -93.6884 473.434c-0.290001 6.98999 -0.434998 25.73 -0.434998 44.38c0 18.66 0.144997 37.24 0.434998 43.9301c7.078 168.85 45.2676 313.34 117.432 444.32c3.50085 6.33997 4.68868 8.84998 4.68868 11.15
c0 0.829956 -0.154063 1.64001 -0.40963 2.57996c-1.00064 3.70007 -5.04998 6.29004 -9.04775 6.29004c-1.01532 0 -2.02722 -0.170044 -2.98502 -0.530029z" />
    <glyph glyph-name="brace271" unicode="Q" 
d="M-13.4423 1588.17c-2.5587 -1.30005 -2.6559 -1.43005 -8.8746 -12.63c-127.32 -229.65 -193.211 -464.77 -193.211 -689.154c0 -3.31396 0.0139923 -6.625 0.0429993 -9.93298c0.194 -21.669 0.389008 -28.017 1.36 -47.936c4.34 -87.191 18.3 -171.144 42.43 -255.064
c5.57101 -19.304 8.84201 -29.603 21.02 -65.587c23.422 -69.318 34.847 -136.849 34.847 -199.736c0 -126.612 -46.313 -234.402 -134.281 -300.059c-5.862 -4.37251 -6.93102 -5.86241 -6.93102 -9.84626c0 -3.98385 1.06902 -5.47374 6.93102 -9.8463
c87.982 -65.6673 134.261 -173.325 134.261 -299.924c0 -63.038 -11.474 -130.772 -34.989 -200.357c-13.376 -39.514 -17.36 -52.243 -23.935 -76.049c-23.936 -86.965 -35.887 -165.249 -39.839 -260.797c-0.580002 -13.969 -0.868011 -28.055 -0.868011 -42.2469
c0 -205.274 60.376 -432.484 172.012 -645.304c10.9151 -20.7999 25.6197 -47.71 27.2391 -49.8199c1.5991 -2.08997 4.0344 -3.07996 6.5358 -3.07996c3.52773 0 7.18681 1.95996 8.81664 5.53992c0.532874 1.19006 0.875364 2.09009 0.875364 3.17004
c0 2.39001 -1.69011 5.65002 -6.73778 14.8099c-55.45 101.05 -92.0172 216.59 -107.952 341.22c-5.939 46.47 -8.882 94.7 -8.882 144.27c0 158.617 30.1371 330.939 88.7206 503.185c8.5183 25.037 10.8503 32.163 12.9556 39.482
c11.7183 41.269 17.4637 82.741 17.4637 123.814c0 149.764 -76.3833 294.244 -218.114 404.354c-4.11299 3.17412 -7.968 6.1863 -8.58299 6.70453l-1.134 0.8745l1.134 0.906894l8.58299 6.67214c141.818 110.192 218.228 255.384 218.228 404.466
c0 48.022 -7.9283 96.448 -24.1526 144.237c-29.3769 86.608 -45.96 145.232 -61.4096 217.492c-22.6886 106.101 -34.0316 208.062 -34.0316 305.322c0 108.65 14.152 211.43 42.4527 307.58c18.397 62.5399 44.5673 125.79 74.7215 180.79
c6.4803 11.79 6.54261 11.8601 6.54261 14.2401c0 0.0499268 -2.40058e-05 0.0899658 -2.40058e-05 0.139893v0c0 5.36011 -4.18001 9.13 -8.96497 9.13c-1.40543 0 -2.86293 -0.329956 -4.28213 -1.02991z" />
    <glyph glyph-name="brace272" unicode="R" 
d="M-12.5208 1599.17c-2.8367 -1.10999 -3.7171 -2.31006 -10.2709 -14.1801c-113.861 -205.75 -179.399 -417.91 -191.594 -620.007c-1.38899 -23.173 -2.162 -53.899 -2.162 -80.106c0 -13.767 0.212997 -26.287 0.662003 -35.809
c2.576 -53.931 5.64101 -86.407 12.456 -130.588c10.727 -69.908 25.498 -128.99 50.507 -202.159c24.561 -71.911 36.551 -141.804 36.551 -206.657c0 -127.227 -46.143 -235.061 -134.043 -300.695c-6.81502 -5.08656 -8.15199 -6.8473 -8.15199 -10.76
c0 -3.91274 1.33698 -5.67347 8.15199 -10.7601c70.592 -52.6263 117.284 -137.728 130.066 -237.047c2.75 -21.334 4.128 -42.958 4.128 -64.904c0 -65.465 -12.258 -133.803 -36.898 -205.89c-39.975 -117.089 -59.082 -221.2 -62.767 -342.202
c-0.156998 -5.25098 -0.229004 -15.209 -0.229004 -26.254c0 -18.719 0.207001 -40.563 0.556 -47.925c1.53201 -32.345 2.673 -49.724 4.793 -71.407c15.325 -158.66 62.31 -321.11 139.848 -483.55c17.6073 -36.88 51.4851 -101.37 55.3653 -105.42
c1.7697 -1.82996 4.0068 -2.65002 6.22868 -2.65002c4.69644 0 9.32442 3.65002 9.32442 9.08008c0 2.25 -0.489093 3.41992 -4.17359 10.01c-79.8594 143.31 -120.062 311.76 -120.062 496.13c0 136.169 21.927 281.016 66.0014 430.829
c8.8036 29.965 13.7598 45.322 30.1607 93.742c15.7366 46.467 23.4881 94.499 23.4881 142.544c0 93.216 -29.1788 186.48 -85.8311 268.457c-36.6821 53.0506 -85.8851 103.916 -139.196 143.957c-2.282 1.69553 -4.14099 3.1628 -4.14099 3.26062v0
c0 0.09782 1.85899 1.5651 4.14099 3.26062c53.311 40.0404 102.514 90.906 139.196 143.956c56.6378 81.987 85.8236 175.307 85.8236 268.535c0 48.034 -7.74783 96.044 -23.4806 142.466c-23.2482 68.506 -35.1169 107.796 -47.8985 158.303
c-32.4556 128.409 -48.6016 252.114 -48.6016 369.12c0 184.98 40.3508 353.23 120.4 496.87c3.6845 6.58008 4.17359 7.76001 4.17359 10.01c0 5.16003 -4.36783 9.07007 -9.21842 9.07007c-1.09108 0 -2.20658 -0.200073 -3.30238 -0.630005z" />
    <glyph glyph-name="brace273" unicode="S" 
d="M-11.7529 1610.16c-3.9062 -1.18005 -4.1688 -1.60999 -19.4651 -29.8401c-123.927 -228.87 -186.495 -459.62 -186.495 -681.988c0 -128.731 20.968 -254.657 63.139 -375.791c25.402 -72.959 37.807 -143.997 37.807 -209.977
c0 -127.475 -46.304 -236.067 -134.64 -303.14c-6.92601 -5.28479 -7.976 -6.43366 -8.63301 -9.45354c-0.175995 -0.84846 -0.277985 -1.61019 -0.277985 -2.32544c0 -3.26943 2.12399 -5.56774 8.911 -10.7388c88.335 -67.0732 134.625 -175.635 134.625 -303.11
c0 -65.979 -12.401 -137.025 -37.792 -210.007c-41.913 -120.461 -62.928 -245.683 -62.928 -373.98c0 -73.561 6.909 -148.129 20.749 -223.399c24.979 -135.83 73.757 -277.11 142.591 -412.97c14.9353 -29.4399 36.2714 -68.96 38.4706 -71.2599
c1.7944 -1.86011 4.0791 -2.70007 6.34641 -2.70007c4.369 0 8.67312 3.12 9.27821 8.12c0.0418903 0.359985 0.0672807 0.700073 0.0672807 1.04004c0 2.04004 -0.930063 4.04004 -4.76122 10.97c-80.2223 145.62 -120.553 313.23 -120.553 497.67
c0 116.533 16.098 239.78 48.4039 368.444c12.8017 50.977 26.0629 95.028 48.3181 160.153c15.8043 46.263 23.7085 95.112 23.7085 144.164c0 47.63 -7.45295 95.451 -22.3628 141.28c-33.2515 102.315 -102.807 195.931 -202.004 272.052
c-3.25 2.49469 -5.908 4.66112 -5.908 4.79242c0 0.1313 2.658 2.29774 5.908 4.79242c99.197 76.1207 168.752 169.737 202.004 272.052c14.9177 45.821 22.3706 93.612 22.3706 141.226c0 48.984 -7.88791 97.781 -23.6508 144.055l-7.2214 21.139
c-59.2502 173.906 -89.8162 348.456 -89.8162 510.871c0 31.76 1.168 63.0599 3.52 93.7899c11.16 146.24 51.2393 284.37 117.283 404.24c3.83116 6.93005 4.76122 8.93005 4.76122 10.9701c0 0.339966 -0.0253904 0.679932 -0.0672807 1.04993
c-0.554701 4.68005 -4.78863 8.17004 -9.23663 8.17004c-0.81629 0 -1.63969 -0.109985 -2.44899 -0.359985z" />
    <glyph glyph-name="brace274" unicode="T" 
d="M-11.4493 1620.87c-3.7671 -0.98999 -4.1306 -1.44995 -10.343 -12.59c-69.5264 -125.2 -121.539 -253.39 -155.212 -382.76c-27.356 -105.04 -42.208 -218.87 -42.208 -320.557c0 -14.146 0.28801 -28.057 0.869003 -41.676
c5.188 -121.11 24.321 -224.342 61.695 -333.158c13.416 -39.093 20.653 -65.165 27.361 -98.738c8.053 -40.287 12.004 -79.369 12.004 -116.738c0 -129.47 -47.431 -238.368 -136.055 -305.476c-7.567 -5.7498 -8.39299 -6.84028 -8.39299 -11.0039v0
c0 -4.16365 0.825989 -5.25413 8.29399 -10.9048c88.377 -67.0299 136.156 -175.468 136.156 -305.315c0 -20.904 -1.239 -42.362 -3.745 -64.292c-5.519 -48.311 -16.258 -94.872 -33.375 -144.736c-37.506 -109.28 -57.201 -209.835 -62.752 -320.04
c-1.19 -23.693 -1.32201 -29.839 -1.32201 -59.315c0 -32.814 0.462006 -47.717 2.313 -77.325c12.59 -200.055 77.193 -410.115 189.116 -614.965c10.7066 -19.6 10.8387 -19.8301 13.0527 -21.12c1.5828 -0.930054 3.2653 -1.35999 4.8944 -1.35999
c4.15307 0 7.9597 2.80994 8.88534 7.34998c0.134206 0.619995 0.214058 1.17993 0.214058 1.75c0 2.09998 -1.08035 4.35999 -4.50989 10.5699c-80.9592 146.46 -121.681 315.68 -121.681 501.87c0 116.356 15.902 239.339 47.8259 367.541
c12.6231 50.625 27.1959 99.399 46.6593 156.137c10.9709 31.955 16.7868 54.789 21.2148 83.406c3.66072 23.506 5.46668 46.979 5.46668 70.311c0 156.108 -80.8487 305.895 -227.925 417.265c-2.11499 1.6192 -3.866 3.04013 -3.866 3.17231
s1.75101 1.55311 3.866 3.1723c147.533 111.703 227.99 261.897 227.99 417.155c0 38.335 -4.90506 76.979 -14.9166 115.429c-3.4037 12.986 -5.849 20.983 -11.8301 38.398c-63.3237 184.448 -94.9212 361.13 -94.9212 525.283c0 186.46 40.7688 356.75 122.117 503.9
c3.42954 6.20996 4.50989 8.47998 4.50989 10.5699c0 0.570068 -0.0798516 1.13 -0.214058 1.75c-0.917042 4.42004 -4.6384 7.37 -8.82544 7.37c-0.79188 0 -1.6004 -0.109985 -2.4098 -0.329956z" />
    <glyph glyph-name="brace275" unicode="U" 
d="M-10.8071 1631.88c-3.8922 -0.599976 -4.8236 -1.69995 -11.3438 -13.47c-131.286 -237.02 -198.011 -477.48 -198.011 -708.345c0 -95.73 11.473 -189.807 34.573 -281.3c8.74901 -34.531 14.571 -54.225 27.345 -92.315c12.076 -35.961 16.101 -49.267 21.191 -69.793
c12.825 -51.671 19.247 -101.798 19.247 -149.585c0 -38.11 -4.084 -74.731 -12.261 -109.46c-19.394 -82.334 -63.639 -152.626 -125.048 -198.534c-7.386 -5.48895 -8.217 -6.62001 -8.217 -10.8781c0 -4.2581 0.830994 -5.38915 8.217 -10.8781
c72.088 -53.9248 119.925 -140.883 133.032 -241.78c2.784 -21.461 4.166 -43.616 4.166 -66.203c0 -53.251 -7.683 -108.909 -22.795 -163.568c-4.791 -17.331 -7.11899 -24.816 -17.532 -55.821c-35.561 -105.92 -54.457 -204.022 -59.946 -310.708
c-1.04599 -20.464 -1.569 -40.969 -1.569 -61.514c0 -199.658 49.386 -403.148 148.108 -610.298c17.0324 -35.7301 52.4943 -103.19 56.1536 -106.89c1.7568 -1.75 3.9971 -2.55005 6.223 -2.55005c4.22293 0 8.39396 2.87 9.11283 7.51001
c0.101633 0.619995 0.161866 1.17004 0.161866 1.70996c0 2.13 -0.92073 4.14001 -3.8877 9.47009c-81.3472 146.07 -123.281 318.69 -123.281 506.49c0 13.26 0.209 26.6 0.627998 40.01c4.791 153.455 36.7928 320.12 92.1813 480.364
c11.1775 32.335 16.6665 51.962 21.0576 75.348c5.42982 28.891 8.10856 57.73 8.10856 86.338c0 147.364 -71.0782 288.589 -203.348 399.019c-8.41699 7.0192 -18.896 15.4023 -25.183 20.1262c-2.69499 2.02924 -4.89 3.72583 -4.89 3.82563
s2.19501 1.82965 4.89 3.82563c69.66 52.2615 129.805 120.391 168.86 191.282c39.5641 71.758 59.6843 150.457 59.6843 228.815c0 49.329 -7.97354 98.522 -24.0892 145.764c-26.1474 76.579 -41.2171 127.976 -55.821 190.284
c-28.2691 120.685 -42.3431 236.753 -42.3431 346.919c0 188.93 41.3863 360.51 123.546 508.29c2.96697 5.32996 3.8877 7.35999 3.8877 9.47998c0 0.540039 -0.0602329 1.08997 -0.161866 1.70007c-0.683041 4.44995 -4.4414 7.44995 -8.97936 7.44995
c-0.545361 0 -1.10197 -0.0400391 -1.66587 -0.130005z" />
    <glyph glyph-name="brace276" unicode="V" 
d="M-12.8431 1641.98c-3.081 -1.43994 -2.8801 -1.10999 -15.0367 -23.45c-115.237 -211.21 -180.675 -428.26 -191.593 -635.155c-1.18599 -22.573 -1.782 -44.911 -1.782 -67.052c0 -131.553 21.042 -256.148 64.24 -381.873c25.969 -75.57 38.67 -148.643 38.67 -216.246
c0 -131.083 -47.755 -241.6 -139.138 -309.872c-5.42499 -4.05221 -5.42499 -4.01872 -6.53 -6.36298c-0.570007 -1.15538 -0.854004 -2.50333 -0.854004 -3.85128c0 -1.34795 0.283997 -2.69589 0.854004 -3.85128c1.10501 -2.34425 1.10501 -2.31077 6.53 -6.36297
c89.996 -67.2374 139.268 -178.484 139.268 -311.03c0 -17.051 -0.815002 -34.454 -2.464 -52.162c-5.09 -54.521 -16.242 -104.453 -36.503 -163.428c-42.483 -123.659 -63.635 -251.357 -63.635 -381.599c0 -227.664 64.631 -463.094 192.937 -698.304
c13.0764 -23.99 13.1316 -24.24 18.5264 -24.24h0.3616c5.67534 0 8.83128 3.28003 8.83128 8.16003c0 2.42993 -0.785267 5.26001 -2.43481 8.27991c-83.7224 152.05 -125.42 321.7 -125.42 511.12c0 66.0701 5.073 134.546 15.206 205.521
c15.4722 108.271 39.9194 206.729 82.7858 333.219c16.7267 49.354 24.8923 99.399 24.8923 149.032c0 155.67 -80.3269 307.282 -228.776 420.79c-3.28101 2.54519 -5.994 4.722 -5.994 4.85596v0c0 0.13396 2.713 2.31077 5.994 4.85596
c52.445 40.0868 99.129 87.7757 134.728 137.641c62.1011 86.986 93.9536 184.718 93.9536 283.152c0 49.933 -8.19626 100.046 -24.7981 149.028c-13.2618 39.15 -19.7252 59.109 -26.9924 83.222c-47.2794 157.305 -71.2904 312.289 -71.2904 456.863
c0 60.13 4.154 118.46 12.517 174.41c18.5526 124.18 55.0226 233.42 113.194 339.05c2.27728 4.15002 2.47822 4.69006 2.57869 6.80005c0.0111792 0.189941 0.016683 0.380005 0.016683 0.579956c0 5.26001 -4.17997 9.14001 -8.94891 9.14001
c-1.27879 0 -2.59999 -0.280029 -3.89419 -0.880005z" />
    <glyph glyph-name="brace277" unicode="W" 
d="M-11.6313 1653.38c-3.3714 -1.10999 -4.1805 -2.13 -10.1816 -13.02c-121.505 -219.71 -188.696 -441.71 -199.181 -657.753c-0.944 -19.352 -1.07899 -24.712 -1.248 -50.065c-0.019989 -2.90497 -0.0299988 -5.80798 -0.0299988 -8.70801
c0 -132.58 21.111 -260.255 63.143 -381.699c23.026 -66.517 34.59 -120.257 39.108 -181.717c0.969002 -13.206 1.44801 -26.265 1.44801 -39.15c0 -132.349 -50.563 -246.367 -140.181 -312.79c-7.08002 -5.25937 -7.586 -5.96736 -7.586 -10.485
c0 -4.51766 0.505981 -5.22565 7.586 -10.485c89.618 -66.4227 140.181 -180.44 140.181 -312.789c0 -12.885 -0.479004 -25.944 -1.44801 -39.15c-4.55199 -61.764 -15.778 -113.919 -39.277 -182.223c-34.759 -101.074 -55.325 -207.172 -61.022 -314.551
c-1.38199 -26.364 -1.517 -32.264 -1.517 -64.73v0c0 -34.894 0.404007 -48.211 2.36 -79.565c12.508 -199.08 76.732 -410.84 186.336 -614.44c17.9441 -33.28 18.1474 -33.88 23.5791 -33.88h0.62747v0c5.66393 0 8.93418 3.23999 8.93418 8.93994v2.85999
l-4.92223 8.94006c-82.543 149.56 -123.946 323.72 -123.946 513.67c0 163.292 30.5951 338.258 91.9513 519.319c11.6313 34.321 12.373 36.614 16.5198 52.594c10.023 38.471 14.9901 77.619 14.9901 116.721c0 76.379 -18.9506 152.587 -56.1884 223.25
c-39.2088 74.406 -97.7368 142.003 -173.559 200.429c-3.439 2.62968 -6.237 4.92222 -6.237 5.09079v0c0 0.16857 2.798 2.46112 6.237 5.0908c75.822 58.4262 134.35 126.023 173.559 200.429c37.3036 70.765 56.1956 147.083 56.1956 223.351
c0 50.217 -8.18993 100.411 -24.7069 148.985c-29.3648 86.409 -45.4126 142.441 -61.2581 214.083c-25.2634 114.088 -37.8404 224.058 -37.8404 328.848c0 190.68 41.6478 364.18 124.283 514l4.92223 8.92993v2.87c0 5.28003 -4.15289 9.23999 -8.90424 9.23999
c-0.89568 0 -1.81266 -0.139893 -2.72706 -0.439941z" />
    <glyph glyph-name="brace278" unicode="X" 
d="M-12.1097 1664.4c-3.5297 -1.32007 -3.7673 -1.66003 -10.5892 -14.01c-133.737 -242.31 -201.244 -485.87 -201.244 -720.437c0 -130.821 20.997 -258.847 63.211 -382.305c23.079 -67.541 34.177 -117.263 39.132 -175.605c1.384 -16.225 2.069 -32.203 2.069 -47.894
c0 -134.778 -50.494 -248.454 -141.969 -316.247c-4.90399 -3.63156 -7.35599 -6.75403 -7.35599 -9.8765c0 -3.12246 2.452 -6.24493 7.35599 -9.87647c91.475 -67.793 141.969 -181.469 141.969 -316.246c0 -15.692 -0.685005 -31.67 -2.069 -47.895
c-4.989 -58.546 -15.985 -107.861 -39.336 -176.148c-41.753 -122.297 -62.611 -248.759 -62.611 -379.842c0 -28.107 0.959 -56.427 2.877 -84.968c13.915 -206.72 82.1 -424.72 198.412 -634.43c7.1274 -12.83 7.7383 -13.48 13.0329 -13.48
c5.12492 0 8.72254 3.32996 9.09588 8.34998c0.028476 0.359985 0.0463339 0.680054 0.0463339 0.98999c0 1.92004 -0.675681 3.35999 -3.71183 8.79004c-58.1051 104.19 -96.9666 222.74 -115.023 350.97c-7.55099 53.55 -11.292 109.27 -11.292 166.6
c0 170.738 33.1768 355.832 97.7372 540.773c17.656 50.574 26.476 102.711 26.476 154.92c0 54.374 -9.56671 108.826 -28.6821 161.671c-36.0441 99.545 -105.723 190.504 -203.164 265.206c-3.12199 2.37579 -5.668 4.48007 -5.668 4.61582v0
c0 0.13576 2.54601 2.24004 5.70201 4.61583c150.371 115.295 231.755 266.898 231.755 426.471c0 28.183 -2.53858 56.615 -7.68404 85.139c-3.7334 20.703 -10.6571 47.108 -17.3772 66.318c-57.6638 165.05 -91.0948 329.624 -98.0188 482.831
c-0.881989 19.75 -1.052 26.95 -1.25499 52.6c-0.0230103 3.22998 -0.0350037 6.43994 -0.0350037 9.66003c0 194.94 42.5538 370.14 126.563 520.89c2.62187 4.75 3.76047 7.29993 3.76047 9.46997c0 1.26001 -0.382074 2.40002 -1.07922 3.77002
c-1.52587 3.04993 -5.0998 5.06995 -8.44027 5.06995c-0.89481 0 -1.77281 -0.150024 -2.59021 -0.459961z" />
    <glyph glyph-name="brace279" unicode="Y" 
d="M-12.0829 1675.46c-3.8267 -1.32996 -5.0568 -3.27991 -23.0971 -36.97c-126.183 -235.58 -189.808 -472.4 -189.808 -701.267c0 -133.544 21.663 -264.382 65.2 -390.688c26.645 -77.287 39.679 -152.032 39.679 -221.196
c0 -133.492 -48.558 -246.193 -141.532 -316.256c-5.89401 -4.44176 -8.841 -7.70474 -8.841 -10.9677c0 -3.26299 2.94699 -6.52597 8.841 -10.9678c92.969 -70.0756 141.549 -182.923 141.549 -316.441c0 -69.139 -13.027 -143.821 -39.662 -220.977
c-39.156 -113.47 -59.076 -220.858 -64.303 -346.799c-0.616989 -14.818 -0.922989 -29.76 -0.922989 -44.812c0 -216.878 63.644 -456.778 181.156 -680.388c10.5919 -20.13 26.1381 -48.5499 27.5731 -50.36c1.7781 -2.30005 4.3178 -3.34998 6.86353 -3.34998
c4.05831 0 8.13214 2.67993 9.16096 7.27002c0.142026 0.630005 0.226814 1.19995 0.226814 1.78992c0 2.1001 -1.08112 4.45007 -4.49773 10.62c-84.1775 152.38 -126.504 327.83 -126.504 520.86c0 121.16 16.674 249.246 50.1402 382.898
c12.8811 51.559 25.7622 94.268 49.7477 165.199c16.4687 48.655 24.2246 93.961 24.9422 145.382c0.0305901 2.19299 0.0458698 4.384 0.0458698 6.57401c0 154.315 -75.8865 300.767 -214.788 414.334c-5.979 4.8517 -21.628 17.152 -23.78 18.6895l-0.684006 0.47835
l0.684006 0.47834c5.29601 3.72424 26.821 21.0471 37.31 30.0331c131.263 112.545 201.388 255.739 201.388 403.311c0 43.953 -6.22078 88.295 -18.8998 132.33c-1.8793 6.45801 -4.7835 15.375 -13.0861 39.771c-62.3073 183.124 -93.3643 360.805 -93.3643 526.941
c0 194.1 42.3864 372.44 126.848 525.31c3.41661 6.16992 4.49773 8.52002 4.49773 10.62c0 0.589966 -0.084788 1.15991 -0.226814 1.77991c-0.990326 4.43005 -4.66058 7.29004 -8.79959 7.29004c-1.0018 0 -2.0311 -0.169922 -3.0565 -0.52002z" />
    <glyph glyph-name="brace280" unicode="Z" 
d="M-11.0856 1686.97c-4.2652 -0.849976 -4.162 -0.719971 -18.0581 -26.14c-130.679 -238.84 -196.943 -483.59 -196.943 -718.77c0 -133.449 21.336 -263.816 64.345 -388.273c27.749 -80.304 41.318 -153.052 41.318 -223.363c0 -23.381 -1.501 -46.492 -4.479 -69.523
c-13.621 -105.596 -63.118 -195.371 -139.099 -252.366c-6.84497 -5.12506 -7.67099 -6.22575 -7.67099 -10.4221v0c0 -4.19636 0.826019 -5.29705 7.67099 -10.4222c93.797 -70.3296 143.486 -185.47 143.486 -320.816c0 -58.67 -9.337 -121.136 -28.465 -185.395
c-2.855 -9.49396 -6.019 -19.159 -15.753 -47.983c-40.875 -121.11 -61.172 -247.554 -61.172 -377.034c0 -232.483 65.437 -474.753 194.699 -713.503c8.7711 -16.2 14.3777 -26.11 15.5128 -27.3099c1.7973 -1.93005 4.1352 -2.82007 6.45499 -2.82007
c4.11735 0 8.17769 2.79004 9.05772 7.43005c0.115041 0.599976 0.181987 1.16003 0.181987 1.70996c0 2.10999 -0.958512 4.28003 -3.89679 9.54004c-85.0052 152.62 -128.004 330.98 -128.004 526.63c0 95.36 10.217 194.836 30.766 297.434
c17.3354 86.645 35.5655 152.858 69.9619 254.017c16.4959 48.589 24.9302 100.286 24.9302 151.882c0 17.474 -0.96736 34.935 -2.91657 52.261c-16.0631 142.951 -96.2066 274.964 -229.562 378.016c-4.334 3.37084 -7.91101 6.22574 -7.91101 6.36333
c0 0.13758 3.57701 2.99248 7.91101 6.36332c133.355 103.052 213.498 235.065 229.562 378.017c1.94921 17.325 2.91657 34.791 2.91657 52.27c0 51.612 -8.43433 103.335 -24.9302 151.872c-29.8905 87.883 -46.3319 145.29 -62.395 217.729
c-25.8249 116.536 -38.6739 229.036 -38.6739 336.246c0 196.23 43.042 374.75 128.345 527.89c2.16697 3.93005 3.50843 6.70996 3.7148 7.81006c0.116763 0.609985 0.172664 1.20996 0.172664 1.79993c0 5.02002 -4.07849 9.06006 -9.14429 9.06006
c-0.63069 0 -1.27669 -0.0600586 -1.93199 -0.200073z" />
    <glyph glyph-name="brace281" unicode="[" 
d="M-13.0826 1697.42c-2.9779 -1.42004 -2.9779 -1.39001 -16.1707 -25.66c-131.686 -242.02 -198.214 -486.58 -198.214 -722.242c0 -133.48 21.343 -264.108 64.277 -389.804c13.574 -39.648 19.945 -61.671 26.489 -91.242c10.465 -47.417 15.695 -93.12 15.695 -136.961
c0 -40.009 -4.356 -78.467 -13.063 -115.262c-20.187 -85.078 -66.345 -158.556 -129.366 -205.995c-9.211 -6.92535 -9.86899 -7.72176 -9.86899 -12.1886c0 -4.46687 0.65799 -5.26329 9.86899 -12.1887c91.655 -68.9464 142.372 -185.086 142.372 -321.721
c0 -19.206 -1.002 -38.817 -3.033 -58.759c-5.714 -56.338 -16.483 -102.877 -39.094 -168.979c-42.636 -124.797 -63.964 -253.855 -63.964 -386.881c0 -69.756 5.86501 -140.606 17.598 -212.516c28.048 -171.99 94.289 -355.65 189.79 -526.15
c4.3976 -7.82996 5.9559 -9.18005 10.6651 -9.18005v0c5.69514 0 8.83709 3.19006 8.83709 8.05005c0 2.5 -0.829901 5.43005 -2.56962 8.60999c-64.3022 116.73 -103.396 239.06 -120.848 377.92c-6.16499 49.08 -9.215 100.05 -9.215 152.39
c0 171.986 32.9291 358.85 96.5095 542.742c21.4687 62.0161 29.8484 108.936 29.8484 166.728c0 143.702 -62.086 276.531 -182.276 389.934c-13.851 13.089 -36.22 31.926 -53.949 45.4651c-3.082 2.35463 -5.60899 4.39762 -5.60899 4.53612
c0 0.13851 2.52699 2.1815 5.60899 4.53613c17.729 13.5391 40.098 32.3761 53.949 45.4651c120.337 113.58 182.275 246.381 182.275 390.083c0 12.394 -0.46077 24.87 -1.38459 37.421c-3.11643 42.418 -11.3576 79.642 -28.8096 130.197
c-58.1039 168.287 -91.5532 343.569 -95.9862 502.783c-0.367004 13.23 -0.55101 26.36 -0.55101 39.3899c0 199.27 43.0378 375.14 130.402 533.65c1.99111 3.59009 2.86764 5.88 2.86764 7.95007c0 1.02991 -0.215291 2.01001 -0.616895 3.05994
c-1.34744 3.54004 -4.86017 5.71008 -8.52355 5.71008c-1.32615 0 -2.67205 -0.290039 -3.94215 -0.890015z" />
    <glyph glyph-name="brace282" unicode="\" 
d="M-13.4242 1708.69c-2.5099 -1.31995 -3.0328 -2.08997 -8.9937 -12.8199c-124.202 -224.53 -193.607 -453.21 -204.866 -675.22c-1.255 -24.857 -1.394 -31.236 -1.394 -64.143v0c0 -33.918 0.138992 -39.182 1.603 -66.929
c6.06599 -115.697 27.295 -222.784 66.86 -337.61c25.76 -74.634 38.302 -146.359 38.302 -218.62c0 -1.957 -0.00899506 -3.914 -0.0270004 -5.87198c-0.209 -19.451 -0.313995 -22.693 -1.464 -36.776c-9.831 -120.298 -60.341 -219.263 -144.038 -282.114
c-7.00601 -5.26371 -7.599 -6.06547 -7.599 -10.5274s0.592987 -5.2637 7.599 -10.5274c83.697 -62.8507 134.207 -161.816 144.038 -282.114c1.15 -14.083 1.255 -17.325 1.464 -36.776c0.0180054 -1.96301 0.0270004 -3.92499 0.0270004 -5.88699
c0 -72.243 -12.509 -143.739 -38.268 -218.605c-6.30901 -18.336 -9.028 -26.458 -12.758 -38.345c-37.13 -117.85 -55.627 -239.544 -55.627 -363.751c0 -209.534 52.641 -426.214 157.276 -643.674c15.9654 -33.22 50.7895 -99.5601 55.0423 -104.93
c1.7405 -2.16992 4.2542 -3.20996 6.79191 -3.20996c3.5105 0 7.06684 1.97998 8.68547 5.62c0.482503 1.08997 0.77042 2.01001 0.77042 3.06006c0 2.37 -1.45897 5.41992 -5.44152 12.6599c-85.5529 155.39 -128.624 334.47 -128.624 531.29
c0 106.64 12.644 218.492 38.026 334.609c16.2094 74.179 33.1509 133.649 63.513 223.097c17.3226 50.996 25.8055 103.013 25.8055 154.755c0 137.553 -59.9518 273.165 -173.155 382.492c-21.334 20.5668 -54.275 48.698 -69.962 59.6786l-0.766998 0.55774
l0.766998 0.55775c7.355 5.12427 30.293 23.7389 43.26 35.103c130.294 113.923 199.824 258.178 199.824 406.644c0 44.378 -6.21222 89.132 -18.8707 133.565c-2.231 7.87897 -4.9848 16.21 -13.4207 40.96c-63.6464 186.722 -95.3684 368.1 -95.3684 537.791
c0 197.79 43.0977 379.7 128.972 535.69c5.01969 9.13 5.05455 9.27002 5.19399 11.71c0.00976901 0.190063 0.014583 0.369995 0.014583 0.550049c0 5.30005 -4.1962 9.13 -8.93843 9.13c-1.40132 0 -2.85032 -0.339966 -4.25282 -1.07007z" />
    <glyph glyph-name="brace283" unicode="]" 
d="M-12.1203 1720.61c-3.5795 -1.43994 -3.6146 -1.46997 -10.8085 -14.45c-137.507 -249.01 -207.167 -501.92 -207.167 -744.649c0 -133.223 20.984 -263.381 63.252 -388.145c18.705 -55.166 25.092 -77.941 32.601 -116.332
c8.10699 -41.424 12.08 -81.718 12.08 -120.357c0 -139.169 -51.547 -256.849 -147.186 -328.372c-6.35199 -4.7375 -7.47501 -6.31667 -7.47501 -10.2821c0 -3.96547 1.12302 -5.54464 7.47501 -10.2821c96.43 -72.0939 147.159 -189.748 147.159 -327.846
c0 -68.406 -12.447 -141.827 -37.951 -217.212c-13.686 -40.497 -19.897 -60.429 -27.267 -87.732c-28.251 -104.506 -42.337 -211.442 -42.337 -320.139c0 -212.651 53.908 -432.031 161.126 -653.151c16.8444 -34.78 49.7262 -96.89 53.0249 -100.19
c1.8234 -1.82996 4.0867 -2.65002 6.3166 -2.65002c4.46513 0 8.79648 3.30005 9.19435 8.47009c0.0292331 0.380005 0.0496724 0.719971 0.0496724 1.04993c0 2.01001 -0.786359 3.52002 -5.1381 11.41c-86.3353 156.84 -129.8 337.47 -129.8 535.85
c0 113.84 14.313 233.529 43.0511 357.924c15.546 67.308 31.2675 121.245 59.5171 204.239c17.0082 49.963 25.4737 102.06 25.4737 154.32c0 65.163 -13.1618 130.58 -39.3353 192.431c-39.5845 93.521 -108.928 179.709 -200.8 249.648
c-2.597 1.96519 -4.73799 3.71982 -4.73799 3.86019v0c0 0.14037 2.14099 1.895 4.73799 3.86018c155.675 118.457 240.201 277.203 240.201 441.368c0 44.959 -6.33945 90.324 -19.2933 135.379c-2.3863 8.31702 -4.6322 15.195 -11.5805 35.443
c-65.1061 190.112 -97.5711 374.371 -97.5711 546.547c0 198.01 42.9423 380.03 128.558 536.59l5.82538 10.7001c0.638815 1.21997 0.925774 2.48999 0.925774 3.73999c0 4.90002 -4.35511 9.53003 -9.22829 9.53003c-0.953711 0 -1.92731 -0.180054 -2.89201 -0.570068z
" />
    <glyph glyph-name="brace284" unicode="^" 
d="M-12.0791 1732.12c-3.8507 -1.44995 -4.31 -2.12 -21.1966 -33.49c-131.345 -243.54 -198.007 -490.85 -198.007 -729.236c0 -101.954 12.194 -202.275 36.736 -299.967c10.104 -40.273 16.463 -61.47 34.127 -113.578c25.315 -74.658 37.638 -147.82 37.638 -216.212
c0 -139.96 -51.609 -259.946 -149.098 -331.899c-4.70999 -3.4894 -6.94199 -6.5216 -6.94199 -9.7045c0 -1.32857 0.388977 -2.68338 1.14899 -4.10867c1.095 -2.08434 1.23599 -2.22565 6.74701 -6.32369c96.957 -72.4427 148.167 -191.504 148.167 -330.836
c0 -66.684 -11.73 -138.011 -35.789 -211.092l-7.101 -21.02c-43.489 -127.362 -65.325 -259.995 -65.325 -396.256c0 -43.607 2.237 -87.5969 6.716 -131.897c19.713 -195.08 85.105 -398.88 190.876 -595.02c10.1391 -18.7999 16.5334 -30.1699 17.6639 -31.34
c1.8036 -1.91003 4.1175 -2.78003 6.41134 -2.78003c4.40067 0 8.72795 3.18005 9.23885 8.21997c0.0413788 0.390015 0.0676119 0.75 0.0676119 1.10999c0 2.05005 -0.891673 3.90002 -4.87219 11.04c-87.1522 157.66 -131.076 340.13 -131.076 540.48
c0 114.19 14.268 234.179 42.933 358.687c14.6257 63.448 33.9147 130.607 55.1113 191.83c13.8132 39.92 20.0662 64.155 25.1887 97.681c3.74108 24.452 5.585 48.897 5.585 73.22c0 166.318 -86.2174 326.893 -241.645 444.473
c-2.65001 2.01369 -4.84001 3.78007 -4.84001 3.92139c0 0.14131 2.19 1.9077 4.84001 3.92138c155.428 117.58 241.645 278.155 241.645 444.473c0 24.323 -1.84392 48.769 -5.585 73.221c-5.1225 33.526 -11.3755 57.76 -25.1887 97.681
c-52.0378 150.32 -84.8573 307.493 -95.0313 455.021c-2.28101 33.02 -3.41701 65.62 -3.41701 97.78c0 201.01 44.4074 384.59 131.48 542.08c3.98052 7.14001 4.87219 8.98999 4.87219 11.05c0 0.349976 -0.0262331 0.709961 -0.0676119 1.09998
c-0.49447 4.73999 -4.74874 8.29004 -9.17433 8.29004c-0.94966 0 -1.90716 -0.170044 -2.83716 -0.52002z" />
    <glyph glyph-name="brace285" unicode="_" 
d="M-11.4421 1743.9c-3.6987 -0.920044 -4.4812 -1.88 -10.9895 -13.6901c-139.465 -252.3 -210.26 -508.01 -210.26 -754.193c0 -101.983 12.149 -202.329 36.599 -300.117c9.81601 -39.228 18.209 -67.573 31.652 -106.694c21.339 -62.131 32.897 -113.735 38.41 -171.599
c1.81 -19.039 2.70399 -37.769 2.70399 -56.131c0 -141.479 -53.083 -261.181 -149.408 -333.016c-6.86401 -5.1213 -7.57501 -6.1171 -7.57501 -10.4204v0c0 -4.30331 0.710999 -5.29912 7.57501 -10.4204c96.325 -71.8347 149.408 -191.537 149.408 -333.015
c0 -18.363 -0.893997 -37.093 -2.70399 -56.132c-5.51301 -57.863 -17.071 -109.468 -38.41 -171.599c-38.267 -111.424 -59.926 -221.816 -65.972 -336.263c-1.52901 -29.163 -1.60001 -32.541 -1.60001 -68.995v0c0 -36.485 0.106003 -40.725 1.636 -69.705
c11.7 -222.99 82.794 -456.15 207.91 -682.02c4.161 -7.54004 6.2238 -10.92 7.2196 -11.8101c1.6959 -1.52991 3.8196 -2.23999 5.9337 -2.23999c3.82668 0 7.62165 2.32007 8.78999 6.26001c0.325428 1.09998 0.523812 1.97998 0.523812 2.89001
c0 2.17004 -1.13116 4.47998 -4.36478 10.27c-87.9109 157.13 -132.539 343.06 -132.539 546.41c0 97 10.155 197.965 30.611 301.66c17.747 89.943 36.9162 160.005 72.5163 265.133c17.5677 51.903 26.3967 104.947 26.3967 158.261
c0 17.705 -0.9736 35.439 -2.92414 53.171c-16.3952 149.122 -100.043 286.756 -239.065 393.308c-3.272 2.48952 -5.939 4.69452 -5.939 4.83678s2.66699 2.34726 5.97501 4.83677c157.053 120.409 242.006 280.236 242.006 445.887
c0 45.276 -6.34624 90.987 -19.301 136.447c-2.3117 8.073 -5.228 17.0359 -13.5145 41.255c-64.4023 188.726 -97.0103 374.355 -97.0103 551.995c0 2.85999 0.00900269 5.72009 0.026001 8.57007c0.177994 30.27 0.354996 37.2 1.31599 57.1899
c8.64201 176.12 54.0578 342.17 131.446 480.51c3.23362 5.77002 4.36478 8.08997 4.36478 10.24c0 0.900024 -0.198384 1.77002 -0.523812 2.84998c-1.11577 3.77002 -4.86525 6.34009 -8.79843 6.34009c-0.705461 0 -1.41676 -0.0800781 -2.11986 -0.26001z" />
    <glyph glyph-name="brace286" unicode="`" 
d="M-11.178 1755.58c-3.7593 -0.75 -4.3321 -1.46997 -10.4902 -12.5299c-140.086 -251.78 -212.23 -511.85 -212.23 -760.801c0 -56.138 3.668 -111.711 11.053 -166.496c11.601 -86.177 29.287 -159.86 59.576 -248.293c26.465 -77.305 39.362 -152.849 39.362 -223.301
c0 -141.994 -52.39 -263.299 -151.675 -336.62c-4.565 -3.34757 -6.84698 -6.43557 -6.84698 -9.52357c0 -3.08799 2.28198 -6.17599 6.84698 -9.5236c99.285 -73.3212 151.675 -194.641 151.675 -336.636c0 -70.451 -12.897 -145.992 -39.362 -223.285
c-24.31 -70.925 -39.633 -129.32 -51.198 -194.946c-12.734 -72.32 -19.089 -145.475 -19.089 -219.326c0 -219.729 56.26 -445.619 168.137 -673.959c13.8915 -28.3199 46.6153 -90.0399 49.4079 -93.23c1.7757 -1.97998 4.18 -2.89001 6.58411 -2.89001
c4.18833 0 8.37644 2.75 9.2408 7.30005c0.116004 0.619995 0.186494 1.17993 0.186494 1.75c0 2.22998 -1.09322 4.55994 -4.80506 11.24c-88.4992 159.55 -133.113 345.26 -133.113 548.84c0 125.62 16.984 258.036 51.1244 395.32
c14.2137 57.177 28.0336 103.184 53.0956 176.938c17.7138 52.1201 26.3466 105.177 26.3466 157.906c0 165.537 -85.0827 327.842 -241.379 447.807c-4.65401 3.58028 -8.485 6.58772 -8.485 6.69513v0c0 0.10741 3.83099 3.11485 8.485 6.69514
c89.579 68.7773 158.213 153.666 198.419 245.536c28.4051 64.923 42.7063 133.672 42.7063 202.244c0 53.381 -8.66693 106.655 -26.0938 157.933c-29.1077 85.64 -45.2906 141.349 -61.1513 210.342c-29.0217 126.289 -43.4577 248.184 -43.4577 364.224
c0 205.2 45.1443 392.07 134.612 552.51c2.753 4.93994 3.68363 7.07996 3.68363 9.20996c0 0.550049 -0.0636322 1.10999 -0.174953 1.71008c-0.842516 4.3999 -4.59503 7.35999 -9.00574 7.35999c-0.65002 0 -1.31437 -0.0700684 -1.98577 -0.200073z" />
    <glyph glyph-name="brace287" unicode="a" 
d="M-13.0835 1766.45c-2.523 -1.29993 -2.6312 -1.43994 -9.8758 -14.6c-127.051 -229.66 -198.956 -467.44 -210.238 -695.08c-1.153 -23.39 -1.297 -29.27 -1.51399 -56.77c-0.0240021 -3.40198 -0.0370026 -6.79602 -0.0370026 -10.182
c0 -115.621 14.369 -222.958 44.658 -334.207c6.92099 -25.338 13.733 -47.216 25.014 -80.376c27.534 -80.88 41.046 -155.2 41.046 -227.182c0 -24.507 -1.566 -48.742 -4.679 -72.874c-14.453 -112.309 -67.508 -207.858 -148.676 -267.87
c-5.04599 -3.74845 -6.091 -5.33433 -6.091 -9.29904c0 -3.9647 1.04501 -5.55059 6.091 -9.29905c99.167 -73.3218 153.251 -194.964 153.251 -339.555c0 -25.992 -1.748 -52.726 -5.29599 -80.055c-6.41501 -49.523 -16.904 -93.098 -35.646 -148.316
c-29.231 -85.998 -45.846 -155.308 -57.813 -240.946c-5.586 -39.971 -8.64999 -75.582 -10.921 -127.411c-0.306 -7.02795 -0.459 -25.807 -0.459 -44.6349c0 -18.8231 0.153 -37.7031 0.459 -44.933c4.037 -94.1799 14.382 -172.68 34.277 -260.41
c34.349 -151.38 94.216 -305.42 176.574 -454.32c7.2807 -13.22 7.3888 -13.33 9.9839 -14.59c1.4678 -0.72998 2.951 -1.07007 4.36391 -1.07007c4.69355 0 8.61149 3.71008 8.61149 9.14001v0v3.09998l-4.39722 7.93005c-89.2919 161.38 -134.291 347.94 -134.291 552.81
c0 116.97 14.672 239.917 44.1478 367.541c15.9669 69.238 31.9699 124.167 60.9844 209.228c17.2508 50.619 26.0259 104.557 26.0259 158.612c0 25.003 -1.87738 50.03 -5.66182 74.765c-21.8779 143.415 -105.1 274.682 -239.468 377.729
c-3.172 2.41487 -5.767 4.54139 -5.767 4.68556v0c0 0.14417 2.595 2.2707 5.767 4.68556c158.852 121.833 245.206 283.245 245.206 451.98c0 32.185 -3.1419 64.637 -9.5218 97.132c-4.9379 25.121 -10.3443 44.224 -22.2745 78.753
c-65.6994 190.105 -99.8024 384.859 -99.8024 564.029c0 55.35 3.25499 109.22 9.84 161.01c18.273 143.63 60.0109 274.61 124.816 391.75l4.39722 7.93005v3.09998c0 5.42004 -3.99613 9.15002 -8.70737 9.15002c-1.42363 0 -2.91253 -0.340088 -4.37613 -1.08008z" />
    <glyph glyph-name="brace288" unicode="b" 
d="M-12.4101 1778.7c-1.8505 -0.649902 -3.955 -2.76001 -5.4427 -5.43994c-35.74 -64.52 -61.8284 -117.17 -87.1182 -175.8c-87.493 -202.86 -131.387 -404.67 -131.387 -600.536c0 -143.012 23.402 -282.85 70.32 -417.603
c27.664 -79.444 41.148 -157.238 41.148 -229.781c0 -142.585 -52.091 -264.884 -150.98 -339.556c-8.78101 -6.64002 -9.616 -7.65598 -9.616 -11.9375c0 -4.28155 0.834991 -5.29751 9.616 -11.9375c98.889 -74.6719 150.98 -197.035 150.98 -339.62
c0 -72.544 -13.484 -150.322 -41.148 -229.717c-46.701 -133.994 -69.972 -273.084 -69.972 -415.356c0 -212.666 51.996 -432.436 155.458 -652.926c21.444 -45.65 60.8487 -121.12 65.5294 -125.4c1.7965 -1.65991 3.8955 -2.39001 5.94506 -2.39001
c4.66598 0 9.07562 3.82007 9.07562 9.30005c0 0.280029 -0.0115648 0.569946 -0.0352522 0.859985c-0.145137 1.98999 -0.580549 2.96997 -5.0798 11.0601c-89.5182 161.56 -134.741 350 -134.741 556.43c0 111.02 13.08 227.239 39.386 347.27
c17.2712 78.773 34.3611 138.751 66.4727 233.054c17.3461 50.958 26.0345 104.744 26.0345 158.823c0 49.541 -7.29144 99.329 -21.8981 147.416c-35.4497 116.69 -114.731 225.144 -226.341 309.65c-2.32199 1.77793 -4.246 3.33815 -4.246 3.48329v0
c0 0.14514 1.92401 1.70536 4.246 3.48329c111.61 84.5062 190.891 192.96 226.341 309.65c14.6122 48.083 21.9044 97.831 21.9044 147.344c0 54.133 -8.7165 107.986 -26.1133 159.077c-36.9375 108.49 -57.4744 183.889 -75.5802 277.03
c-20.439 105.25 -30.602 207.359 -30.602 305.389c0 207.2 45.4052 396.19 135.137 558.14c4.49925 8.08997 4.93466 9.06995 5.0798 11.0699c0.0249551 0.300049 0.0371718 0.599976 0.0371718 0.890015c0 5.31995 -4.04557 9.18005 -8.99333 9.18005
c-1.10557 0 -2.25617 -0.190063 -3.41677 -0.600098z" />
    <glyph glyph-name="brace289" unicode="c" 
d="M-12.9202 1790.38c-3.1414 -1.45996 -3.5066 -2.07996 -18.1907 -29.08c-123.718 -227.71 -193.741 -463.75 -204.992 -690.91c-1.105 -22.4 -1.658 -44.67 -1.658 -66.82c0 -143.32 23.176 -281.566 70.001 -417.866c24.912 -72.507 36.674 -129.417 41.459 -200.572
c0.522003 -7.85699 0.771004 -17.42 0.771004 -27.694c0 -22.067 -1.15 -47.415 -3.21899 -66.182c-12.967 -118.604 -65.822 -218.47 -148.63 -280.896c-9.168 -6.90373 -10.045 -7.96302 -10.045 -12.2367c0 -4.27371 0.877014 -5.33301 10.045 -12.2367
c82.808 -62.4254 135.663 -162.291 148.63 -280.896c2.06899 -18.767 3.21899 -44.115 3.21899 -66.181c0 -10.275 -0.249001 -19.838 -0.771004 -27.694c-4.749 -71.01 -16.584 -128.248 -41.313 -200.207c-42.226 -122.769 -63.448 -237.136 -69.037 -372.361
c-0.479996 -11.397 -0.710999 -24.871 -0.710999 -39.298c0 -27.26 0.826004 -57.92 2.355 -84.35c13.26 -227.2 87.155 -466.82 214.124 -694.57c4.6246 -8.2699 7.5873 -11.6 11.3193 -11.6c1.30862 0 2.71184 0.410034 4.31447 1.16003
c3.46683 1.62 5.19329 3.98999 5.19329 7.25c0 2.41003 -0.941537 5.29993 -2.81901 8.70996c-85.8029 155.83 -129.453 319.87 -137.416 516.46c-0.311005 7.68994 -0.466003 27.97 -0.466003 48.2899c0 20.3201 0.154999 40.67 0.466003 48.51
c7.049 177.339 39.559 342.845 104.359 531.29c18.4996 53.817 27.7235 109.243 27.7235 164.701c0 66.198 -13.1425 132.44 -39.3392 196.044c-6.4288 15.633 -18.8847 41.714 -25.2039 52.745l-6.8306 12.054c-40.2533 71.192 -106.148 144.539 -178.327 198.527
c-2.55701 1.89942 -4.63901 3.54316 -4.63901 3.65274v0c0 0.10958 2.082 1.75331 4.63901 3.65274c72.179 53.9875 138.074 127.335 178.327 198.527l6.8306 12.054c3.4336 6.02701 14.7571 28.82 18.9212 38.135c30.3362 67.742 45.5922 139.174 45.5922 210.592
c0 55.509 -9.21588 111.009 -27.7303 164.763c-70.314 204.282 -105.606 398.873 -105.606 581.213c0 80.61 6.89799 158.84 20.716 234.44c21.8802 119.81 60.2705 228.08 117.984 332.92c2.30123 4.15991 2.73956 5.17993 2.84914 7.04993
c0.0174586 0.22998 0.0260192 0.469971 0.0260192 0.700073c0 5.19995 -4.25823 9.09998 -9.03384 9.09998c-1.28226 0 -2.60186 -0.280029 -3.88636 -0.890015z" />
    <glyph glyph-name="brace290" unicode="d" 
d="M-11.5832 1802.65c-3.5302 -1.14001 -4.1921 -1.95007 -9.8182 -12.17c-144.533 -261.21 -217.686 -526.19 -217.686 -780.88c0 -139.672 22.001 -276.25 66.295 -407.413l9.15601 -27.211c25.136 -75.194 37.621 -149.902 37.621 -220.273
c0 -86.933 -19.054 -167.247 -56.853 -233.679c-25.262 -44.3476 -58.431 -82.5907 -96.6 -111.236c-8.789 -6.58222 -9.23001 -7.09703 -9.63501 -10.9949c-0.0580139 -0.55473 -0.0920105 -1.06483 -0.0920105 -1.54447c0 -3.4629 1.78302 -5.33812 9.21201 -10.9581
c99.392 -75.0231 154.029 -198.782 154.029 -344.847c0 -19.458 -0.970001 -39.312 -2.932 -59.499c-5.884 -60.196 -17.725 -112.376 -40.634 -178.713c-46.157 -133.67 -69.082 -272.962 -69.082 -415.411c0 -253.61 72.67 -517.23 216.281 -776.93
c7.3544 -13.34 7.9428 -13.97 13.3115 -13.97v0c5.58937 0 8.97241 3.41992 9.00918 9.01001v2.75989l-5.36874 9.74011c-90.8371 164.72 -136.658 355.42 -136.658 564.31c0 115.48 14.006 236.521 42.1538 361.799c16.9887 75.677 33.573 133.299 64.6455 224.678
c17.9027 52.644 26.8092 107.422 26.8092 162.314c0 70.371 -14.6378 140.931 -43.7244 207.43c-6.2881 14.415 -16.5107 35.228 -21.8795 44.531l-5.5893 9.892c-41.0373 72.809 -110.537 150.03 -182.132 202.394c-1.48502 1.09978 -2.23001 1.57827 -2.23001 2.05485
c0 0.47951 0.753998 0.95709 2.26599 2.06364c71.559 52.3636 141.059 129.585 182.096 202.394l5.5893 9.89201c3.0889 5.36899 10.5904 20.114 15.0031 29.454c33.679 71.339 50.6576 146.992 50.6576 222.513c0 54.926 -8.98095 109.783 -27.0499 162.86
c-24.8212 72.919 -39.1991 120.759 -53.3564 177.241c-35.804 142.863 -53.628 280.51 -53.628 411.06c0 209.48 45.8907 400.72 137.027 565.98l5.36874 9.73999v2.76001c-0.0310564 5.25 -4.23252 9.28992 -8.94932 9.28992
c-0.86811 0 -1.75368 -0.140015 -2.63388 -0.429932z" />
    <glyph glyph-name="brace291" unicode="e" 
d="M-12.2276 1814.66c-2.8875 -0.890015 -4.1831 -2.56006 -9.847 -12.74c-144.895 -261.62 -218.469 -527.57 -218.469 -784.04c0 -107.589 12.946 -213.507 39.004 -316.743c9.476 -37.536 17.435 -64.412 30.355 -102.504c7.88499 -23.285 10.698 -31.947 14.067 -43.127
c20.089 -67.139 30.289 -134.584 30.289 -198.593c0 -30.47 -2.311 -60.161 -6.96799 -88.671c-17.768 -108.723 -69.631 -199.27 -148.074 -258.611c-7.19901 -5.43715 -9.457 -7.76423 -9.457 -11.0087c0 -0.77587 0.128998 -1.60421 0.351013 -2.54009
c0.703003 -3.07254 1.629 -4.03502 9.10599 -9.69884c100.609 -76.1008 154.92 -199.593 154.92 -347.704c0 -26.387 -1.72401 -53.556 -5.217 -81.378c-5.812 -46.569 -17.25 -95.359 -33.687 -144.002c-8.847 -26.246 -15.325 -45.903 -18.435 -56.194
c-37.223 -122.223 -55.853 -248.602 -55.853 -377.425c0 -107.54 12.984 -216.79 38.973 -326.74c34.279 -145 91.695 -293.56 167.768 -434.04c12.2531 -22.66 16.5102 -30.1 17.991 -31.54c1.7767 -1.71997 3.8904 -2.46997 5.97297 -2.46997
c4.78004 0 9.39582 3.93994 9.39582 9.12c0 0.790039 -0.107802 1.60999 -0.339295 2.44995c-0.222111 0.780029 -1.92497 4.19006 -3.81291 7.59009c-66.6334 119.28 -110.759 257.87 -129.231 405.58c-6.532 52.37 -9.778 107.55 -9.778 164.18
c0 84.58 7.241 172.4 21.587 258.939c18.916 113.98 42.867 206.785 85.8826 332.796c17.9469 52.595 26.8527 107.589 26.8527 162.758c0 75.925 -16.8669 152.182 -50.2484 222.976c-6.7744 14.4 -10.5503 21.655 -18.9535 36.648
c-42.8674 76.48 -103.133 144.557 -181.02 204.49c-3.776 2.92447 -6.849 5.44173 -6.849 5.5898c0 0.14808 3.073 2.66534 6.849 5.5898c81.959 63.0796 140.781 130.823 187.425 215.966c41.4009 75.53 62.5801 161.794 62.5801 247.827
c0 55.433 -8.79303 110.771 -26.6351 163.079c-27.6899 81.182 -43.904 136.006 -59.0076 199.53c-33.039 138.805 -48.795 265.951 -48.795 393.271c0 3.78003 0.0140076 7.55994 0.0420074 11.34c0.222 27.03 0.406998 35.0601 1.36899 56.08
c8.51501 184.25 56.3055 359.42 137.894 505.34c3.1205 5.59998 4.23163 7.82996 4.23163 9.94995c0 0.900024 -0.199344 1.79004 -0.529776 2.90002c-1.1298 3.80994 -4.74307 6.22998 -8.7301 6.22998c-0.97712 0 -1.97672 -0.150024 -2.96772 -0.449951z" />
    <glyph glyph-name="brace292" unicode="f" 
d="M-11.1176 1826.94c-4.5092 -1.07996 -3.9875 -0.339966 -18.3351 -26.61c-126.147 -231.09 -198.221 -471.64 -210.369 -702.1c-1.528 -29.4399 -1.67699 -35.59 -1.67699 -72.86v0c0 -36.258 0.148987 -42.407 1.52699 -69.127
c6.187 -120.482 28.919 -239.139 67.229 -351.237c18.783 -54.894 27.205 -86.347 35.18 -131.067c6.916 -38.836 10.303 -76.817 10.303 -113.491c0 -149.276 -56.107 -276.912 -158.661 -352.601c-4.854 -3.58933 -7.27701 -6.74246 -7.27701 -9.89475
c0 -3.1644 2.44101 -6.32795 7.314 -9.93109c102.523 -75.6883 158.624 -203.347 158.624 -352.611c0 -36.674 -3.38599 -74.651 -10.303 -113.482c-7.938 -44.683 -16.472 -76.359 -35.18 -131.067c-38.161 -111.539 -60.744 -229.674 -66.893 -349.746
c-1.342 -26.87 -1.491 -32.907 -1.491 -68.575c0 -35.62 0.112 -41.1801 1.528 -68.9401c11.478 -230.53 83.626 -472.17 210.146 -703.96c13.0805 -23.97 13.3787 -24.4501 15.8755 -25.76c1.4176 -0.719971 2.9041 -1.06006 4.35201 -1.06006
c4.18544 0 8.04803 2.83008 8.98944 7.29004c0.13249 0.589966 0.214098 1.12 0.214098 1.69006c0 2.28992 -1.34716 5.05994 -6.10221 13.74c-91.9508 167.64 -138.203 360.29 -138.203 571.34c0 132.38 18.197 271.999 54.726 417.226
c14.1986 56.534 28.3226 103.192 53.8502 178.246c17.7994 52.313 26.6808 107.499 26.6808 162.935c0 60.63 -10.6238 121.561 -31.8236 179.359c-8.6458 23.59 -22.0245 53.552 -31.3039 70.247l-6.6334 11.926c-41.5521 74.533 -102.334 143.662 -177.911 202.357
c-4.76999 3.68938 -9.242 7.15517 -9.94998 7.75144l-1.26703 1.0062l1.30502 1.04346l9.875 7.67691c75.689 58.8066 136.359 127.824 177.948 202.395l6.6334 11.925c9.2794 16.695 22.6581 46.658 31.3039 70.247c21.1998 57.799 31.8236 118.749 31.8236 179.389
c0 55.444 -8.88139 110.628 -26.6808 162.905c-30.1859 88.657 -46.6577 145.153 -63.1668 216.519c-30.5584 132.287 -45.7754 259.756 -45.7754 381.116c0 211.96 46.4104 405.31 138.569 573.28c3.16766 5.77991 5.66452 10.8099 5.92538 11.85
c0.134553 0.609985 0.198488 1.21997 0.198488 1.81995c0 4.87 -4.23649 9.08008 -9.10456 9.08008c-0.66234 0 -1.33634 -0.0800781 -2.01304 -0.240112z" />
    <glyph glyph-name="brace293" unicode="g" 
d="M-13.0793 1838.5c-2.4761 -1.13 -3.5641 -2.73999 -9.6417 -13.73c-146.185 -264.61 -220.445 -533.67 -220.445 -792.94c0 -107.952 12.874 -214.205 38.791 -317.731c10.73 -42.881 19.884 -73.607 35.378 -118.552c27.634 -80.144 41.092 -158.872 41.092 -232.537
c0 -147.752 -54.138 -275.134 -156.604 -352.716c-9.67899 -7.3532 -10.13 -7.87843 -10.13 -12.3804v0c0 -4.50195 0.451019 -5.02717 10.13 -12.3803c102.494 -77.6094 156.607 -204.853 156.607 -352.602c0 -73.657 -13.449 -152.411 -41.057 -232.651
c-10.88 -31.5891 -16.47 -49.109 -23.598 -74.095c-33.512 -117.435 -50.209 -237.992 -50.209 -360.635c0 -226.92 57.163 -460.99 170.749 -695.63c17.6326 -36.39 52.5602 -102.5 56.2743 -106.51c1.7032 -1.84009 4.0786 -2.69006 6.4643 -2.69006
c3.7625 0 7.5505 2.12 8.76731 5.84009c0.326776 0.97998 0.511385 1.85999 0.511385 2.79993c0 2.39001 -1.20893 5.12 -4.33804 10.7001c-93.9394 169.01 -141.057 365.15 -141.057 579.13c0 184.58 35.063 382.45 105.379 587.629
c21.0782 61.479 30.7885 115.305 30.7885 173.794c0 13.966 -0.553639 28.197 -1.63839 42.863c-11.7801 160.419 -103.62 316.524 -252.522 429.373c-3.564 2.70117 -6.452 4.95214 -6.452 5.06469c0 0.11255 2.888 2.40104 6.452 5.0647
c148.902 112.849 240.742 268.954 252.522 429.374c1.08475 14.665 1.63839 28.897 1.63839 42.863c0 58.489 -9.71029 112.315 -30.7885 173.793c-54.6236 159.444 -87.15 308.534 -100.056 459.012c-4.05199 47.5699 -5.43999 80.58 -5.43999 131.31
c0.0379944 217.1 47.3834 411.85 141.174 580.56c3.12911 5.57996 4.33804 8.31995 4.33804 10.71c0 0.930054 -0.184609 1.82007 -0.511385 2.80005c-1.16109 3.53992 -5.05843 5.88 -8.91656 5.88c-1.25296 0 -2.50176 -0.25 -3.65136 -0.780029z" />
    <glyph glyph-name="brace294" unicode="h" 
d="M-12.1234 1851.15c-3.0969 -0.940063 -3.4746 -1.58008 -15.3336 -23.22c-136.756 -249.91 -209.383 -503.22 -216.37 -754.6c-0.182999 -6.58997 -0.266006 -17.4099 -0.266006 -29.2c0 -19.97 0.238998 -42.69 0.643005 -52.188
c6.00499 -139.438 28.024 -258.594 70.852 -383.341c19.45 -56.689 30.516 -100.688 37.39 -148.615c4.67099 -32.776 7.008 -64.557 7.008 -95.347c0 -42.9 -4.537 -83.879 -13.617 -122.95c-22.585 -97.062 -72.967 -177.545 -145.33 -232.195
c-8.49799 -6.42048 -8.95099 -7.02476 -8.95099 -11.5946c0 -4.56988 0.453003 -5.17416 8.95099 -11.5946c88.867 -67.113 143.895 -172.522 156.282 -299.232c1.72 -17.718 2.65001 -40.236 2.65001 -60.515c0 -10.456 -0.247009 -20.317 -0.761002 -28.617
c-2.606 -42.224 -7.51601 -77.046 -16.656 -117.91c-7.138 -31.989 -12.727 -50.949 -30.063 -102.086c-37.73 -111.188 -60.428 -231.364 -66.395 -351.616c-1.17101 -23.907 -1.36 -30.819 -1.586 -57.599c-0.029007 -3.57996 -0.0429993 -7.16992 -0.0429993 -10.76
c0 -257.81 73.524 -525.16 216.262 -785.94c12.0856 -22.0601 12.2367 -22.3201 15.7113 -23.27c1.0302 -0.280029 2.0322 -0.410034 2.98854 -0.410034c5.00376 0 8.75716 3.64001 8.75716 9.06006v3.28992l-3.62569 6.42004
c-67.0752 118.66 -113.453 263.84 -132.3 414.31c-6.76001 53.83 -10.113 110.77 -10.113 169.14c0 90 7.97101 183.41 23.71 274.059c18.393 106.052 42.5261 200.848 77.0079 302.707c14.5028 42.791 15.107 44.755 20.3945 65.716
c10.4358 41.312 15.6627 83.961 15.6627 126.706c0 35.995 -3.70659 72.06 -11.1306 107.453c-28.7033 136.794 -112.018 262.56 -239.635 361.851c-4.267 3.32357 -8.535 6.60935 -9.517 7.28917c-1.11401 0.79312 -1.67099 1.17079 -1.67099 1.54847
c0 0.37767 0.556976 0.75535 1.67099 1.54847c43.055 30.8561 95.967 81.9934 133.81 129.316c83.2739 104.086 126.54 225.665 126.54 347.761c0 56.046 -9.11637 112.201 -27.6644 166.823c-62.2032 183.135 -93.8148 330.844 -105.712 493.622
c-2.66299 36.52 -3.985 72.72 -3.985 108.52c0 218 49.0482 420.83 142.932 587.35l3.58792 6.42004l0.0377676 3.28003c0 5.39001 -3.94234 9.10999 -8.9254 9.10999c-1.03007 0 -2.1046 -0.160034 -3.198 -0.5z" />
    <glyph glyph-name="brace295" unicode="i" 
d="M-11.4442 1863.61c-3.4219 -0.869995 -4.4104 -2.16003 -11.6343 -15.24c-147.097 -266.12 -222.629 -539.74 -222.629 -802.24c0 -62.432 4.27199 -124.234 12.87 -185.158c12.623 -89.539 30.835 -164.933 61.555 -254.738
c28.502 -83.43 42.436 -164.375 42.436 -239.668c0 -150.895 -55.962 -279.094 -162.771 -359.118c-5.47498 -4.10622 -6.46298 -5.551 -6.46298 -9.54317c0 -3.99216 0.988007 -5.43694 6.46298 -9.54317c106.809 -80.0244 162.771 -208.189 162.771 -359.084
c0 -75.293 -13.934 -156.246 -42.436 -239.702c-31.443 -91.972 -50.567 -172.423 -62.506 -262.722c-7.645 -57.752 -11.45 -116.195 -11.45 -175.153c0 -237.46 61.736 -483.23 182.961 -725.56c15.8926 -31.8201 39.5794 -76.34 45.3966 -85.35
c2.0741 -3.23999 5.1731 -4.71008 8.15192 -4.71008c4.50188 0 8.72918 3.35999 8.72918 9.08008l-0.0380206 2.84998l-5.70309 10.46c-94.3149 172.15 -141.665 370.71 -141.665 586.56c0 173.1 30.452 357.324 91.5538 547.973l18.9342 56.46
c18.2227 53.671 27.339 110.187 27.339 166.902c0 55.7 -8.7931 111.593 -26.3885 165.17c-10.2275 31.063 -25.0936 65.7 -38.9711 90.831l-6.3494 11.483c-41.937 75.775 -108.853 150.979 -186.681 209.835c-2.85202 2.16717 -5.20901 4.0682 -5.20901 4.22028v0
c0 0.15209 2.35699 2.05312 5.20901 4.22029c77.828 58.8558 144.782 134.098 186.681 209.835l6.1593 11.102c43.2028 78.04 65.3251 167.4 65.3251 256.517c0 56.679 -8.9488 113.26 -27.1144 166.767c-19.3145 56.84 -27.4128 82.276 -38.0966 119.574
c-48.5844 169.627 -72.7744 333.28 -72.7744 487.83c0 216.64 47.526 415.42 142.01 587.77l5.74111 10.46l0.0380206 2.84998c0 5.23999 -4.08714 9.09009 -9.00926 9.09009c-0.79445 0 -1.61064 -0.100098 -2.43494 -0.310059z" />
    <glyph glyph-name="brace296" unicode="j" 
d="M-11.4619 1876.16c-3.6362 -0.840088 -3.9806 -1.26001 -11.6357 -15.0801c-130.021 -234.05 -206.227 -481.08 -221.154 -716.89c-1.90401 -30.1399 -2.856 -60.1 -2.856 -89.8999c0 -149.3 23.89 -294.273 71.56 -433.899c2.985 -8.72699 6.392 -18.717 7.502 -22.2
c25.861 -78.603 38.467 -155.417 38.467 -227.379c0 -152.129 -56.34 -282.57 -162.9 -362.367c-5.397 -4.05718 -8.095 -7.23403 -8.095 -10.4109c0 -3.17685 2.698 -6.3537 8.095 -10.4109c106.578 -79.8043 162.95 -210.733 162.95 -362.783
c0 -73.8 -13.28 -152.575 -40.546 -232.895c-12.784 -37.701 -18.448 -55.499 -24.993 -78.273c-34.479 -120.361 -51.66 -243.954 -51.66 -369.692c0 -226.56 55.786 -460.08 166.677 -694.17c23.08 -48.76 61.5849 -121.6 65.7952 -124.43
c1.876 -1.28003 3.7487 -1.83997 5.48465 -1.83997c4.7327 0 8.44964 4.16992 8.44964 9.41992c0 2.01001 -0.549204 4.19006 -1.80103 6.3501c-3.06202 5.35999 -11.674 21.3999 -17.3387 32.4199c-75.632 146.63 -118.386 311.9 -127.342 492.22
c-1.18701 23.7301 -1.37801 33.15 -1.37801 71.5701v0c0 38.28 0.153 46.62 1.339 71.96c7.88499 167.23 44.132 349.187 103.956 521.885c12.7074 36.744 19.7118 62.542 24.8024 91.478c5.4739 31.14 8.17501 62.228 8.17501 93.086
c0 168.079 -80.135 329.326 -228.794 454.863c-8.918 7.5019 -22.812 18.64 -30.238 24.2282c-3.483 2.60272 -6.315 4.86096 -6.315 5.01406c0 0.1531 2.832 2.41135 6.315 5.01406c7.42599 5.5882 21.32 16.7264 30.238 24.2282
c148.658 125.537 228.794 286.783 228.794 454.862c0 30.858 -2.70111 61.947 -8.17501 93.087c-5.1289 29.204 -11.9419 54.274 -25.1852 92.626c-26.7544 77.469 -49.1837 157.924 -66.0633 237.115c-26.426 123.953 -39.599 243.713 -39.599 358.253
c0 190.38 36.391 366.32 108.801 523.04l11.674 24.49c5.6647 11.75 18.219 35.71 25.1851 48.11c2.3556 4.18005 3.271 6.45007 3.271 8.62c0 0.619995 -0.0736495 1.22998 -0.208972 1.87c-0.935678 4.35999 -4.48239 7.10999 -8.78303 7.10999
c-0.801141 0 -1.6284 -0.0999756 -2.4699 -0.299927z" />
    <glyph glyph-name="brace297" unicode="k" 
d="M-11.3989 1888.45c-3.8917 -1.07996 -4.2 -1.46997 -12.5614 -16.6499c-148.201 -267.85 -224.58 -545.44 -224.58 -811.47c0 -61.1279 4.03299 -121.647 12.155 -181.296c12.908 -94.634 30.94 -169.385 65.388 -270.685
c27.478 -80.825 40.865 -160.179 40.865 -234.552c0 -151.727 -55.716 -282.723 -161.161 -363.19l-7.552 -5.85681c-2.10001 -1.69539 -3.14999 -4.31555 -3.14999 -6.9357c0 -2.62016 1.04999 -5.24031 3.14999 -6.93571l7.552 -5.85678
c105.445 -80.4676 161.161 -211.412 161.161 -363.14c0 -74.372 -13.387 -153.739 -40.865 -234.602c-12.754 -37.569 -17.763 -53.213 -24.352 -76.1c-28.437 -98.68 -45.275 -198.362 -50.669 -299.584c-1.61899 -31.096 -1.73399 -35.606 -1.73399 -75.326
c0 -38.6901 0.115005 -43.89 1.541 -72.25c11.097 -217.43 73.249 -441.84 183.218 -661.78c17.0696 -34.1 43.695 -83.89 47.0472 -87.97c1.7515 -2.13 4.2108 -3.10999 6.67399 -3.10999c4.0394 0 8.08953 2.63 9.04696 7.07996
c0.142441 0.640015 0.224755 1.23999 0.224755 1.84998c0 2.19006 -1.066 4.59009 -4.23205 10.29c-96.7189 175.41 -145.383 375.43 -145.383 596.06c0 75.0601 5.632 152.5 16.918 232.17c16.569 117.064 46.7007 241.444 87.0434 359.505
c11.7136 34.294 13.6402 40.382 18.0713 57.297c11.6694 44.745 17.4311 89.996 17.4311 135.049c0 117.546 -39.2205 233.748 -115.071 336.116c-39.379 53.136 -90.164 104.19 -145.071 145.804c-3.69901 2.81281 -6.74301 5.27884 -6.74301 5.43297v0
c0 0.15412 3.04401 2.62015 6.74301 5.43296c168.302 127.57 260.09 302.624 260.09 482.052c0 57.351 -9.3774 115.148 -28.631 171.985c-30.9024 91.205 -47.5481 148.655 -64.4245 221.943c-31.189 135.533 -46.759 266.743 -46.759 391.883
c0 153.46 23.412 297.79 70.1472 429.8c21.4237 60.5399 45.1207 113.06 77.8726 172.63c1.18664 2.1499 1.72263 4.30994 1.72263 6.30994c0 5.02002 -3.39411 8.98999 -8.3552 8.98999c-0.87741 0 -1.80382 -0.130005 -2.76912 -0.390015z" />
    <glyph glyph-name="brace298" unicode="l" 
d="M-12.3428 1900.94c-3.0224 -1.02991 -3.9114 -2.23999 -10.1694 -13.5499c-136.327 -245.95 -213.309 -500.5 -225.611 -745.99c-1.52899 -29.8301 -1.636 -35.2001 -1.636 -72.1801c0 -35.95 0.141998 -42.53 1.422 -68.8
c6.507 -131.245 30.117 -253.065 73.604 -379.577c29.356 -85.356 43.877 -165.72 43.877 -243.516c0 -26.235 -1.651 -52.179 -4.942 -77.923c-15.467 -121.001 -72.075 -224.224 -158.87 -289.685c-7.33801 -5.54456 -9.75299 -7.93129 -9.75299 -11.2096
c0 -1.01056 0.229004 -2.10583 0.61499 -3.40443c0.782013 -2.59569 1.49301 -3.27128 9.138 -9.06715c105.622 -79.6666 163.8 -211.293 163.8 -366.342c0 -19.548 -0.925003 -39.47 -2.79601 -59.706c-5.79601 -62.261 -18.419 -119.152 -41.069 -185.076
c-47.114 -137.038 -70.617 -267.462 -74.528 -413.174c-0.171997 -6.40002 -0.25 -16.95 -0.25 -28.46c0 -19.51 0.225006 -41.8 0.604996 -51.37c8.961 -222.69 63.506 -435.54 168.115 -656.17c21.05 -44.41 61.3008 -121.15 65.5322 -124.99
c1.6955 -1.53003 3.8188 -2.22998 5.93247 -2.22998c3.82591 0 7.62011 2.30994 8.78821 6.25c0.325734 1.09998 0.53782 1.94995 0.53782 2.84998c0 2.23999 -1.31827 4.79004 -5.48029 12.3c-68.3767 123.53 -113.784 264.37 -133.66 414.77
c-7.86101 59.3301 -11.761 120.67 -11.761 183.52c0 189.01 35.282 391.673 104.21 594.372c9.6716 28.4821 12.5162 37.051 14.8629 45.3361c14.2133 49.443 21.2182 99.5829 21.2182 149.467c0 125.328 -44.2155 249.041 -129.419 356.016
c-38.26 48.002 -81.071 89.7819 -132.38 129.108c-3.698 2.80903 -6.685 5.22693 -6.685 5.36916c0 0.14223 2.987 2.56012 6.64899 5.36915c170.029 130.279 262.026 304.941 262.026 484.66c0 57.736 -9.4948 115.994 -28.9474 173.47
c-26.4546 78.19 -40.5709 125.055 -55.1138 182.942c-37.9248 150.8 -56.7918 296.45 -56.7918 434.72c0 222.52 48.861 425.95 145.792 601.06c4.16202 7.52002 5.48029 10.0701 5.48029 12.3101c0 0.890015 -0.212086 1.73999 -0.53782 2.83997
c-1.14929 3.81006 -4.70734 6.22998 -8.6184 6.22998c-1.04998 0 -2.12548 -0.169922 -3.18658 -0.540039z" />
    <glyph glyph-name="brace299" unicode="m" 
d="M-11.1769 1913.97c-4.3312 -0.900024 -4.9398 -1.85999 -23.625 -36.51c-143.14 -265.86 -216.605 -539.27 -216.605 -801.91c0 -64.1801 4.386 -127.718 13.215 -190.343c13.065 -92.817 31.858 -170.243 64.181 -264.707
c28.51 -83.223 42.609 -165.078 42.609 -241.874c0 -110.36 -29.116 -210.275 -86.422 -288.795c-23.053 -31.5358 -50.687 -59.5279 -81.005 -81.9358c-5.065 -3.74063 -7.59799 -6.89958 -7.59799 -10.0585c0 -3.15895 2.53299 -6.3179 7.59799 -10.0585
c107.75 -79.6878 167.378 -213.393 167.378 -371.147c0 -19.119 -0.875 -38.591 -2.64799 -58.363c-5.476 -61.139 -18.255 -119.951 -39.912 -183.094c-15.535 -45.496 -23.696 -72.307 -33.934 -112.04c-28.695 -111.078 -42.964 -225.185 -42.964 -341.135
c0 -242.62 62.469 -493.33 185.967 -741.32c15.7858 -31.7201 46.2478 -88.92 48.9324 -91.9601c1.7754 -1.97998 4.1791 -2.89001 6.58275 -2.89001c4.18746 0 8.37471 2.75 9.23889 7.29004c0.116974 0.619995 0.18766 1.18005 0.18766 1.75
c0 2.20996 -1.07303 4.53003 -4.6621 11c-97.8249 176.22 -147.261 380.82 -147.261 604.87c0 108.72 11.641 222.02 35.042 338.875c18.8643 94.249 41.5586 176.686 76.7456 278.954c19.6986 57.209 29.4051 116.143 29.4051 175.004
c0 115.375 -37.2938 230.47 -109.731 331.753c-41.809 58.454 -96.289 113.901 -156.175 158.932c-2.47 1.86136 -4.51001 3.47216 -4.51001 3.57954c0 0.10739 2.04001 1.71819 4.51001 3.57955c171.656 129.096 265.875 307.63 265.875 490.637
c0 52.646 -7.7971 105.661 -23.7908 157.977c-1.3603 4.43896 -4.725 14.676 -7.5171 22.73c-73.6096 213.335 -110.306 420.169 -110.306 613.569c0 225.02 49.675 431.85 148.678 609.56c2.75244 4.93994 3.68288 7.08997 3.68288 9.20996
c0 0.560059 -0.0636192 1.10999 -0.174917 1.71008c-0.84234 4.3999 -4.59408 7.35999 -9.00388 7.35999c-0.64989 0 -1.31406 -0.0700684 -1.98536 -0.200073z" />
    <glyph glyph-name="brace300" unicode="n" 
d="M-13.0808 1925.9c-2.4864 -1.30005 -2.5945 -1.44006 -9.9097 -14.6c-150.954 -272.43 -229.372 -555.39 -229.372 -827.1c0 -3.69995 0.0139923 -7.38989 0.0429993 -11.08c0.216003 -26.41 0.397003 -33.62 1.51401 -56.93
c6.306 -131.64 30.666 -258.808 73.331 -382.698c25.694 -74.521 38.738 -135.06 43.963 -203.599c1.242 -16.378 1.856 -32.554 1.856 -48.497c0 -158.044 -60.371 -293.102 -168.555 -373.331c-6.45001 -4.75665 -7.35101 -6.05392 -7.35101 -10.234
s0.901001 -5.47736 7.35101 -10.234c110.036 -81.6123 168.517 -217.908 168.517 -375.064c0 -76.553 -13.876 -158.055 -42.429 -240.598c-46.666 -134.88 -70.413 -258.445 -76.683 -399.124c-0.881012 -19.8601 -1.32001 -39.8101 -1.32001 -59.8501
c0 -268.63 78.837 -553.02 229.135 -824.28c7.3512 -13.2201 7.4233 -13.3301 10.0178 -14.5901c1.4675 -0.72998 2.9504 -1.05994 4.363 -1.05994c4.69258 0 8.6097 3.69995 8.6097 9.13v3.09998l-4.21612 7.56995c-84.6108 152.35 -134.988 331.63 -145.871 519.26
c-1.87399 32.5801 -2.198 43.3201 -2.414 80.11c-0.0189972 3.13 -0.0279999 6.26001 -0.0279999 9.39001c0 199.58 37.292 407.471 111.016 618.958c20.5864 59.043 30.83 119.771 30.83 180.433c0 80.989 -18.259 161.859 -54.5412 238.441
c-45.0082 95.097 -117.835 182.41 -211.707 253.868c-3.06299 2.34229 -5.58499 4.3963 -5.58499 4.54044s2.522 2.19815 5.58499 4.54044c144.862 110.304 236.391 254.913 259.994 410.766c4.0935 26.994 6.1207 54.373 6.1207 81.716
c0 60.513 -9.9291 120.854 -29.3634 176.476c-74.7767 213.796 -113.028 426.081 -113.028 624.921c0 37.17 1.33701 73.87 4.021 110.02c13.513 181.47 62.6654 351.99 143.889 498.91l5.29718 9.54993v3.08997c0 5.43005 -3.9953 9.15002 -8.70555 9.15002
c-1.42335 0 -2.91185 -0.339966 -4.37525 -1.06995z" />
    <glyph glyph-name="brace301" unicode="o" 
d="M-12.5582 1939.17c-2.6119 -0.940063 -3.9541 -2.76001 -10.1574 -13.9701c-153.532 -277.05 -231.377 -561.23 -231.377 -835.01c0 -153.42 24.446 -303.571 73.719 -447.364c18.429 -53.762 27.135 -85.431 35.189 -128.347
c8.395 -44.538 12.51 -87.984 12.51 -129.793c0 -158.531 -59.15 -293.548 -168.319 -375.504c-7.944 -5.94936 -8.88702 -7.14649 -8.88702 -11.3546c0 -4.20809 0.943024 -5.40521 8.88702 -11.3545c109.169 -81.9553 168.319 -216.973 168.319 -375.503
c0 -41.81 -4.11499 -85.255 -12.51 -129.794c-8.16301 -43.35 -16.506 -73.7141 -35.733 -129.979c-48.636 -142.399 -72.815 -291.123 -72.815 -443.247c0 -245.8 63.127 -500.48 188.211 -751.7c20.46 -41.14 47.1233 -90.73 50.3519 -93.71
c1.6968 -1.56006 3.8068 -2.33008 5.92764 -2.33008c2.32277 0 4.65859 0.930054 6.47899 2.77002c1.83812 1.82007 2.76347 3.59998 2.76347 5.77002c0 2.28003 -1.0251 5 -3.08996 8.67004c-100.52 178.96 -151.033 389.81 -151.033 618.66
c0 190.78 35.107 394.061 105.615 601.791c13.9665 41.101 15.5264 46.143 20.6414 66.4951c11.0551 43.844 16.5731 88.388 16.5731 133.038c0 50.146 -6.9602 100.424 -20.8537 149.992c-10.9193 39.033 -28.4409 82.13 -47.9214 118.08
c-46.4701 85.685 -114.344 163.39 -198.868 227.636c-3.26498 2.46681 -5.91299 4.57086 -5.91299 4.71596c0 0.14511 2.64801 2.24915 5.87601 4.71596c84.561 64.2459 152.435 141.914 198.905 227.636c45.3613 83.627 68.6202 174.983 68.6202 268.886
c0 12.209 -0.3932 24.461 -1.182 36.744c-2.9021 45.563 -12.3341 92.36 -27.7516 137.851c-18.5736 54.742 -27.9693 84.307 -38.5258 120.983c-40.5939 140.753 -65.2979 282.336 -73.1339 418.636c-1.85599 31.83 -2.35999 49.6 -2.35999 86.63l0.0019989 4.05994
c0 39.5801 0.362991 53.76 2.35799 88.6901c10.883 192.12 62.65 376.23 148.952 529.93c2.39426 4.25 2.75702 5.15002 2.90213 7.08008c0.02495 0.299927 0.037164 0.599976 0.037164 0.890015c0 5.34998 -4.03405 9.22998 -8.97186 9.22998
c-1.11137 0 -2.26847 -0.200073 -3.43567 -0.619995z" />
    <glyph glyph-name="brace302" unicode="p" 
d="M-12.9645 1951.83c-2.7389 -1.2699 -3.2867 -2.03992 -9.8602 -13.9099c-152.798 -275.28 -232.776 -563.53 -232.812 -838.85c0 -153.678 25.819 -311.114 73.952 -450.656c14.243 -41.267 21.51 -65.479 28.266 -94.403c13.488 -57.616 20.16 -113.664 20.16 -167.118
c0 -112.26 -29.423 -213.084 -86.918 -292.992c-23.445 -32.612 -51.602 -61.426 -82.57 -84.5794c-8.108 -6.02574 -9.13 -7.34044 -9.13 -11.5037c0 -4.16324 1.022 -5.47794 9.13 -11.5036c109.096 -81.4855 169.504 -218.107 169.504 -378.288
c0 -22.235 -1.164 -44.923 -3.52301 -67.981c-6.13499 -59.892 -18.588 -115.658 -39.624 -177.303c-6.90201 -20.195 -11.357 -33.634 -14.9 -44.919c-42.626 -135.475 -63.841 -275.632 -63.841 -418.523c0 -239.05 59.382 -485.74 177.235 -730.93
c18.7711 -39 58.1757 -114.05 62.1198 -118.29c1.8007 -1.92993 4.1075 -2.78992 6.39801 -2.78992c4.72407 0 9.37849 3.65991 9.37849 9.1499v0c0 2.41003 -0.255637 2.99011 -5.18578 11.9c-99.8232 180.16 -150.135 389.03 -150.135 617.47
c0 138.87 18.591 284.98 55.9512 436.268c15.4478 62.558 30.786 113.722 58.7965 196.11c19.4633 57.274 29.054 116.393 29.054 175.512c0 114.927 -36.2432 229.856 -106.658 331.234c-43.057 62.01 -100.904 121.756 -162.732 168.136
c-3.35901 2.51985 -6.09799 4.63799 -6.09799 4.74755c0 0.10955 2.73898 2.22769 6.09799 4.74754c16.398 12.3071 37.835 30.1652 55.035 45.8321c139.3 126.889 214.326 286.963 214.326 452.554c0 27.377 -2.0507 54.904 -6.2008 82.458
c-5.8066 38.491 -12.5628 64.493 -29.4348 113.575c-53.7567 156.085 -88.7787 318.045 -102.328 473.475c-4.185 47.89 -6.269 95.0901 -6.269 141.51c0 229.44 50.906 439.77 150.594 619.71c4.93014 8.90991 5.18578 9.48999 5.18578 11.8999v0
c0 5.25 -4.34763 9.13 -9.12527 9.13c-1.27393 0 -2.57843 -0.279907 -3.83923 -0.880005z" />
    <glyph glyph-name="brace303" unicode="q" 
d="M-11.5807 1965.31c-3.6397 -1.18005 -4.0808 -1.7301 -11.6543 -15.4801c-138.013 -249.55 -217.056 -508.78 -231.173 -758.08c-1.55699 -27.5601 -2.412 -61.9399 -2.412 -92.0699c0 -16.12 0.244995 -31.03 0.757019 -43.03
c6.10298 -146.914 29.338 -273.75 74.08 -405.146c27.022 -79.263 39.081 -132.424 45.367 -199.813c1.94 -20.818 2.89799 -41.341 2.89799 -61.503c0 -161.313 -61.306 -299.52 -171.241 -381.285c-8.198 -6.10285 -8.63898 -6.65431 -8.63898 -11.2498
c0 -4.59552 0.440979 -5.14698 8.63898 -11.2498c110.775 -82.3838 171.201 -220.584 171.201 -381.865c0 -42.76 -4.248 -87.144 -12.931 -132.54c-8.49301 -44.2271 -15.698 -70.293 -37.022 -133.527c-40.845 -121.101 -64.447 -245.989 -70.881 -374.812
c-1.287 -26.3201 -1.507 -33.79 -1.72801 -61.76c-0.0279846 -3.66003 -0.0419922 -7.33008 -0.0419922 -10.99c0 -276.64 79.394 -563.09 233.127 -841.02c8.3823 -15.1901 8.7867 -15.63 14.2278 -15.63c5.58815 0 8.97046 3.42004 9.00722 9.01001v2.76001
l-5.36757 9.73999c-99.9684 180.92 -151.049 391.52 -151.049 621.46c0 28.8201 0.803009 57.9401 2.412 87.35c9.41101 172.57 46.47 355.917 107.756 533.267c6.6175 19.081 9.7792 28.86 12.8307 39.522c14.6226 50.947 21.7629 102.406 21.7629 153.48
c0 187.641 -96.3753 370.091 -272.163 502.908c-2.61099 1.98527 -4.78 3.74995 -4.78 3.897v0c0 0.14706 2.16901 1.91174 4.78 3.89701c175.788 132.816 272.163 315.266 272.163 502.907c0 51.074 -7.1403 102.533 -21.7629 153.48
c-3.0515 10.625 -6.2499 20.478 -12.6102 38.97c-61.6172 178.159 -98.8222 361.792 -108.344 535.102c-1.64301 29.79 -2.46201 59.29 -2.46201 88.47c0 230.75 51.209 442.04 151.467 623.47l5.36757 9.73999v2.76001c-0.0310496 5.25 -4.2316 9.29004 -8.94738 9.29004
c-0.86792 0 -1.75332 -0.140015 -2.63332 -0.429932z" />
    <glyph glyph-name="brace304" unicode="r" 
d="M-12.204 1978.4c-3.516 -1.07007 -5.2184 -3.81006 -23.2055 -37.15c-148.035 -274.92 -223.025 -556.59 -223.025 -828.15c0 -157.126 25.103 -310.867 75.687 -457.965c15.878 -46.226 23.983 -74.576 31.755 -111.031c11.042 -51.858 16.446 -102.393 16.446 -150.8
c0 -161.709 -60.309 -299.68 -172.223 -383.964c-7.022 -5.28164 -9.25101 -7.64337 -9.25101 -10.9719c0 -0.77654 0.122009 -1.60571 0.332001 -2.53685c0.665985 -2.92383 1.776 -4.14517 8.91901 -9.51167c112.387 -84.6532 172.29 -223.463 172.29 -384.421
c0 -68.662 -10.901 -141.354 -33.279 -215.592c-3.55299 -11.806 -6.069 -19.393 -17.321 -52.814c-48.757 -144.546 -72.953 -295.191 -72.953 -449.023c0 -278.1 79.074 -566.61 235.059 -848.34c4.1082 -7.40002 6.6249 -11.58 7.5871 -12.51
c1.7771 -1.71997 3.8912 -2.47998 5.97398 -2.47998c4.77819 0 9.3915 3.95996 9.3915 9.16003c0 0.789917 -0.107778 1.62 -0.339221 2.45996c-0.222062 0.819946 -1.55443 3.47998 -2.92382 5.92004c-88.4548 157.19 -141.269 346.2 -152.113 544.61
c-1.459 26.6899 -2.25299 62.08 -2.25299 93.52c0 17.22 0.237991 33.24 0.735001 46.0099c3.183 80.9801 10.548 153.85 23.354 231.02c19.838 119.248 45.2266 217.511 91.7487 354.856c19.8376 58.625 29.6453 117.805 29.6453 178.946v0
c-0.0370007 190.899 -96.967 370.881 -271.841 504.785c-3.664 2.81279 -6.66202 5.25548 -6.66202 5.40352c0 0.14804 2.99802 2.59072 6.66202 5.40352c176.214 134.938 271.929 316.343 271.929 504.056c0 51.797 -7.2878 104.074 -22.1832 155.987
c-2.4797 8.73505 -4.7373 15.619 -16.3956 49.9641c-71.1882 210.212 -107.485 419.889 -107.485 616.159c0 76.58 5.526 151.13 16.662 222.87c22.983 148.15 70.5415 288.94 138.197 409.15c2.37114 4.22998 3.28446 6.2699 3.28446 8.28992
c0 0.910034 -0.186277 1.82007 -0.508678 2.92004c-1.12956 3.80994 -4.74203 6.22998 -8.72818 6.22998c-0.97694 0 -1.97634 -0.150024 -2.96714 -0.459961z" />
    <glyph glyph-name="brace305" unicode="s" 
d="M-10.8451 1991.94c-3.9121 -0.819946 -4.769 -1.85999 -12.3697 -15.5699c-140.911 -254.37 -221.351 -520.69 -234.466 -776.21c-1.323 -26.2101 -2.03101 -56.38 -2.03101 -83.51c0 -15.66 0.235992 -30.3201 0.72702 -42.6
c4.61998 -118.15 19.3 -216.587 48.398 -325.455c8.942 -33.495 16.692 -58.496 31.707 -102.46c29.22 -85.662 43.968 -169.491 43.968 -249.566c0 -21.415 -1.05499 -42.562 -3.17 -63.404c-13.972 -137.446 -73.809 -251.046 -170.643 -323.96
c-6.78101 -5.10438 -6.89301 -5.21616 -8.08499 -7.45165c-0.726013 -1.37926 -1.10501 -2.67223 -1.10501 -3.94282c0 -3.2257 2.439 -6.30713 7.81201 -10.2899c112.546 -83.2847 175.156 -223.624 175.156 -387.964c0 -20.634 -0.987 -41.647 -2.98599 -62.973
c-5.924 -63.301 -18.815 -122.132 -40.947 -187.036c-9.985 -29.211 -15.313 -45.567 -21.013 -64.68c-39.676 -132.863 -59.434 -269.659 -59.434 -408.877c0 -242.8 60.095 -492.97 179.442 -742.52c19.486 -40.7899 60.2466 -118.48 64.345 -122.65
c2.0338 -2.07996 4.3319 -2.96997 6.52398 -2.96997c4.74214 0 8.98802 4.16003 8.98802 9.40002c0 1.66003 -0.424231 3.42004 -1.39112 5.18994l-6.89278 12.64c-83.7938 153.13 -134.017 331.18 -146.909 520.68c-2.29601 33.84 -3.43701 68.24 -3.43701 103.09
c0 200.35 37.699 415.658 110.219 626.426c8.2714 24.069 10.9167 32.08 13.9346 42.661c14.919 51.974 22.3031 104.63 22.3031 157.034c0 112.889 -34.266 224.609 -101.291 325.833c-44.188 66.73 -102.907 128.616 -172.245 181.597
c-3.72501 2.86889 -6.78101 5.29068 -6.78101 5.43971s3.056 2.57082 6.78101 5.43971c117.662 89.8669 201.419 201.978 243.409 325.787c20.0363 59.115 30.0592 120.862 30.0592 182.373c0 60.765 -9.7807 121.3 -29.3513 178.846l-11.1402 32.973
c-70.3734 209.364 -106.318 418.941 -106.318 614.951c0 74.42 5.183 146.9 15.632 216.65c22.28 148.78 67.9961 287.64 135.024 410.03l7.00456 12.8199c0.976012 1.80005 1.41872 3.64001 1.41872 5.37c0 4.96008 -3.64274 9.07007 -8.78979 9.07007
c-0.66174 0 -1.34831 -0.0700684 -2.05531 -0.210083z" />
    <glyph glyph-name="brace306" unicode="t" 
d="M-13.0839 2004.43c-2.438 -1.12 -3.5632 -2.70007 -9.677 -13.7301c-156.666 -282.82 -238.627 -577.93 -238.627 -858.55c0 -7.80005 0.0629883 -15.59 0.190002 -23.37c2.62601 -159.218 28.394 -305.386 80.267 -455.23
c30.368 -87.694 45.158 -173.817 45.158 -254.465c0 -163.191 -60.556 -303.968 -175.123 -389.993c-8.21399 -6.18878 -8.814 -6.97644 -8.814 -11.3649v0c0 -4.38841 0.600006 -5.17607 8.814 -11.3648c113.596 -85.2855 175.126 -225.506 175.126 -390.029
c0 -43.21 -4.244 -88.097 -12.904 -134.105c-8.02701 -42.571 -17.629 -77.866 -34.658 -127.451c-44.034 -128.127 -69.089 -258.541 -75.803 -394.767c-1.19998 -24.76 -1.34998 -30.72 -1.57498 -61.7c-0.0230103 -3.38 -0.0339966 -6.76001 -0.0339966 -10.14
c0 -253.62 63.873 -511.16 190.611 -768.52c18.0413 -36.61 50.9731 -98.5 54.3863 -102.18c1.7028 -1.82996 4.0777 -2.67993 6.46282 -2.67993c3.76164 0 7.54879 2.12 8.76533 5.82996c0.323341 1 0.518745 1.84998 0.518745 2.78003
c0 2.51001 -1.4372 5.54993 -5.65731 13.1699c-91.6315 165.82 -142.98 355.23 -152.769 563.55c-1.12601 24.16 -1.313 34.24 -1.313 71.64c0 205.36 38.07 419.337 113.236 636.432c22.7277 65.676 34.0657 129.538 34.0657 193.451
c0 50.844 -7.1756 101.722 -21.5006 153.571c-11.1773 40.471 -33.9445 96.132 -51.6107 126.214l-4.9885 8.81401c-33.3446 60.2 -84.3926 123.476 -141.592 175.536c-18.304 16.6909 -48.385 41.5586 -61.25 50.6355c-0.957001 0.6939 -1.435 1.00334 -1.435 1.31277
c0 0.30944 0.477997 0.61888 1.435 1.31278c12.865 9.07688 42.946 33.9446 61.25 50.6355c57.199 52.0611 108.247 115.336 141.592 175.536l4.9885 8.815c12.115 20.591 29.5561 59.937 40.996 92.381c21.1704 60.046 31.758 124.298 31.758 188.312
c0 62.782 -10.1844 125.336 -30.5577 183.465c-70.1774 200.029 -108.472 395.336 -116.236 592.436c-0.500992 12.72 -0.737991 29.14 -0.737991 46.85c0 31.4 0.744995 66.85 2.088 92.87c10.54 201.34 62.6755 390.3 152.582 553.05
c4.22011 7.62 5.65731 10.65 5.65731 13.16c0 0.929932 -0.195404 1.78992 -0.518745 2.77991c-1.16083 3.54004 -5.05729 5.88 -8.91454 5.88c-1.25271 0 -2.50121 -0.25 -3.65061 -0.779907z" />
    <glyph glyph-name="brace307" unicode="u" 
d="M-12.1206 2018.13c-2.0013 -0.640015 -4.1913 -3.02002 -6.4946 -7.17004c-109.841 -195.9 -185.397 -403.42 -220.55 -605.66c-15.564 -89.52 -23.313 -178.93 -23.313 -267.33c0 -160.599 25.574 -317.883 76.326 -466.512
c14.689 -43.007 21.636 -65.965 27.942 -92.321c10.724 -44.782 16.916 -83.673 20.163 -126.303c1.511 -19.522 1.737 -26.054 1.737 -51.164c-0.0380096 -167.347 -62.34 -306.603 -175.352 -391.9c-9.289 -7.02317 -9.66702 -7.47628 -9.66702 -12.1206
c0 -4.64435 0.378021 -5.09746 9.66702 -12.1206c105.272 -79.4826 165.271 -202.841 174.861 -359.428c0.320999 -5.229 0.481995 -18.841 0.481995 -32.529c0 -13.688 -0.160995 -27.451 -0.481995 -32.983c-3.776 -65.247 -14.31 -124.906 -33.114 -187.284
c-3.625 -12.007 -6.231 -20.012 -17.634 -53.807c-49.593 -146.931 -74.526 -301.387 -74.526 -459.368c0 -90.52 8.186 -182.2 24.609 -274.29c35.456 -198.87 110.596 -403.87 218.851 -596.97c3.1402 -5.63 5.3548 -7.5 9.46068 -7.5
c0.43625 0 0.89385 0.0200195 1.37617 0.0600586c4.87091 0.380005 7.77835 3.69995 7.77835 8.88v0v3.27991l-3.73814 6.60999c-64.0392 113.5 -111.276 248.98 -135.932 389.86c-14.187 81 -21.225 165.67 -21.225 252.9c0 199.73 36.897 412.917 109.354 626.319
c10.8368 31.906 13.8198 40.969 16.3874 49.955c15.0534 52.438 22.5347 105.668 22.5347 158.745c0 87.914 -20.5247 175.408 -61.1621 258.19c-47.501 96.7 -128.871 192.532 -220.248 259.366c-1.55301 1.13624 -2.327 1.62664 -2.327 2.11902
c0 0.48936 0.764984 0.98069 2.289 2.10998c49.427 36.1353 103.686 88.658 144.428 139.859c90.2368 113.396 136.991 245.064 136.991 377.791c0 61.38 -9.9993 122.988 -30.3215 183.118c-28.8856 85.524 -43.3095 133.478 -58.9793 196.158
c-39.655 158.54 -59.437 311.88 -59.437 457.79c0 189.61 33.408 366.66 100.028 526.21c16.916 40.51 38.4009 84.88 57.7334 119.13l3.62486 6.42004v3.28003c0 5.38 -3.94144 9.10999 -8.92336 9.10999c-1.02984 0 -2.10414 -0.160034 -3.19724 -0.5z" />
    <glyph glyph-name="brace308" unicode="v" 
d="M-11.4416 2031.69c-3.497 -0.909912 -4.2953 -1.93994 -12.5819 -16.95c-143.95 -260 -225.525 -532.36 -238.259 -795.4c-1.21597 -25.24 -1.40598 -32.3099 -1.59598 -63.1c-0.0240173 -3.56995 -0.0350037 -7.13 -0.0350037 -10.6899
c0 -133.79 16.732 -259.647 51.427 -386.8c9.00899 -33.032 15.015 -52.19 32.386 -103.696c28.996 -85.892 43.358 -170.642 43.358 -250.48c0 -111.277 -27.901 -213.011 -82.966 -294.99c-26.457 -39.38 -57.816 -72.5263 -95.79 -101.225
c-7.14603 -5.39768 -7.983 -6.53803 -7.983 -10.7193c0 -4.1813 0.836975 -5.32166 7.983 -10.7193c116.478 -88.0461 178.703 -229.266 178.703 -395.827c0 -52.33 -6.142 -107.161 -18.673 -163.631c-7.52699 -33.9059 -14.825 -59.108 -29.459 -101.681
c-44.36 -129.088 -69.942 -261.75 -76.784 -398.171c-1.521 -30.6 -1.711 -38.5499 -1.711 -75.46c0 -36.98 0.190002 -45.84 1.711 -76.2101c13.114 -261.48 94.041 -530.87 237.459 -790.46c9.3889 -16.99 9.845 -17.48 15.3187 -17.48
c5.43569 0 8.93278 3.53003 8.93278 8.93005v0l-0.0380118 2.84998l-4.37136 7.97998c-104.812 189.81 -157.821 407.41 -157.821 646.49c0 39.25 1.429 79.08 4.291 119.45c11.822 166.15 47.781 339.981 105.559 510.121l9.0848 26.799
c20.2259 59.738 30.283 121.56 30.283 183.473c0 83.416 -18.2565 166.998 -54.4965 245.87c-3.421 7.44998 -13.6842 28.167 -16.003 32.31l-6.7661 12.164c-47.0589 84.69 -117.913 164.667 -202.375 228.451c-3.26898 2.47077 -5.92999 4.59943 -5.92999 4.75148v0
c0 0.15204 2.66101 2.28071 5.92999 4.75147c84.462 63.7838 155.316 143.761 202.375 228.451l6.7661 12.164c2.3188 4.14301 12.582 24.859 16.003 32.31c36.1839 78.731 54.5066 162.28 54.5066 245.811c0 46.691 -5.7248 93.376 -17.255 139.21
c-5.1696 20.603 -8.4766 31.284 -19.348 62.948c-74.5616 216.849 -112.817 434.135 -112.817 640.645c0 3.63 0.0119934 7.25989 0.0359955 10.88c0.227997 32.46 0.380005 39.83 1.59601 65.5699c9.80699 208.76 62.7955 402.47 156.343 571.7l4.40937 7.9801
l0.0380118 2.84998c0 5.23999 -4.0862 9.08997 -9.00718 9.08997c-0.79427 0 -1.61032 -0.0999756 -2.43442 -0.310059z" />
    <glyph glyph-name="brace309" unicode="w" 
d="M-11.4723 2045.28c-3.6353 -0.840088 -4.0179 -1.30005 -11.6329 -15.0801c-145.642 -262.39 -227.838 -536.53 -240.81 -802.83c-1.19699 -24.62 -1.79401 -49.2 -1.79401 -73.72c0 -164.505 26.863 -326.317 79.78 -479.608
c29.045 -84.148 42.591 -149.89 47.566 -230.938c0.409012 -6.69 0.651001 -23.521 0.651001 -38.27c0 -8.70401 -0.0839996 -16.682 -0.268997 -21.425c-6.161 -159.494 -69.224 -291.628 -178.551 -374.169c-7.38498 -5.54862 -8.37997 -6.62007 -9.03 -9.60485
c-0.201996 -0.93386 -0.319 -1.75983 -0.319 -2.52932c0 -3.32953 2.20001 -5.60137 9.349 -10.9787c109.327 -82.5405 172.39 -214.674 178.551 -374.168c0.184998 -4.74301 0.268997 -12.721 0.268997 -21.425c0 -14.749 -0.241989 -31.58 -0.651001 -38.27
c-4.439 -72.094 -16.57 -136.037 -38.803 -204.917c-2.60201 -8.03601 -11.441 -34.095 -12.666 -37.309c-0.306 -0.727051 -2.52499 -7.539 -4.936 -15.116c-47.083 -146.428 -70.542 -297.352 -70.542 -451.052c0 -252.78 63.455 -513.08 189.627 -773.28
c16.6076 -34.21 52.8076 -103.05 59.198 -112.43c1.6742 -2.48999 4.5305 -3.72998 7.39829 -3.72998c2.90068 0 5.81307 1.2699 7.52563 3.80994c1.02999 1.51001 1.56128 2.96997 1.56128 4.65002c0 2.37 -1.06363 5.16003 -3.28326 9.08997
c-37.0801 65.62 -72.4764 148.05 -97.2347 226.23c-42.042 133 -62.968 277.05 -62.968 428.35c0 208.4 39.702 430.543 118.607 656.462c20.9072 59.848 31.3658 123.557 31.3658 187.534c0 62.137 -9.8655 124.527 -29.6055 183.879
c-10.9825 32.985 -28.8529 74.543 -42.2078 98.038l-5.8165 10.447c-45.9962 83.574 -120.271 167.53 -202.888 229.368c-3.827 2.86998 -6.96399 5.28076 -6.96399 5.39556v0c0 0.1148 3.13699 2.52558 6.96399 5.39555c82.617 61.8384 156.892 145.794 202.888 229.368
l5.8165 10.447c13.3549 23.495 31.2253 65.053 42.2078 98.038c19.74 59.352 29.6055 121.733 29.6055 183.865c0 63.972 -10.4586 127.68 -31.3658 187.548c-79.2052 226.876 -119.035 450.364 -119.035 659.644c0 163.52 24.313 318.36 73.1539 459.38
c23.993 69.22 53.7642 136.34 86.5202 194.93c3.15922 5.62 4.23661 8.02991 4.23661 10.2899c0 0.619995 -0.079604 1.22009 -0.218638 1.88c-0.935467 4.34998 -4.48135 7.09998 -8.78098 7.09998c-0.80095 0 -1.62807 -0.0899658 -2.46937 -0.289917z" />
    <glyph glyph-name="brace310" unicode="x" 
d="M-11.3871 2058.89c-3.9293 -1.11987 -4.1219 -1.34985 -13.3288 -17.9899c-141.493 -255.79 -224.086 -526.29 -239.533 -784.32c-2.19601 -36.8999 -2.69702 -54.1599 -2.69702 -94.96c0 -37.4 0.193024 -45.53 1.73401 -76.46
c7.12601 -141.96 33.052 -274.94 80.319 -412.196c31.334 -90.967 46.616 -179.908 46.616 -263.025c0 -168.061 -62.481 -312.309 -181.098 -401.336c-5.875 -4.41084 -8.81201 -7.67563 -8.81201 -10.9404c0 -3.26479 2.93701 -6.52958 8.81201 -10.9404
c118.429 -88.8742 181.276 -235.095 181.276 -403.344c0 -81.529 -14.758 -168.231 -45.099 -256.085c-49.155 -142.226 -74.888 -274.435 -81.822 -420.013c-1.12402 -23.65 -1.685 -47.39 -1.685 -71.2101c0 -261.03 67.373 -530.88 198.767 -794.58
c18.8761 -37.91 48.2303 -93 51.967 -97.54c1.7751 -2.15991 4.2597 -3.1499 6.74103 -3.1499c4.03454 0 8.0606 2.61987 9.0147 7.07983c0.133588 0.620117 0.214278 1.2002 0.214278 1.79004c0 2.32007 -1.22874 4.95007 -5.33779 12.4601
c-14.6 26.58 -24.5389 46.15 -36.9046 72.61c-81.2283 173.72 -122.487 370.35 -122.487 582.22c0 39.63 1.44301 79.79 4.339 120.44c12.442 175.27 50.079 353.325 113.217 535.653c22.4149 64.751 33.6223 129.574 33.6223 194.597
c0 52.538 -7.3166 105.208 -21.95 158.077c-38.0218 137.526 -131.093 268.579 -259.835 366.003c-4.08398 3.08181 -7.435 5.77839 -7.435 5.93248s3.35101 2.85067 7.435 5.93248c180.198 136.326 281.712 327.432 281.712 524.638
c0 22.187 -1.2849 44.451 -3.8872 66.722c-5.2391 44.687 -14.2149 82.631 -31.3189 132.133c-64.4099 186.68 -102.201 371.122 -113.334 552.802c-2.08 34.51 -2.696 56.66 -2.696 100.93c0 224.78 43.261 421.93 132.98 606.15c7.2037 14.79 16.1409 31.9 26.542 50.85
c2.61954 4.78003 4.93089 9.4801 5.12351 10.4801c0.146224 0.639893 0.215573 1.28003 0.215573 1.90991c0 4.89014 -4.21968 8.98999 -9.08726 8.98999c-0.75546 0 -1.52654 -0.0998535 -2.29984 -0.310059z" />
    <glyph glyph-name="brace311" unicode="y" 
d="M-11.3265 2072.64c-4.2271 -1.15991 -3.9557 -0.769775 -20.7476 -31.5999c-156.689 -287.53 -236.287 -585.77 -236.287 -873.14c0 -164.91 26.212 -326.241 79.109 -479.914c18.033 -52.315 26.953 -84.1541 35.252 -125.455
c10.239 -51.088 15.257 -100.871 15.257 -148.67c0 -170.703 -63.991 -316.099 -182.634 -405.233c-6.35498 -4.80558 -8.534 -7.2399 -8.534 -10.4338c0 -0.72383 0.112 -1.48667 0.313019 -2.32497c0.774994 -3.14122 1.745 -4.22708 8.22098 -9.11346
c119.478 -89.7519 182.725 -236.299 182.725 -405.639c0 -82.07 -14.855 -169.493 -45.364 -258.4c-50.919 -148.374 -76.049 -279.414 -82.797 -431.817c-0.938019 -21.26 -1.40601 -42.63 -1.40601 -64.09c0 -289.8 85.218 -597.1 246.577 -886.81
c5.6059 -10.0601 8.0104 -13.1399 11.8131 -13.1399c0.932469 0 1.94901 0.179932 3.11743 0.48999c4.4795 1.21997 6.71167 3.67993 6.71167 7.47998c0 2.75 -1.1662 6.19995 -3.49288 10.3999c-108.025 194.87 -162.388 418.36 -162.388 662.74
c0 148.04 19.95 303.74 60.008 465.388c15.5505 62.747 34.1264 124.641 60.1093 200.301c21.4189 62.416 31.9719 126.484 31.9719 190.378c0 129.878 -43.6046 259.038 -128.186 372.134c-42.465 56.852 -97.339 111.766 -155.277 155.549
c-4.14999 3.14122 -7.56299 5.81708 -7.56299 5.9722c0 0.15512 3.41299 2.83098 7.56299 5.9722c63.445 47.9328 122.275 108.353 166.756 171.255c77.0533 109.057 116.677 232.559 116.677 356.514c0 63.951 -10.5467 128.022 -31.9413 190.292
c-80.8493 235.188 -120.534 454.245 -120.534 666.425c0 30.45 0.817001 60.76 2.448 90.96c11.324 209.34 67.2451 410.1 160.241 575.46c2.40008 4.28003 3.6016 7.80981 3.6016 10.6199c0 3.83008 -2.21929 6.31006 -6.66527 7.48999
c-1.18397 0.310059 -1.75672 0.459961 -2.31558 0.459961c-0.57605 0 -1.13733 -0.159912 -2.33803 -0.5z" />
    <glyph glyph-name="brace312" unicode="z" 
d="M-10.7957 2086.67c-3.9821 -0.899902 -4.8409 -1.94995 -12.2586 -15.3398c-163.963 -296.85 -246.943 -600.33 -246.943 -893.79c0 -167.36 26.988 -331.462 81.334 -489.212c16.28 -47.239 25.103 -78.549 33.184 -117.902
c10.829 -52.7061 16.132 -104.091 16.132 -153.403c0 -171.489 -64.13 -317.897 -182.989 -407.526c-6.61801 -4.99714 -9.92599 -8.39364 -9.92599 -11.7901c0 -3.3965 3.30798 -6.79299 9.92599 -11.7901c119.754 -90.3207 182.977 -236.873 182.977 -406.952
c0 -83.034 -15.069 -171.675 -45.985 -262.119c-9.839 -28.734 -14.953 -44.389 -20.457 -62.66c-42.497 -141.066 -63.736 -285.596 -63.736 -434.106c0 -38.13 1.39999 -76.5299 4.19897 -115.19c18.427 -254.66 100.997 -520.13 240.332 -772.57
c8.6704 -15.72 10.9868 -19.27 15.103 -19.27c0.850921 0 1.77875 0.149902 2.85552 0.379883c4.66656 0.98999 7.0478 3.76001 7.0478 7.83008c0 2.6499 -1.00018 5.84009 -3.02666 9.45996c-108.27 193.47 -163.994 421.63 -163.994 669.02
c0 38.0601 1.319 76.58 3.96899 115.5c11.634 171.42 47.707 348.625 106.54 523.33l11.4778 33.965c20.6651 60.866 30.9379 124.206 30.9379 187.727c0 83.603 -17.795 167.518 -53.1127 246.517c-5.58279 12.493 -15.2257 32.169 -19.1688 39.119l-4.4896 8.198
c-46.7699 86.747 -123.133 173.69 -208.943 237.95c-4.021 3.0061 -7.30099 5.54371 -7.30099 5.66083s3.28 2.65474 7.30099 5.66083c85.81 64.2602 162.173 151.202 208.943 237.95l4.4896 8.19801c3.9431 6.94899 13.586 26.625 19.1688 39.118
c35.3177 78.999 53.1127 162.928 53.1127 246.534c0 63.524 -10.2728 126.861 -30.9379 187.71c-20.2228 59.459 -28.7336 86.162 -40.1724 125.515c-45.9507 158.267 -73.5127 319.657 -80.4227 470.827c-1.327 29.24 -1.562 40.8301 -1.562 79.4401
c0 250.29 55.32 476.22 164.164 670.71c1.99886 3.57983 2.97955 6.80981 2.97955 9.47998c0 4.02002 -2.20655 6.7998 -6.49317 7.65991c-0.74176 0.159912 -1.63968 0.350098 -1.95201 0.429932l-0.156301 0.0100098c-0.42638 0 -1.33113 -0.109863 -2.14711 -0.280029z
" />
    <glyph glyph-name="brace313" unicode="{" 
d="M-11.8843 2100.23c-3.0655 -0.820068 -4.2445 -2.32007 -10.1005 -12.8501c-150.25 -270.9 -234.394 -550.69 -247.875 -824.15c-1.41501 -29.5599 -1.57202 -36.24 -1.57202 -77.03v0c0 -43.98 0.393005 -58.6399 2.55499 -94.9199
c8.09601 -134.959 34.821 -269.842 78.996 -398.123c29.476 -85.598 43.192 -151.311 48.616 -232.665c0.511002 -7.60501 0.766006 -24.121 0.766006 -40.549c0 -16.429 -0.255005 -32.768 -0.766006 -40.019c-11.24 -161.726 -74.752 -289.496 -184.796 -371.715
c-7.23199 -5.42362 -7.86099 -6.28825 -7.86099 -10.69v0c0 -4.48038 0.550995 -5.18781 9.04001 -11.594c109.455 -82.494 172.416 -209.634 183.617 -370.81c0.511002 -7.25098 0.766006 -23.591 0.766006 -40.019c0 -16.428 -0.255005 -32.945 -0.766006 -40.55
c-4.55901 -68.463 -15.996 -130.127 -36.236 -195.329c-2.437 -7.78101 -6.05299 -18.7859 -14.345 -43.035c-52.924 -155.657 -79.312 -316.842 -79.312 -484.612c0 -3.78992 0.0139771 -7.57996 0.039978 -11.37c0.236023 -29.87 0.393005 -37.5 1.45502 -60.1399
c12.655 -272.94 95.502 -551.51 244.338 -821.6c10.4406 -18.8999 10.4565 -19.0601 15.9571 -19.0601h0.27445c5.54468 0 9.09384 3.93018 9.09384 8.72998c0 1.87012 -0.537832 3.87012 -1.70514 5.82007c-0.78604 1.29004 -4.12667 7.38013 -7.46731 13.55
c-73.6119 135.56 -121.678 283.76 -144.512 445.68c-9.82799 69.62 -14.698 141.84 -14.698 215.89c0 214.41 40.816 444.278 120.301 671.544c22.4169 64.103 33.57 130.119 33.57 196.193c0 89.849 -20.6234 179.806 -61.5921 265.208
c-5.34499 11.162 -5.93449 12.301 -14.7381 28.494c-49.4808 90.708 -121.914 173.713 -209.478 240.014c-4.20499 3.18343 -8.017 6.05244 -8.44901 6.40616c-0.393982 0.29476 -0.589996 0.44214 -0.589996 0.58952c0 0.14738 0.196014 0.29476 0.589996 0.58952
c0.432007 0.35372 4.24402 3.22273 8.44901 6.40616c87.564 66.3018 159.997 149.307 209.478 240.015c8.8036 16.192 9.3931 17.332 14.7381 28.493c40.9687 85.403 61.5921 175.333 61.5921 265.175c0 66.069 -11.1531 132.09 -33.57 196.226
c-80.314 229.831 -120.675 457.526 -120.675 671.536c0 174.3 26.776 339.53 80.548 489.43c23.4631 65.4 60.1315 146.09 86.5029 190.42c1.09983 1.83984 1.59327 3.73999 1.59327 5.53003c0 5.02002 -3.84287 9.26001 -9.0736 9.26001
c-0.865331 0 -1.76863 -0.120117 -2.69883 -0.370117z" />
    <glyph glyph-name="brace314" unicode="|" 
d="M-11.4738 2114.29c-3.6399 -0.949951 -4.2334 -1.82007 -15.3115 -22c-163.191 -297.37 -246.311 -603.25 -246.311 -898.87c0 -120.51 13.812 -239.31 41.642 -355.134c12.78 -53.254 23.344 -88.981 45.777 -155.094c30.285 -89.214 45.062 -177.124 45.062 -259.833
c0 -164.293 -58.306 -308.066 -169.177 -400.779c-6.13202 -5.1038 -15.193 -12.2255 -20.059 -15.7468c-4.293 -3.12562 -6.439 -6.21167 -6.439 -9.29771c0 -3.08605 2.146 -6.1721 6.439 -9.29774c4.86603 -3.5212 13.927 -10.6429 20.059 -15.7467
c110.871 -92.7128 169.177 -236.486 169.177 -400.78c0 -82.709 -14.777 -170.619 -45.062 -259.833c-15.233 -44.906 -20.693 -62.037 -28.922 -90.801c-38.669 -135.376 -58.044 -275.157 -58.044 -417.577c0 -90.29 7.78799 -181.65 23.385 -273.62
c34.026 -200.71 106.904 -408.19 211.79 -602.77c22.3388 -41.51 22.4339 -41.74 28.3623 -41.74h0.203441c5.53906 0 8.90206 3.36987 8.90206 8.8999v2.96997l-3.44213 6.13013c-110.391 198.42 -166.065 427.74 -166.065 678.03c0 144.67 18.604 296.36 55.996 453.13
c15.9048 66.627 35.7267 134.995 58.7534 202.69c14.0455 41.187 16.2611 48.387 21.6419 69.515c12.2887 48.223 18.3887 97.464 18.3887 146.725c0 84.599 -17.9905 169.257 -53.5222 248.922c-4.629 10.406 -13.4124 28.606 -16.5776 34.422l-6.7656 12.463
c-44.7476 82.532 -109.12 158.931 -188.922 224.173c-7.12198 5.816 -24.767 19.5846 -28.803 22.5124c-1.147 0.81107 -1.72101 1.19683 -1.72101 1.58259c0 0.38575 0.574005 0.77151 1.72101 1.58259c4.03598 2.92779 21.681 16.6963 28.803 22.5124
c79.802 65.2422 144.174 141.642 188.922 224.174l6.7656 12.463c3.1652 5.81601 11.9486 24.016 16.5776 34.421c35.5317 79.665 53.5222 164.324 53.5222 248.922c0 49.262 -6.1 98.503 -18.3887 146.725c-5.3808 21.168 -7.5964 28.329 -21.6815 69.634
c-75.9978 223.216 -115.116 448.321 -115.116 659.561c0 40.7 1.45299 80.89 4.37399 120.46c14.916 202.25 69.8715 392.28 160.91 556.28l4.62907 8.31006v2.95996c0 5.31006 -3.95699 9.08984 -8.88492 9.08984c-0.83969 0 -1.70758 -0.109863 -2.58888 -0.339844z" />
    <glyph glyph-name="brace315" unicode="}" 
d="M-11.7124 2128.45c-3.1465 -0.679932 -4.4609 -2.51001 -12.7455 -17.4399c-147.33 -266.3 -232.446 -546.71 -247.66 -816.11c-1.69699 -29.9401 -2.60599 -67.41 -2.60599 -100.05c0 -17.1799 0.251007 -33.03 0.77301 -45.73
c7.00998 -166.766 32.223 -300.872 86.032 -457.602c31.291 -91.094 46.524 -180.736 46.524 -264.951c0 -174.129 -65.124 -325.057 -188.078 -417.649c-6.79501 -5.15227 -8.92902 -7.38866 -8.92902 -10.6874c0 -0.7814 0.119995 -1.6224 0.326019 -2.57589
c0.636993 -2.9474 1.59299 -3.98297 8.603 -9.28032c122.394 -92.1474 188.066 -242.719 188.066 -417.723c0 -62.819 -8.46201 -128.787 -25.8 -196.33c-6.373 -24.774 -13.264 -47.118 -25.85 -83.642c-54.242 -157.598 -81.181 -322.779 -81.181 -491.679
c0 -271.76 69.735 -553.14 207.68 -828.08c20.9504 -41.7401 48.0744 -92.0001 51.4201 -95.2701c1.7017 -1.63989 3.8676 -2.3999 6.02199 -2.3999c3.99709 0 7.95448 2.59009 8.83442 6.86011c0.153307 0.73999 0.246512 1.38989 0.246512 2.0498
c0 2.46021 -1.25979 5.11011 -5.42436 12.6902c-101.805 184.61 -155.097 386.43 -164.576 623.53c-0.338989 8.53003 -0.507996 32.21 -0.507996 55.99s0.169006 47.65 0.507996 56.53c7.767 202.18 44.888 397.819 114.191 602.225
c14.8166 43.653 16.5293 49.11 21.8664 69.901c12.4628 48.555 18.6042 98.684 18.6042 148.844c0 97.803 -23.3481 195.722 -68.7098 282.312c-53.9292 102.84 -128.729 189.907 -225.356 262.238c-2.35001 1.77242 -3.52499 2.49931 -3.52499 3.22122
c0 0.72191 1.17499 1.43884 3.52499 3.19135c75.836 56.7572 143.227 128.331 191.541 203.529c14.1 21.906 30.2703 50.902 41.0642 73.486c41.0637 85.98 61.7533 176.818 61.7533 267.474c0 64.895 -10.6018 129.697 -31.9209 192.558
c-55.2436 162.943 -86.4306 289.68 -105.987 430.76c-9.28 66.83 -14.538 126.34 -17.406 196.95c-0.479996 11.88 -0.709 31.79 -0.709 53.0801c0 28.13 0.399002 58.6899 1.14799 76.37c9.638 226.43 64.683 431.32 164.496 612.18
c2.70841 4.97998 4.9787 9.56006 5.21768 10.6401c0.163486 0.73999 0.241464 1.45996 0.241464 2.15991c0 4.97998 -3.95832 8.72998 -9.15179 8.72998c-0.82594 0 -1.68311 -0.100098 -2.56061 -0.300049z" />
    <glyph glyph-name="brace316" unicode="~" 
d="M-11.334 2142.73c-3.8492 -0.969971 -4.3304 -1.60986 -12.8709 -17.0901c-167.188 -302.07 -252.037 -614.43 -252.037 -915.99c0 -172.37 27.721 -341.222 83.633 -502.612c28.187 -81.316 42.662 -148.276 48.396 -223.537
c1.354 -17.838 2.02299 -35.599 2.02299 -53.205c0 -103.382 -23.076 -201.44 -66.177 -278.391c-33.24 -59.3429 -72.895 -105.173 -124.499 -144.026c-6.65601 -5.01203 -7.578 -6.25502 -7.578 -10.3448c0 -4.08982 0.921997 -5.3328 7.578 -10.3448
c123.461 -92.8861 190.696 -242.865 190.696 -420.876c0 -24.621 -1.286 -49.779 -3.88701 -75.396c-6.416 -63.472 -19.567 -122.975 -41.58 -188.051c-20.65 -61.187 -28.228 -86.1671 -39.936 -131.516c-32.276 -125.272 -48.334 -253.82 -48.334 -384.34
c0 -262.82 65.12 -533.59 194.044 -801.51c18.4844 -38.3701 56.656 -111.34 64.9961 -124.18c1.9101 -2.94995 4.9005 -4.32007 7.83681 -4.32007c4.15182 0 8.19532 2.72998 8.92339 7.57007c0.0661103 0.439941 0.106997 0.849854 0.106997 1.27002
c0 2.38989 -1.31519 5.09985 -6.80308 15.0898c-109.849 200.09 -165.413 430.22 -165.413 682.04c0 84.51 6.25801 171.46 18.821 260.54c18.685 132.6 52.606 273.341 97.2334 403.574c14.154 41.259 16.5598 48.957 22.4138 72.173
c12.1915 48.318 18.2383 97.694 18.2383 147.102c0 87.577 -18.9983 175.254 -56.45 257.309c-49.7995 109.022 -133.921 211.468 -237.129 288.653c-3.68903 2.76664 -6.69601 5.09222 -6.69601 5.21251s3.00699 2.44587 6.69601 5.21252
c188.031 140.64 293.569 341.389 293.569 546.877c0 41.738 -4.3543 83.672 -13.256 125.338c-5.814 27.145 -11.9888 48.396 -25.9022 88.813c-34.0819 99.038 -62.149 203.93 -81.676 305.336c-24.231 125.72 -36.283 247.88 -36.283 365.44
c0 253.8 56.172 486.21 167.237 686.96c2.64636 4.82007 4.97194 9.46997 5.17242 10.3899c0.151154 0.660156 0.222809 1.31006 0.222809 1.9502c0 4.93994 -4.25059 9.1499 -9.16728 9.1499c-0.71043 0 -1.43474 -0.0900879 -2.16224 -0.27002z" />
    <glyph glyph-name="brace317" 
d="M-11.1849 2157.03c-4.0365 -0.929932 -4.5209 -1.62012 -14.9753 -20.5901c-147.089 -266.85 -232.662 -548.27 -248.728 -817.54c-2.26001 -38.15 -2.82501 -57.48 -2.82501 -99.3v0c0 -38.83 0.202026 -47.47 1.85703 -80.13
c7.38599 -148.013 34.592 -288.765 83.07 -429.84c28.457 -82.707 42.746 -150.156 48.276 -227.293c1.20599 -16.931 1.80299 -33.69 1.80299 -50.243c0 -178.517 -69.372 -333.205 -192.122 -424.002c-5.44901 -4.03647 -8.17398 -7.28583 -8.17398 -10.5352
c0 -3.24936 2.72498 -6.49872 8.17398 -10.5352c122.75 -90.7971 192.122 -245.486 192.122 -424.003c0 -16.553 -0.597 -33.311 -1.80299 -50.242c-5.53 -77.339 -19.738 -144.142 -48.437 -227.859c-56.43 -164.52 -84.559 -334.417 -84.559 -507.497
c0 -259.14 63.051 -525.4 188.579 -791.44c26.1564 -55.3799 70.1136 -138.77 74.7959 -141.76c1.59 -1.03003 3.3265 -1.51001 5.0219 -1.51001c4.07189 0 7.90644 2.76001 8.9039 7.19995c0.129721 0.590088 0.205703 1.14014 0.205703 1.71997
c0 2.27002 -1.20276 4.89014 -5.0091 11.76c-112.188 202.74 -168.501 438.03 -168.501 692.52c0 216.88 40.899 447.705 122.969 684.202c23.365 67.338 34.7909 135.791 34.7909 203.642c0 186.397 -86.2264 368.259 -248.037 510.007
c-15.904 13.9258 -42.504 35.3998 -53.282 43.1095l-1.009 0.6862l1.009 0.72657c55.098 39.1134 121.256 104.464 166.585 164.648c88.7639 117.745 134.801 254.226 134.801 390.433c0 66.397 -10.9397 132.728 -33.2029 196.792
c-83.7524 241.22 -124.804 469.294 -124.804 694.044c0 3.91003 0.0120087 7.82007 0.0370026 11.7301c0.242004 34.1899 0.404007 41.9399 1.494 66.2c10.131 223.95 66.521 431.82 166.141 612.62c4.05646 7.36011 6.00577 11.76 6.00577 14.8799
c0 2.59009 -1.34591 4.29004 -3.94717 6.07007c-1.57959 1.06006 -3.26135 1.59009 -5.03074 1.59009c-0.71743 0 -1.44924 -0.0900879 -2.19454 -0.26001z" />
    <glyph glyph-name="brace318" 
d="M-11.1662 2171.38c-4.1041 -0.889893 -4.3073 -1.17993 -12.5156 -15.97c-169.34 -305.24 -255.799 -622.28 -255.799 -928.56c0 -129.17 15.38 -256.435 46.407 -380.088c12.963 -51.687 21.293 -79.36 43.845 -145.879c25.926 -76.597 39.823 -147.302 44.821 -228.369
c0.345001 -5.68802 0.518005 -21.282 0.518005 -36.825s-0.173004 -31.035 -0.518005 -36.521c-10.931 -170.626 -77.369 -305.615 -192.447 -391.03c-5.64899 -4.1854 -8.47299 -7.41587 -8.47299 -10.6464c0 -3.23048 2.82401 -6.46096 8.47299 -10.6464
c85.049 -63.1467 146.733 -158.924 174.689 -271.401c9.67101 -38.807 14.791 -73.509 17.758 -119.629c0.345001 -5.48602 0.518005 -20.978 0.518005 -36.521s-0.173004 -31.137 -0.518005 -36.826c-4.998 -81.066 -18.895 -151.852 -44.821 -228.368
c-24.746 -72.94 -37.302 -116.013 -50.306 -172.698c-22.471 -98.012 -34.092 -186.963 -38.725 -297.043c-0.36499 -8.42993 -0.548004 -31.52 -0.548004 -54.65c0 -23.12 0.183014 -46.2899 0.548004 -54.86c3.332 -80.9399 9.306 -140.88 21.618 -216.99
c28.648 -177.41 91.713 -371.89 176.762 -545.32l8.16759 -16.74c11.2559 -23.3301 49.8997 -96.1001 55.0197 -103.66c1.727 -2.53979 4.6223 -3.80981 7.51751 -3.80981c2.89524 0 5.79047 1.27002 7.51746 3.80981c0.957715 1.41016 1.44906 3.64014 1.44906 5.72021
c0 1.7998 -0.369236 3.48999 -1.12398 4.43994c-1.7473 2.1499 -18.7733 34.3298 -28.6882 54.2c-96.5342 193.09 -144.886 413.29 -144.886 649.9c0 218.36 41.18 450.69 123.675 688.577c23.4396 67.556 35.0969 135.371 35.0969 204.3
c0 17.2271 -0.728199 34.524 -2.1826 51.904c-15.9289 189.724 -120.239 367.38 -293.384 499.809c-4.47 3.41333 -8.12701 6.33905 -8.12701 6.50159s3.65701 3.08825 8.12701 6.50159c191.719 146.624 295.543 345.592 295.543 550.797
c0 68.281 -11.4954 137.252 -35.0731 205.216c-82.7947 238.705 -124.083 472.073 -124.083 691.343c0 247.46 52.586 476.96 157.444 675.9c5.2826 10.04 15.9696 29.5801 16.5385 30.3101c0.920652 1.1499 1.33255 2.61987 1.33255 4.16992
c0 4.07007 -2.8258 8.68994 -6.737 9.48999c-0.77206 0.159912 -1.70667 0.360107 -2.03175 0.439941l-0.16269 0.0100098c-0.443789 0 -1.38546 -0.109863 -2.23476 -0.290039z" />
    <glyph glyph-name="brace319" 
d="M-11.9857 2185.66c-2.4954 -0.73999 -4.5816 -3.47998 -9.5723 -12.4299c-171.638 -309.19 -259.202 -628.55 -259.202 -937.55c0 -118.51 12.88 -235.49 38.836 -349.797c12.19 -53.67 27.776 -108.772 44.957 -158.924c16.608 -48.434 24.135 -73.878 32.071 -108.608
c14.112 -61.765 21.014 -121.971 21.014 -179.533c0 -180.707 -68.023 -335.352 -194.541 -430.349c-7.28198 -5.48154 -8.05899 -6.54512 -8.05899 -10.8813c0 -4.41795 0.735992 -5.39972 8.87698 -11.5358c126.058 -94.8542 193.715 -249.636 193.715 -429.9
c0 -63.142 -8.30099 -129.411 -25.301 -197.326c-6.668 -26.549 -13.786 -49.784 -27.776 -90.609c-55.648 -162.385 -83.291 -332.197 -83.291 -505.627c0 -277.89 70.967 -565.08 211.412 -845.94c22.0897 -44.22 50.1928 -96.46 53.7926 -100.1
c1.8329 -1.86011 4.0625 -2.68994 6.238 -2.68994c4.52494 0 8.8158 3.59985 8.8158 9.06982v0v3.11011l-6.42239 11.6599c-112.603 204.81 -169.364 440.84 -169.364 697.86c0 156.98 21.177 321.8 63.742 492.124c16.6489 66.7599 32.0709 117.934 63.0374 209.648
c21.9378 64.914 32.9225 131.651 32.9225 198.616c0 57.903 -8.213 115.976 -24.6592 173.187c-41.6433 144.934 -138.47 280.295 -273.75 382.685c-4.009 3.02711 -7.23999 5.60425 -7.23999 5.76788v0c0 0.16363 3.23099 2.74077 7.23999 5.76788
c129.675 98.1772 224.211 226.788 268.473 365.258c19.8912 62.296 29.8805 126.75 29.8805 190.972c0 50.022 -6.0603 99.904 -18.2221 148.515c-6.0951 24.381 -7.9768 30.353 -23.726 76.742c-78.1481 230.067 -118.128 461.807 -118.128 678.617
c0 81.2101 5.61 160.32 16.924 236.47c25.117 168.99 75.76 322.14 153.115 462.86l6.17695 11.25v3.10986c0 5.30005 -3.91958 8.98999 -8.85566 8.98999c-1.00914 0 -2.06074 -0.149902 -3.13004 -0.47998z" />
    <glyph glyph-name="brace320" 
d="M-12.066 2200.29c-3.1297 -0.949951 -4.0769 -2.39014 -17.2959 -26.52c-142.815 -260.88 -228.018 -535.8 -248.155 -800.97c-1.565 -20.13 -2.63602 -39 -3.995 -70.2101c-0.497009 -11.2899 -0.734009 -30.25 -0.734009 -50.6599
c0 -26.9601 0.414001 -56.4501 1.18701 -74.12c6.87698 -155.5 34.468 -304.16 82.362 -443.927c34.015 -99.246 47.646 -164.106 53.205 -253.674c0.371002 -5.806 0.556 -22.021 0.556 -38.149c0 -16.127 -0.184998 -32.167 -0.556 -37.624
c-11.448 -172.753 -77.255 -306.879 -193.879 -395.006c-8.89499 -6.71247 -9.42999 -7.41254 -9.42999 -11.8601c0 -4.44753 0.535004 -5.1476 9.42999 -11.8601c116.624 -88.1268 182.431 -222.253 193.879 -395.006c0.371002 -5.457 0.556 -21.497 0.556 -37.624
c0 -16.128 -0.184998 -32.343 -0.556 -38.149c-5.106 -82.279 -18.984 -152.41 -45.711 -231.436c-15.401 -45.505 -21.002 -63.048 -28.661 -89.569c-41.474 -143.761 -62.128 -291.406 -62.128 -441.386c0 -268.35 66.117 -544.2 197.407 -818.75
c21.5376 -45.0901 64.7362 -127.08 69.4309 -131.82c1.8567 -1.88989 4.1178 -2.73999 6.3209 -2.73999c4.54003 0 8.8336 3.61011 8.8336 9.13013v0v3.12988l-3.54155 6.38013c-115.602 207.53 -173.629 448.29 -173.629 709.12c0 220.19 41.354 454.68 124.336 695.557
c24.3517 70.694 36.5243 140.676 36.5243 210.577c0 58.118 -8.4149 116.179 -25.2407 174.546c-41.7162 144.792 -141.868 284.559 -275.253 384.135c-4.11801 3.04738 -7.45401 5.64177 -7.45401 5.76531c0 0.12354 3.336 2.71793 7.45401 5.76531
c133.385 99.5748 233.536 239.343 275.253 384.135c16.8258 58.367 25.2407 116.428 25.2407 174.546c0 69.9 -12.1726 139.883 -36.5243 210.577c-83.287 241.737 -124.786 477.347 -124.786 698.527c0 261.86 58.172 503.49 174.038 711.09l3.58273 6.38013v3.12988
c0 5.34009 -3.94582 9.05005 -8.91494 9.05005c-1.0159 0 -2.07456 -0.149902 -3.15106 -0.47998z" />
    <glyph glyph-name="brace321" 
d="M-11.3083 2215c-3.5238 -0.75 -4.3944 -1.90991 -15.4633 -22.1001c-150.445 -273.15 -237.753 -561.15 -254.252 -838.87c-2.19702 -37.1801 -2.86102 -60.5701 -2.86102 -100.53c0 -39.72 0.664001 -63.26 2.86102 -99.7
c8.70599 -143.94 36.855 -285.887 83.7 -422.113c34.99 -101.775 50.536 -184.564 51.904 -276.846c0.0540009 -3.595 0.0820007 -7.18201 0.0820007 -10.758c0 -184.236 -72.093 -343.303 -198.161 -436.309c-6.67502 -4.89187 -7.54501 -6.13556 -7.54501 -10.4056
c0 -4.27001 0.869995 -5.51371 7.54501 -10.4056c126.068 -93.0052 198.161 -252.073 198.161 -436.308c0 -3.577 -0.0279999 -7.16299 -0.0820007 -10.758c-1.368 -92.2 -16.997 -175.569 -51.862 -276.722c-57.482 -166.858 -86.24 -341.195 -86.24 -519.215
c0 -169.27 26.001 -341.86 78.032 -514.5c43.86 -145.6 103.226 -285.85 179.713 -424.52c11.1104 -20.1399 11.2347 -20.27 16.9143 -20.27c5.76108 0 8.86242 3.04004 8.86242 7.82007c0 2.6499 -0.952974 5.84009 -2.93414 9.34009
c-115.379 204.71 -175.522 451.18 -175.522 715.82c0 40.21 1.388 80.84 4.18199 121.81c11.235 164.25 42.991 331.24 94.977 498.931c8.70589 28.066 16.1681 50.784 28.2733 85.815c22.9598 66.524 34.2604 135.112 34.2604 203.615
c0 137.689 -45.6532 275.037 -134.046 394.601c-46.888 63.47 -110.316 126.857 -172.791 172.708c-1.70599 1.2427 -2.535 1.75772 -2.535 2.25728c0 0.48371 0.777008 0.95293 2.28601 2.0542c49.955 36.233 105.963 89.6289 148.788 141.781
c104.14 126.739 158.337 275.792 158.337 425.63c0 68.412 -11.2982 136.989 -34.2994 203.679c-15.0901 43.737 -24.3764 72.425 -35.4038 109.238c-50.0795 167.11 -80.6745 337.7 -89.7115 500.38c-1.98999 36.03 -2.446 55.5499 -2.48799 100.53
c0 157.04 18.822 296.5 58.869 435.71c27.9826 97.2999 70.0195 198.62 116.824 281.45c1.86658 3.2998 2.73207 6.42993 2.73207 9.09985c0 4.98999 -3.01954 8.39014 -8.17499 8.39014c-0.911901 0 -1.89064 -0.110107 -2.93124 -0.330078z" />
    <glyph glyph-name="brace322" 
d="M-11.2861 2229.89c-3.8812 -0.959961 -4.1316 -1.33984 -12.9792 -17.3599c-156.169 -282.21 -245.021 -578.69 -259.294 -865.15c-1.50201 -30.8 -1.711 -38.23 -1.961 -73.24c-0.026001 -3.93005 -0.0390015 -7.84998 -0.0390015 -11.77
c0 -183.43 28.728 -355.594 88.181 -528.479c34.495 -100.417 51.37 -193.169 51.37 -283.782c0 -22.855 -1.07401 -45.573 -3.209 -68.244c-14.565 -154.374 -81.256 -284.209 -189.138 -368.219c-4.17398 -3.2553 -8.76398 -6.76093 -10.225 -7.80428
c-3.36002 -2.33711 -5.039 -5.34195 -5.039 -8.3468c0 -3.00485 1.67899 -6.00969 5.039 -8.34682c3.965 -2.7962 17.194 -13.1462 22.954 -18.0291c116.454 -97.8199 179.493 -248.775 179.493 -424.638c0 -27.769 -1.57201 -56.159 -4.75301 -85.059
c-7.38699 -67.15 -21.159 -126.621 -46.283 -199.697c-50.582 -147.071 -78.627 -292.595 -86.139 -447.175c-1.50299 -30.64 -1.711 -39.53 -1.711 -79.0901c0 -284.42 72.074 -573.97 213.72 -858.47c17.4865 -35.1799 46.9507 -90.6899 54.5463 -102.79
c1.8851 -3.03003 4.8089 -4.38989 7.68852 -4.38989c4.57935 0 9.04679 3.43994 9.04679 9.10986v0c0 0.450195 0.0178883 0.810059 0.0178883 1.13013c0 1.82007 -0.572637 2.69995 -8.19775 16.5999c-99.4103 181.21 -157.462 392.72 -169.148 616.41
c-1.494 28.95 -2.32301 68.6 -2.32301 103.72c0 19.8099 0.264008 38.1799 0.820999 52.37c8.472 215.43 49.663 427.1 125.578 645.457c24.061 69.198 36.1015 139.634 36.1015 210.285c0 59.736 -8.6077 119.626 -25.835 179.051
c-42.5269 146.487 -140.56 283.207 -278.115 387.667c-4.00702 3.04658 -7.30402 5.71756 -7.30402 5.88449c0 0.16694 3.297 2.83791 7.30402 5.88449c195.522 148.517 303.804 353.148 303.804 566.776c0 32.377 -2.4872 64.961 -7.535 97.588
c-5.5506 35.807 -14.9408 73.827 -26.5011 107.131c-39.6473 114.226 -67.6093 216.098 -89.2693 325.606c-26.497 133.89 -39.665 264.24 -39.665 389.75c0 264.1 58.31 506.72 173.423 715.62c6.48783 11.75 6.8501 12.27 6.8501 14.3499
c0 0.26001 -0.0057252 0.550049 -0.0057252 0.880127c0 5.21997 -4.04177 9.10986 -8.90513 9.10986c-0.771299 0 -1.56328 -0.0998535 -2.36308 -0.300049z" />
    <glyph glyph-name="brace323" unicode="&#x85;" 
d="M-11.3016 2244.83c-3.7812 -0.969971 -4.4534 -1.89014 -13.7383 -18.74c-173.715 -314.5 -262.278 -640.2 -262.278 -955.53c0 -134.09 16.014 -266.3 48.304 -394.99c13.192 -52.559 21.889 -81.38 45.291 -150.618c31.611 -93.375 46.979 -185.523 46.979 -272.393
c0 -185.835 -70.33 -347.519 -202.429 -445.405c-4.642 -3.4451 -6.96399 -6.55408 -6.96399 -9.66307c0 -3.10899 2.32199 -6.21797 6.96399 -9.66303c132.098 -97.8853 202.448 -259.606 202.448 -445.438c0 -86.87 -15.373 -179.01 -46.998 -272.36
c-22.478 -66.381 -30.838 -94.025 -43.568 -143.895c-33.147 -129.925 -49.589 -263.485 -49.589 -398.995c0 -314.17 88.369 -638.84 261.84 -953.2c8.2346 -14.96 9.0328 -16.22 11.3856 -17.6899c1.4727 -0.939941 3.064 -1.36011 4.62209 -1.36011
c4.66471 0 9.03221 3.81006 9.03221 9.13013v0v2.77002l-6.13395 11.1399c-80.9596 147.13 -133.686 307.95 -158.894 484.41c-10.789 75.53 -16.135 153.85 -16.135 234.13c0 225.49 42.175 466.44 124.403 704.449c27.0955 78.464 39.2084 144.439 39.2084 217.126
c0 11.729 -0.3155 23.634 -0.934301 35.794c-5.4617 108.352 -38.4002 213.259 -97.7651 311.277c-50.752 83.9 -123.477 163.389 -207.252 226.535c-4.03302 3.06697 -7.31 5.6718 -7.31 5.83985c0 0.16805 3.27698 2.77288 7.31 5.83985
c113.31 85.4551 202 195.992 253.173 315.562c35.1696 82.162 52.8089 167.623 52.8089 253.588c0 71.669 -12.2602 143.689 -36.8439 214.441c-68.3137 196.832 -109.655 393.618 -122.889 585.248c-3.19301 46.88 -4.16 76.4199 -4.16 128.14v0
c0 268.97 58.441 509.58 175.28 721.79l6.13395 11.1299v2.77002c0 5.13989 -4.20682 9.11011 -9.05264 9.11011c-0.73901 0 -1.49286 -0.0900879 -2.24896 -0.280029z" />
    <glyph glyph-name="brace324" 
d="M-11.0436 2259.78c-4.5679 -1.02002 -5.3487 -2.18994 -25.9233 -40.4099c-147.38 -273.17 -233.114 -561.49 -249.16 -837.75c-2.30399 -39.47 -2.73297 -56.0599 -2.73297 -101.5c0 -42.48 0.155975 -50.41 1.75699 -82.58
c7.80798 -156.86 36.581 -305.921 87.608 -453.731c11.829 -34.278 19.442 -59.499 26.196 -86.788c17.243 -69.602 25.669 -137.456 25.669 -202.125c0 -187.184 -70.595 -347.686 -202.33 -446.661c-5.797 -4.3726 -8.69601 -7.5935 -8.69601 -10.8144
c0 -3.22089 2.89902 -6.44178 8.69601 -10.8144c131.735 -98.9744 202.33 -259.476 202.33 -446.66c0 -64.669 -8.42599 -132.523 -25.669 -202.125c-6.754 -27.251 -14.367 -52.471 -26.157 -86.671c-59.517 -172.524 -89.254 -351.19 -89.254 -533.56
c0 -199.24 35.496 -402.91 106.432 -607.81c41.462 -119.7 93.1521 -235.06 157.999 -352.54c8.511 -15.4199 9.1356 -16.2 13.313 -17.1001c0.6325 -0.129883 1.25401 -0.199951 1.85976 -0.199951c5.11406 0 9.10584 4.54004 9.10584 9.41016
c0 1.59985 -0.432693 3.23999 -1.40048 4.77002c-9.95552 15.6899 -40.0952 75.8899 -56.7267 113.41c-83.0258 187.19 -124.529 397.65 -124.529 621.88c0 227.69 42.791 469.56 128.355 715.671c24.2561 69.769 36.3206 141.272 36.3206 212.64
c0 98.639 -23.0461 197.02 -68.8028 290.21c-13.2736 26.977 -30.3346 56.57 -47.3956 82.181c-49.27 73.866 -117.514 145.663 -190.482 200.477c-4.87997 3.66987 -8.862 6.71508 -8.862 6.8322s3.98203 3.20137 8.862 6.8322
c72.968 54.8138 141.212 126.61 190.482 200.476c17.061 25.611 34.122 55.204 47.3956 82.182c45.7815 93.214 68.8128 191.264 68.8128 289.784c0 71.526 -12.1395 143.3 -36.5258 213.651c-85.3536 246.194 -128.671 488.804 -128.671 719.554
c0 27.62 0.621002 55.08 1.86501 82.35c10.814 236.39 70.821 456.98 175.763 646.17c2.85 5.08008 5.07534 9.6001 5.30959 10.6201c0.121368 0.580078 0.17935 1.15991 0.17935 1.73999c0 4.09985 -2.8752 8.09009 -6.73826 8.84009
c-0.74178 0.159912 -1.63973 0.349854 -1.95205 0.429932l-0.156321 0.0100098c-0.42638 0 -1.33117 -0.110107 -2.14707 -0.280029z" />
    <glyph glyph-name="brace325" 
d="M-11.9275 2274.59c-3.1835 -0.860107 -4.1661 -2.16016 -11.0833 -14.6201c-177.295 -319.87 -267.717 -650.8 -267.717 -971.67c0 -125.46 13.825 -249.39 41.689 -370.509c14.031 -60.919 26.726 -104.544 53.097 -182.56
c32.037 -94.664 47.609 -188.141 47.609 -276.277c0 -187.694 -70.622 -351.166 -203.246 -450.307c-8.13599 -6.09188 -8.72498 -6.83863 -8.72498 -11.3191v0c0 -4.48048 0.588989 -5.22723 8.72498 -11.3192c132.043 -98.6779 203.066 -260.402 203.066 -449.451
c0 -62.14 -7.673 -127.232 -23.375 -194.009c-7.507 -32.07 -14.739 -56.163 -31.6 -105.527c-58.012 -169.933 -86.796 -347.042 -86.796 -527.632c0 -319.18 89.923 -649.2 267.312 -969.59c7.8998 -14.3501 8.2928 -14.74 13.8345 -14.74v0
c5.49522 0 9.13705 4.07983 9.13705 8.84985c0 1.73999 -0.487987 3.58008 -1.55168 5.34009c-10.2579 16.97 -35.9224 67.52 -50.8966 100.37c-87.4717 191.73 -131.61 407.39 -131.61 638.93c0 117.18 11.306 238.43 34.022 362.7
c22.599 123.64 48.578 221.112 97.3518 365.313c22.916 67.717 34.336 137.453 34.336 207.22c0 87.22 -17.8486 174.489 -53.3976 257.924c-6.4849 15.21 -18.9831 41.504 -24.682 51.88c-17.4892 31.756 -25.5462 45.237 -39.4592 66.028
c-50.74 75.775 -118.537 146.676 -194.823 203.783c-2.75101 2.04373 -4.991 3.81234 -4.991 3.93025c0 0.1179 2.23999 1.88651 4.991 3.93024c88.234 66.0281 164.599 150.096 216.753 238.605l17.5292 31.207c5.69891 10.375 18.1971 36.669 24.682 51.879
c35.549 83.435 53.3976 170.704 53.3976 257.924c0 69.767 -11.42 139.503 -34.336 207.22c-45.9052 135.672 -70.1158 224.537 -92.5968 339.577c-25.626 131.08 -39.439 269.64 -39.439 392.49c0 19.4 0.343994 38.4099 1.041 56.9299
c8.843 235.74 58.01 438.18 152.1 626.68c10.3758 20.75 25.1535 48.6899 30.027 56.75c1.02087 1.67993 1.47832 3.42993 1.47832 5.10986c0 4.96021 -3.98833 9.31006 -9.23683 9.31006c-0.84371 0 -1.71991 -0.109863 -2.61731 -0.349854z" />
    <glyph glyph-name="brace326" 
d="M-11.474 2289.9c-3.3631 -0.869873 -4.3126 -2.05981 -10.9992 -14.0898c-176.717 -317.9 -269.868 -655.82 -269.868 -976.7c0 -22.16 0.444 -44.25 1.33701 -66.24c6.686 -163.88 35.925 -322.421 86.886 -470.515c33.393 -97.014 48.586 -168.628 53.967 -253.931
c0.985001 -15.73 1.47301 -31.32 1.47301 -46.749c0 -190.223 -74.176 -355.814 -204.681 -452.686c-8.26999 -6.13266 -9.061 -7.12179 -9.061 -11.5531v0c0 -4.43133 0.791016 -5.42047 9.061 -11.5531c132.934 -98.6864 204.488 -264.275 204.488 -454.14
c0 -78.613 -12.266 -161.387 -37.522 -245.298c-3.71899 -12.305 -7.28 -23.186 -20.02 -60.931c-56.975 -168.753 -85.233 -344.943 -85.233 -524.653c0 -314.35 86.467 -639.45 256.947 -954.31c8.0713 -14.8701 15.4701 -28.25 17.567 -31.6899
c2.1554 -3.5 5.4193 -5.1001 8.52195 -5.1001c4.4724 0 8.60995 3.33008 8.60995 9.1001v0l-0.0395655 2.96997l-5.57873 10.0898c-119.28 215.36 -179.263 462.06 -179.263 737.6c0 3.58997 0.0110016 7.17993 0.0309906 10.78
c0.198013 36.5199 0.356003 43.87 1.464 70.0299c7.082 167.56 38.062 348.73 89.6158 524.24c12.0279 40.871 18.5958 61.327 41.3064 128.39c22.7793 67.333 34.0982 136.799 34.0982 206.39c0 100.236 -23.4823 200.734 -70.0237 295.499
c-8.2296 16.775 -18.7937 36.083 -29.3577 53.69c-44.867 74.818 -106.55 145.997 -178.599 206.097c-12.858 10.7223 -31.771 25.6385 -39.486 31.1776c-1.142 0.82732 -1.716 1.22314 -1.716 1.61711c0 0.39735 0.583008 0.79283 1.75601 1.62726
c53.967 38.7742 116.164 98.8742 162.376 157.075c32.998 41.504 62.316 87.677 85.0267 133.889c46.5414 94.765 70.0237 195.276 70.0237 295.516c0 69.594 -11.3189 139.056 -34.0982 206.373c-14.3623 42.453 -20.1785 59.823 -25.045 75.174
c-72.2312 227.775 -108.169 450.295 -108.169 660.585c0 272.35 60.278 524.2 180.06 740.43l5.57873 10.0898l0.0395655 2.96997c0 5.30005 -3.95707 9.08008 -8.8851 9.08008c-0.8397 0 -1.7076 -0.110107 -2.5889 -0.340088z" />
    <glyph glyph-name="brace327" 
d="M-11.52 2305.1c-3.1466 -0.680176 -4.461 -2.51001 -12.7457 -17.4502c-157.568 -284.54 -249.337 -586.14 -266.385 -875.47c-2.08701 -35.8 -3.23999 -78.4 -3.23999 -113.87c0 -17.3301 0.274994 -32.9501 0.850006 -45.25
c0.119995 -2.39001 0.398987 -9.04004 0.63797 -14.7301c5.45602 -140.09 28.438 -278.18 68.707 -412.846c6.811 -22.743 10.834 -35.09 26.009 -79.66c32.544 -95.762 48.366 -190.382 48.366 -279.671c0 -190.363 -71.919 -356.493 -207.05 -457.788
c-5.91998 -4.45074 -8.85001 -7.83633 -8.85001 -11.1353c0 -3.04851 2.50201 -6.02309 7.45599 -9.69588c135.002 -100.245 208.293 -265.375 208.293 -458.047c0 -51.534 -5.244 -105.04 -15.952 -159.801c-8.80301 -45.048 -19.477 -83.882 -36.883 -134.228
c-54.687 -158.245 -82.927 -311.158 -90.176 -488.118c-0.536011 -13.22 -0.791992 -29.87 -0.791992 -47.9399c0 -33.01 0.85498 -70.76 2.42499 -101.03c15.375 -293.51 107.183 -598.53 266.783 -886.42c8.3644 -15.0601 9.3601 -16.3699 13.0245 -17.1299
c0.8668 -0.180176 1.69584 -0.26001 2.48212 -0.26001c5.20561 0 8.53705 3.72998 8.53705 8.69995c0 2.1499 -0.620202 4.53003 -1.97766 6.93994c-88.025 155.85 -146.854 338.63 -171.31 532.29c-8.77899 69.39 -13.127 141.13 -13.127 214.52
c0 228.6 42.185 473.23 124.015 712.927l9.3203 27.284c22.799 67.003 34.2773 137.977 34.2773 209.027c0 52.829 -6.3457 105.7 -19.1019 157.014c-10.8339 43.574 -25.0931 84.161 -43.4549 123.673c-4.2618 9.16101 -15.0957 31.028 -17.0872 34.413l-7.1294 12.905
c-52.616 95.912 -133.95 187.84 -229.542 259.375c-2.58902 1.91185 -4.70001 3.62455 -4.70001 3.78388c0 0.15932 2.11099 1.87202 4.66 3.78387c95.632 71.5352 176.966 163.464 229.582 259.375l7.1294 12.905c4.0229 6.85098 17.5253 34.891 23.8185 49.35
c37.1537 85.651 55.8621 175.771 55.8621 265.977c0 64.038 -9.4284 128.12 -28.3792 190.677c-1.9915 6.57202 -3.7838 11.87 -15.255 45.407c-71.2958 208.793 -113.875 427.343 -122.678 629.513c-1.354 31.87 -1.593 43.22 -1.593 84.64
c0 46.76 0.438004 63.77 2.629 102.77c13.104 235.91 76.235 460.59 182.064 648c1.37287 2.43994 2.00059 4.82983 2.00059 6.97998c0 4.97998 -3.36037 8.6499 -8.62651 8.6499c-0.91009 0 -1.87709 -0.109863 -2.89349 -0.339844z" />
    <glyph glyph-name="brace328" 
d="M-11.3348 2320.59c-3.729 -0.960205 -4.4107 -1.80005 -11.6682 -14.8701c-160.147 -288.38 -253.332 -595.12 -269.772 -887.75c-2.245 -40.1 -2.767 -60.14 -2.767 -102.04c0 -187.58 29.311 -366.972 88.374 -540.711c19.567 -57.579 27.065 -83.041 35.446 -120.692
c14.262 -64.031 21.24 -126.46 21.24 -186.221c0 -192.43 -72.352 -357.201 -206.849 -458.777c-9.302 -7.01695 -9.98401 -7.85899 -9.98401 -12.1895s0.682007 -5.1725 9.98401 -12.1894c135.143 -102.087 207.024 -268.735 207.024 -459.713
c0 -89.788 -15.888 -184.954 -48.561 -281.318c-15.237 -44.988 -21.171 -63.353 -28.509 -88.213c-45.306 -153.989 -67.872 -312.676 -67.872 -474.026c0 -262.9 59.912 -532.85 178.981 -800.97c20.9302 -47.2 49.0381 -104.82 72.2141 -148.04
c11.9088 -22.2202 25.6219 -47.2002 27.4263 -49.8c1.8265 -2.69019 4.639 -3.93018 7.43454 -3.93018c4.20063 0 8.36313 2.79004 9.08538 7.58008c0.0666652 0.439941 0.107682 0.850098 0.107682 1.28003c0 2.37988 -1.2937 5.08008 -6.60338 14.6699
c-33.521 60.99 -61.5487 122.26 -85.8875 187.82c-63.9551 172.08 -95.3461 355.97 -95.3461 558.7c0 3.94006 0.0120087 7.88 0.0360107 11.8401c0.199997 35.5599 0.401001 43.7 1.483 69.77c8.782 209.74 52.608 430.48 129.513 652.572
c25.1481 72.626 37.4867 146.516 37.4867 219.79c0 181.065 -75.3428 358.366 -218.925 503.518c-31.556 31.877 -67.243 63.0323 -99.521 86.8498c-2.686 2.00484 -4.89099 3.68891 -4.89099 3.8092s2.20499 1.84446 4.89099 3.8092
c32.278 23.8176 67.965 54.9729 99.521 86.8499c142.884 144.468 218.907 321.66 218.907 504.198c0 39.266 -3.5177 78.779 -10.6444 118.266c-6.2952 34.884 -14.2744 64.436 -28.7494 106.457c-86.7547 251.961 -129.985 498.081 -129.985 729.871
c0 275.05 60.868 529.92 182.111 750.43c3.32804 6.01001 6.17492 11.6599 6.37541 12.5901c0.151157 0.649902 0.222812 1.30005 0.222812 1.93994c0 4.90991 -4.26902 9.11011 -9.19925 9.11011c-0.70024 0 -1.41379 -0.0900879 -2.13039 -0.27002z" />
    <glyph glyph-name="brace329" 
d="M-11.2232 2336.07c-3.431 -0.810059 -4.763 -2.30005 -9.0014 -9.8501c-166.345 -297.45 -260.759 -612.54 -275.25 -918.72c-1.29199 -27.4 -1.49399 -35.4399 -1.69501 -71.04c-0.0229797 -3.79993 -0.0339966 -7.57996 -0.0339966 -11.37
c0 -159.12 19.932 -305.74 62.317 -458.479c9.32399 -33.544 15.218 -52.233 35.158 -111.408c32.32 -95.789 48.631 -190.803 48.631 -282.412c0 -28.526 -1.58099 -56.722 -4.754 -84.508c-18.164 -159.161 -90.256 -293.254 -203.562 -378.546
c-7.185 -5.42913 -10.777 -8.91063 -10.777 -12.3921c0 -3.4815 3.59201 -6.963 10.777 -12.3921c135.629 -102.107 208.346 -270.21 208.346 -463.167c0 -80.05 -12.515 -164.378 -38.247 -250.046c-3.955 -13.079 -9.526 -30.032 -18.971 -57.682
c-50.416 -147.696 -79.641 -304.358 -86.987 -466.418c-1.12598 -24.92 -1.68698 -49.96 -1.68698 -75.12c0 -304.01 81.865 -624.27 237.137 -924.93c15.8635 -30.76 39.5176 -74.52 43.1504 -79.8801c1.8878 -2.76001 4.7296 -4.04004 7.53837 -4.04004
c3.97799 0 7.88966 2.57007 8.93069 7.18018c0.129169 0.589844 0.203441 1.12988 0.203441 1.69995c0 2.27002 -1.18835 4.86987 -4.80508 11.4199c-122.706 220.93 -184.654 476.63 -184.654 754.83c0 159.8 20.438 327.03 61.54 499.36
c17.438 73.063 40.6881 152.986 65.432 224.917c9.284 27.004 13.2398 39.073 16.5094 50.456c17.674 61.457 26.3016 123.503 26.3016 185.02c0 222.288 -112.649 437.667 -318.183 593.343c-3.754 2.86593 -6.862 5.32821 -6.862 5.44931s3.108 2.58337 6.862 5.44931
c205.644 155.769 318.062 370.439 318.062 593.008c0 60.963 -8.4341 122.518 -25.6966 183.619c-3.1082 10.939 -5.9741 19.738 -19.8194 60.548c-64.7454 190.68 -105.434 386.94 -119.36 575.61c-3.55099 48.28 -5.321 95.9801 -5.321 143.03
c0 276.99 61.337 531.52 181.516 750.65c8.06015 14.72 8.39882 15.21 8.39882 17.24c0 0.179932 -0.0028505 0.379883 -0.0028505 0.610107c0 5.23999 -4.11058 9.21997 -8.96224 9.21997c-0.71373 0 -1.44351 -0.0800781 -2.17861 -0.26001z" />
    </font>
</defs>
</svg>
